<?xml version="1.0" encoding="utf-8"?>
<!-- Generator: Adobe Illustrator 15.0.0, SVG Export Plug-In . SVG Version: 6.00 Build 0)  -->
<!DOCTYPE svg PUBLIC "-//W3C//DTD SVG 1.1//EN" "http://www.w3.org/Graphics/SVG/1.1/DTD/svg11.dtd">
<svg version="1.1" id="レイヤー_1" xmlns="http://www.w3.org/2000/svg" xmlns:xlink="http://www.w3.org/1999/xlink" x="0px"
	 y="0px" width="342px" height="180px" viewBox="0 0 342 180" enable-background="new 0 0 342 180" xml:space="preserve">
<path fill="#E75400" d="M28.076,81.675c-2.47,0-4.48-2.004-4.48-4.48V14.304H0v67.087c0,12.058,9.776,21.838,21.831,21.838h32.205
	V81.675H28.076z"/>
<path fill="#E75400" d="M316.041,81.675c-2.465,0-4.482-2.004-4.482-4.48V14.304h-23.596v67.087
	c0,12.058,9.775,21.838,21.838,21.838H342V81.675H316.041z"/>
<rect x="77.115" y="14.311" fill="#E75400" width="23.936" height="88.918"/>
<rect x="236.519" y="14.311" fill="#E75400" width="23.936" height="88.918"/>
<path fill="#E75400" d="M185.836,55.382l29.828-41.065L196.575,0.444l-27.788,38.25l-27.785-38.25l-19.097,13.873l29.835,41.065
	c1.355,1.86,1.355,4.903,0,6.774l-29.835,41.067l19.097,13.871l27.785-38.25l27.788,38.25l19.089-13.871l-29.828-41.067
	C184.48,60.285,184.48,57.242,185.836,55.382"/>
<path fill="#54585A" d="M43.908,149.014c-2.149,0-4.348,1.071-6.232,3.021v-2.603h-3.504v22.139h3.504v-16.335
	c1.468-1.52,3.919-3.133,5.942-3.133c2.271,0,3.278,1.104,3.278,3.575v15.893h3.503v-15.982
	C50.399,151.473,47.973,149.014,43.908,149.014"/>
<polygon fill="#54585A" points="72.652,149.431 68.387,149.431 59.94,160 59.94,141.03 56.438,141.03 56.438,171.57 59.94,171.57 
	59.94,164.922 63.629,160.7 69.269,171.57 73.379,171.57 66.066,157.699 "/>
<path fill="#54585A" d="M95.649,168.899c-1.934,0-2.199-0.63-2.199-1.249v-15.132h4.992v-3.087h-4.992v-7.108h-3.505v7.108h-3.535
	v3.087h3.535v15.638c0,3.182,1.866,3.825,4.873,3.825c1.809,0,3.033-0.178,3.568-0.341l0.182-0.057v-2.938l-0.297,0.046
	C97.395,168.83,96.539,168.899,95.649,168.899"/>
<path fill="#54585A" d="M110.498,149.014c-5.533,0-9.112,4.507-9.112,11.484c0,6.977,3.58,11.483,9.112,11.483
	c5.541,0,9.12-4.507,9.12-11.483C119.618,153.521,116.038,149.014,110.498,149.014 M110.498,168.899
	c-3.51,0-5.608-3.146-5.608-8.401c0-5.257,2.098-8.396,5.608-8.396c3.518,0,5.61,3.139,5.61,8.396
	C116.107,165.752,114.015,168.899,110.498,168.899"/>
<path fill="#54585A" d="M145.703,143.949c3.618,0,5.849,1.991,7.242,6.439l0.069,0.215l3.656-0.726l-0.076-0.26
	c-1.728-6.06-5.345-9.005-11.055-9.005c-3.604,0-11.987,1.533-11.987,15.688c0,14.153,8.383,15.681,11.987,15.681
	c3.335,0,6.094-1.01,7.684-2.793v2.382h3.257v-14.942h-10.62v3.334h6.781v2.281c0,3.102-1.819,6.402-6.938,6.402
	c-3.101,0-8.313-1.605-8.313-12.344C137.389,145.555,142.602,143.949,145.703,143.949"/>
<path fill="#54585A" d="M170.288,149.014c-5.534,0-9.112,4.507-9.112,11.484c0,6.977,3.578,11.483,9.112,11.483
	c5.534,0,9.113-4.507,9.113-11.483C179.401,153.521,175.822,149.014,170.288,149.014 M170.288,168.899
	c-3.518,0-5.61-3.146-5.61-8.401c0-5.257,2.092-8.396,5.61-8.396c3.511,0,5.608,3.139,5.608,8.396
	C175.896,165.752,173.799,168.899,170.288,168.899"/>
<path fill="#54585A" d="M191.798,149.014c-5.541,0-9.121,4.507-9.121,11.484c0,6.977,3.58,11.483,9.121,11.483
	c5.533,0,9.106-4.507,9.106-11.483C200.904,153.521,197.331,149.014,191.798,149.014 M191.798,168.899
	c-3.516,0-5.615-3.146-5.615-8.401c0-5.257,2.099-8.396,5.615-8.396c3.51,0,5.602,3.139,5.602,8.396
	C197.4,165.752,195.308,168.899,191.798,168.899"/>
<path fill="#54585A" d="M222.616,167.524l0.006-0.951V141.03h-3.503v10.254c-1.368-1.077-3.385-2.271-5.609-2.271
	c-3.321,0-8.95,2.42-8.95,11.484c0,8.477,4.916,11.483,9.113,11.483c2.199,0,4.31-0.853,5.552-2.212l0.353,1.801h3.251l-0.044-0.296
	C222.591,170.027,222.604,168.754,222.616,167.524 M219.118,154.939v11.193c-2.119,2.067-3.441,2.767-5.193,2.767
	c-3.725,0-5.861-3.008-5.861-8.231c0-5.685,1.972-8.566,5.861-8.566C215.545,152.102,217.479,153.163,219.118,154.939"/>
<polygon fill="#54585A" points="243.533,141.03 239.695,141.03 239.695,171.564 257.291,171.564 257.291,168.231 243.533,168.231 
	"/>
<rect x="261.596" y="140.615" fill="#54585A" width="3.504" height="4.09"/>
<rect x="261.596" y="149.43" fill="#54585A" width="3.504" height="22.14"/>
<polygon fill="#54585A" points="278.542,166.839 273.204,149.431 269.63,149.431 276.443,171.57 280.81,171.57 287.46,149.431 
	283.887,149.431 "/>
<rect x="291.991" y="140.615" fill="#54585A" width="3.504" height="4.09"/>
<rect x="291.991" y="149.43" fill="#54585A" width="3.504" height="22.14"/>
<path fill="#54585A" d="M311.61,149.014c-2.149,0-4.349,1.071-6.233,3.024v-2.607h-3.504v22.139h3.504v-16.335
	c1.462-1.52,3.92-3.133,5.943-3.133c2.269,0,3.277,1.104,3.277,3.575v15.893h3.509v-15.982
	C318.107,151.473,315.675,149.014,311.61,149.014"/>
<path fill="#54585A" d="M328.229,167.146c-0.957,0-1.539-0.491-1.539-1.325c0-0.855,0.494-1.436,1.458-1.731
	c1.077,0.309,2.035,0.574,3.825,0.574c4.57,0,8.156-3.436,8.156-7.828c0-1.803-0.687-3.378-1.35-4.298
	c0.707-0.265,1.81-0.437,2.925-0.437h0.253v-3.527l-0.28,0.024c-1.428,0.151-3.149,0.84-4.639,1.86
	c-1.475-0.996-3.137-1.445-5.361-1.445c-4.891,0-8.445,3.289-8.445,7.823c0,2.445,0.952,4.518,2.767,6.012
	c-1.544,0.971-2.729,1.826-2.729,3.725c0,1.285,0.939,2.502,2.338,3.119c-2.137,1.166-3.295,2.283-3.295,4.369
	c0,3.643,3.227,5.496,9.573,5.496c7.455,0,10.115-3.146,10.115-6.083C342,168.868,338.268,167.146,328.229,167.146 M331.556,152.102
	c3.373,0,5.231,1.741,5.231,4.904c0,2.275-1.512,4.569-4.903,4.569c-3.133,0-5.313-1.947-5.313-4.739
	C326.572,153.917,328.481,152.102,331.556,152.102 M332.389,176.468c-6.214,0-6.73-1.216-6.73-2.452
	c0-1.626,1.512-3.365,5.772-3.365c6.429,0,7.21,1.687,7.228,2.943C338.622,175.711,335.394,176.468,332.389,176.468"/>
<polygon fill="#54585A" points="6.233,141.03 2.388,141.03 2.388,171.564 19.992,171.564 19.992,168.231 6.233,168.231 "/>
<rect x="24.289" y="140.615" fill="#54585A" width="3.505" height="4.09"/>
<rect x="24.289" y="149.43" fill="#54585A" width="3.505" height="22.14"/>
</svg>
