<?xml version="1.0" standalone="no"?>
<!DOCTYPE svg PUBLIC "-//W3C//DTD SVG 1.1//EN" "http://www.w3.org/Graphics/SVG/1.1/DTD/svg11.dtd" >
<svg xmlns="http://www.w3.org/2000/svg" xmlns:xlink="http://www.w3.org/1999/xlink" version="1.1">
<metadata></metadata>
<defs>
<font id="cormorant_garamondsemibold" horiz-adv-x="1568" >
<font-face units-per-em="2048" ascent="1638" descent="-410" />
<missing-glyph horiz-adv-x="479" />
<glyph unicode="&#x104;&#x301;" horiz-adv-x="1458" d="M-14 12.5q0 12.5 10 12.5q57 0 97 22.5t77 80.5t86 173l440 991q4 6 19 6q14 0 16 -6l502 -1013q68 -141 118 -201t105 -60q10 0 10 -11t-10 -11q-49 0 -123 4l-96 2q-104 0 -164.5 -66.5t-60.5 -181.5q0 -109 52 -174t138 -65q51 0 96 24h2q6 0 11.5 -6t1.5 -10 q-53 -45 -106.5 -65.5t-116.5 -20.5q-115 0 -180.5 60.5t-65.5 160.5q0 76 33.5 126t99.5 112q57 55 83.5 93t26.5 89q0 47 -30 108l-158 316h-493l-99 -221q-27 -59 -26 -111q0 -70 51 -107.5t143 -37.5q10 0 10 -12.5t-10 -12.5q-37 0 -106 4q-78 4 -136 4q-55 0 -129 -4 q-66 -4 -108 -4q-10 0 -10 12.5zM428 553h446l-235 473zM511 1398q-3 9 3 13q68 43 193 137q29 25 90 70q10 8 65.5 -8.5t97 -37t19.5 -24.5q-242 -61 -455 -159h-2q-8 0 -11 9z" />
<glyph unicode="&#x118;&#x301;" horiz-adv-x="1120" d="M80 12.5q0 12.5 6 12.5q70 0 101.5 10t43 39.5t11.5 91.5v948q0 61 -11.5 90t-44 40t-100.5 11q-6 0 -6 12.5t6 12.5h852q20 0 20 -18l5 -267q0 -4 -11.5 -6t-13.5 4q-49 233 -285 234h-82q-74 0 -104.5 -26.5t-30.5 -90.5v-418h197q225 0 225 152q0 6 11.5 6t11.5 -6 l-2 -178l2 -97q4 -66 4 -106q0 -4 -12.5 -4t-12.5 4q0 176 -229 176h-195v-465q0 -68 25.5 -94.5t91.5 -26.5h100q274 0 348 266q0 4 9 5q6 0 11 -3.5t5 -5.5q-20 -156 -20 -284q0 -16 -6.5 -23.5t-24.5 -7.5h-117q-70 -68 -100.5 -126t-30.5 -132q0 -102 52 -164.5 t145 -62.5q29 0 57.5 9t44.5 21h4q6 0 11.5 -6t-1.5 -10q-109 -92 -227 -92q-104 0 -171 61.5t-67 155.5q0 168 242 346h-731q-6 0 -6 12.5zM348 1398q-2 9 4 13q66 39 180 129q94 72 103 78q10 8 65.5 -8.5t97.5 -37t19 -24.5q-127 -31 -232.5 -68.5t-222.5 -88.5l-4 -2 q-8 0 -10 9z" />
<glyph unicode="&#x132;&#x301;" horiz-adv-x="1425" d="M76 563q0 12 4 12q70 0 101.5 10.5t44 40t12.5 91.5v397q0 61 -12.5 90t-44 40t-101.5 11q-4 0 -4 12.5t4 12.5l110 -2q90 -4 144 -4q61 0 155 4l103 2q4 0 4 -12.5t-4 -12.5q-70 0 -102.5 -12t-44 -42t-11.5 -91v-393q0 -64 11.5 -92.5t43 -39t103.5 -10.5q4 0 4 -12 t-4 -12q-68 0 -107 2l-151 2l-144 -2q-41 -2 -110 -2q-4 0 -4 12zM129 1398q-2 9 4 13q66 39 180 129q94 72 103 78q10 8 65.5 -8.5t97.5 -37t19 -24.5q-127 -31 -232.5 -68.5t-222.5 -88.5l-4 -2q-8 0 -10 9zM219 270q0 45 27.5 75t81.5 30q57 0 79.5 -36t38.5 -108 q16 -70 36 -112.5t72 -74.5t148 -32q330 0 330 398v704q0 61 -13 90t-50 40t-117 11q-6 0 -6 12.5t6 12.5l125 -2q94 -4 151 -4q55 0 142 4l92 2q6 0 6 -12.5t-6 -12.5q-57 0 -85 -12t-37 -42t-9 -91v-582q0 -176 -65.5 -301t-184.5 -189.5t-276 -64.5q-133 0 -245 43 t-176.5 112t-64.5 142zM895 1398q-2 9 4 13q66 39 180 129q94 72 103 78q10 8 65.5 -8.5t97 -37t19.5 -24.5q-127 -31 -232.5 -68.5t-222.5 -88.5l-4 -2q-8 0 -10 9z" />
<glyph unicode="&#x12e;&#x301;" horiz-adv-x="694" d="M84 12.5q0 12.5 6 12.5q70 0 101.5 10t44 39.5t12.5 91.5v948q0 61 -12.5 90t-44 40t-101.5 11q-6 0 -6 12.5t6 12.5l107 -2q90 -4 147 -4q63 0 154 4l102 2q6 0 6 -12.5t-6 -12.5q-68 0 -99.5 -12t-43 -42t-11.5 -91v-944q0 -63 10.5 -92t42 -39t101.5 -10q6 0 6 -12.5 t-6 -12.5q-63 0 -98 2l-142 2q-57 -102 -57 -223q0 -111 50 -185.5t124 -74.5q41 0 78 24h4q6 0 11 -6t-1 -10q-49 -49 -96 -70.5t-111 -21.5q-98 0 -154 57t-56 156q0 170 174 354l-136 -2q-37 -2 -100 -2q-6 0 -6 12.5zM133 1398q-2 9 4 13q66 39 180 129q94 72 103 78 q10 8 65.5 -8.5t97.5 -37t19 -24.5q-127 -31 -232.5 -68.5t-222.5 -88.5l-4 -2q-8 0 -10 9z" />
<glyph unicode="J&#x301;" horiz-adv-x="675" d="M63 -489q111 68 154 206t43 365v1032q0 61 -12 90t-44 40t-102 11q-4 0 -4 12.5t4 12.5l113 -2q90 -4 141 -4q55 0 138 4l96 2q4 0 4 -12.5t-4 -12.5q-57 0 -85 -12t-37 -42t-9 -91v-973q0 -198 -35 -317t-117 -196t-231 -136h-2q-6 0 -10.5 9t-0.5 14zM132 1398 q-3 9 3 13q68 43 193 137q29 25 90 70q10 8 65.5 -8.5t97.5 -37t19 -24.5q-242 -61 -455 -159h-2q-8 0 -11 9z" />
<glyph unicode="&#x1ea;&#x301;" d="M100 639q0 211 106.5 361.5t273.5 226.5t341 76q195 0 342.5 -91.5t226 -241t78.5 -317.5q0 -162 -74.5 -301t-203.5 -234t-289 -126q-65 -64 -93 -121t-28 -129q0 -102 52.5 -164.5t144.5 -62.5q29 0 57.5 9t44.5 21h4q6 0 11.5 -6t-0.5 -10q-109 -92 -228 -92 q-104 0 -170.5 61.5t-66.5 155.5q0 156 217 328q-49 -6 -96 -7q-190 0 -339 89.5t-230 242t-81 332.5zM319 713q0 -195 65 -352.5t178.5 -246.5t256.5 -89q123 0 220.5 66.5t153.5 195.5t56 307q0 188 -62.5 337.5t-178 233.5t-271.5 84q-199 0 -308.5 -142t-109.5 -394z M573.5 1398q-2.5 9 4.5 13q66 39 180 129q94 72 102 78q10 8 65.5 -8.5t97.5 -37t19 -24.5q-127 -31 -232 -68.5t-222 -88.5l-4 -2q-8 0 -10.5 9z" />
<glyph unicode="&#x105;&#x301;" horiz-adv-x="860" d="M92 131q0 55 30 90t76 56.5t136 54.5l198 74v122q0 127 -25.5 185.5t-80.5 58.5q-68 0 -97.5 -50t-35.5 -112q-12 -104 -105 -104q-45 0 -66.5 20.5t-21.5 51.5q0 57 69 111t166 88t171 34q88 0 140 -55.5t52 -165.5v-369q0 -63 20.5 -96t59.5 -33q31 0 74 19h4 q8 0 10 -9.5t-6 -13.5l-211 -100q-2 -2 -5 -2t-5 -2q-61 -61 -88 -116.5t-27 -125.5q0 -102 52.5 -164.5t144.5 -62.5q29 0 57.5 9t44.5 21h4q6 0 11.5 -6t-0.5 -10q-109 -92 -228 -92q-104 0 -170.5 61.5t-66.5 155.5q0 164 229 338q-23 12 -40 45t-25 78l-95 -66 q-49 -35 -89 -49t-89 -14q-84 0 -128 40t-44 105zM289 193q0 -49 31.5 -79t76.5 -30q37 0 78 25l57 38v21v203l-122 -52q-53 -20 -87 -47.5t-34 -78.5zM410 975l79 491q4 8 60.5 19.5t93.5 11.5q25 0 23 -8l-234 -518q0 -4 -8 -4q-6 0 -11 3t-3 5z" />
<glyph unicode="&#x119;&#x301;" horiz-adv-x="849" d="M68 371q0 121 59 221t162.5 158.5t230.5 58.5q123 0 190.5 -59.5t67.5 -176.5q0 -59 -24 -59l-500 -2q-2 -18 -2 -55q0 -180 83 -285.5t236 -105.5q57 0 96.5 13t104.5 48l4 2q4 0 9.5 -8t0.5 -12q-45 -41 -77 -62q-100 -92 -145.5 -176t-45.5 -174t39 -138t113 -48 q33 0 55.5 9t44.5 25h4q6 0 11.5 -6t-1.5 -10q-49 -49 -98 -70.5t-106 -21.5q-109 0 -169.5 52t-60.5 142q0 176 240 361q-51 -16 -119 -17q-125 0 -216 55.5t-139 145.5t-48 195zM258 549l328 6q-4 213 -140 213q-75 0 -123.5 -58.5t-64.5 -160.5zM397 975l80 491 q4 8 60.5 19.5t93.5 11.5q25 0 22 -8l-233 -518q0 -4 -8 -4q-6 0 -11.5 3t-3.5 5z" />
<glyph unicode="&#x133;&#x301;" horiz-adv-x="1085" d="M47 657.5q-4 10.5 2 14.5l295 137l6 2q8 0 17.5 -9t9.5 -16v-43q-4 -86 -4 -202v-375q0 -84 23.5 -112.5t92.5 -28.5q6 0 6.5 -12.5t-6.5 -12.5q-51 0 -81 2l-119 2l-119 -2q-29 -2 -80 -2q-6 0 -6 12.5t6 12.5q70 0 92.5 28.5t22.5 112.5v373q0 70 -14.5 101.5 t-49.5 31.5q-31 0 -80 -25h-2q-8 0 -12 10.5zM252 975l80 491q4 8 60.5 19.5t92.5 11.5q25 0 23 -8l-234 -518q0 -4 -8 -4q-6 0 -11 3t-3 5zM568.5 -568.5q-5.5 11.5 0.5 13.5q98 43 139.5 137t41.5 273v684q0 72 -13.5 102.5t-46.5 30.5t-82 -25h-2q-8 0 -13 10.5t1 14.5 l295 137l6 2q8 0 17.5 -9t9.5 -16v-43q-4 -86 -4 -202v-639q0 -139 -32 -228.5t-104.5 -149t-203.5 -102.5q-4 -2 -9.5 9.5zM793 975l79 491q4 8 60.5 19.5t93.5 11.5q25 0 23 -8l-234 -518q0 -4 -8 -4q-6 0 -11 3t-3 5z" />
<glyph unicode="&#x12f;&#x301;" horiz-adv-x="544" d="M47 657.5q-4 10.5 2 14.5l295 137l6 2q8 0 17.5 -9t9.5 -16v-43q-4 -86 -4 -202v-375q0 -84 23.5 -112.5t92.5 -28.5q6 0 6.5 -12.5t-6.5 -12.5q-49 0 -77 2l-111 2q-53 -104 -53 -215t50 -185.5t124 -74.5q41 0 78 25h4q6 0 11 -6.5t-1 -10.5q-49 -49 -96 -70.5 t-111 -21.5q-98 0 -154.5 57.5t-56.5 155.5q0 170 166 346l-102 -2q-25 -2 -70 -2q-6 0 -6 12.5t6 12.5q70 0 92.5 28.5t22.5 112.5v373q0 70 -14.5 101.5t-49.5 31.5q-31 0 -80 -25h-2q-8 0 -12 10.5zM252 975l80 491q4 8 60.5 19.5t92.5 11.5q25 0 23 -8l-234 -518 q0 -4 -8 -4q-6 0 -11 3t-3 5z" />
<glyph unicode="j&#x301;" horiz-adv-x="534" d="M17.5 -568.5q-5.5 11.5 0.5 13.5q98 43 139.5 137t41.5 273v684q0 72 -13.5 102.5t-46.5 30.5t-82 -25h-2q-8 0 -13 10.5t1 14.5l295 137l6 2q8 0 17.5 -9t9.5 -16v-43q-4 -86 -4 -202v-639q0 -139 -32 -228.5t-104.5 -149t-203.5 -102.5q-4 -2 -9.5 9.5zM242 975l80 491 q4 8 60 19.5t93 11.5q25 0 23 -8l-234 -518q0 -4 -8 -4q-6 0 -11 3t-3 5z" />
<glyph unicode="&#x1eb;&#x301;" horiz-adv-x="995" d="M68 406q0 133 66.5 226t170 139t211.5 46q125 0 218 -59.5t142.5 -156.5t49.5 -208q0 -162 -99.5 -272.5t-253.5 -138.5q-82 -133 -81 -281q0 -190 161 -190q63 0 117 34h4q6 0 11.5 -6t-1.5 -10q-109 -92 -239 -92q-109 0 -165 52t-56 144q0 170 192 342q-12 -2 -35 -2 q-123 0 -217 58.5t-145 158t-51 216.5zM262 477q0 -133 36 -238.5t100.5 -165t144.5 -59.5q90 0 138 80t48 234q0 137 -38 239.5t-102.5 155.5t-139.5 53q-92 0 -139.5 -75.5t-47.5 -223.5zM471 975l80 491q4 8 60.5 19.5t93.5 11.5q25 0 22 -8l-233 -518q-1 -4 -9 -4 q-6 0 -11 3t-3 5z" />
<glyph unicode="TT" horiz-adv-x="2367" d="M80 930q10 61 22.5 194t12.5 201q0 10 12 10t12 -10q0 -45 109 -45q174 -6 411 -6q115 0 242 4l129 2q86 0 115 2t36 12.5t11 38.5q0 8 11 8t11 -8q-2 -29 2.5 -38t24 -11t84.5 -4q166 -6 389 -6q121 0 256 4l139 2q76 0 112 10t46 41q2 8 13.5 8t11.5 -8 q-6 -59 -12.5 -190t-6.5 -211q0 -6 -10 -6t-12 6q-29 162 -100.5 234.5t-204.5 72.5q-57 0 -84 -9t-37 -35t-10 -83v-944q0 -63 12 -92t49 -39t119 -10q4 0 4 -12.5t-4 -12.5q-74 0 -115 2l-166 2l-162 -2q-43 -2 -118 -2q-4 0 -4 12.5t4 12.5q80 0 117.5 10t52 39.5 t14.5 91.5v948q0 55 -10.5 80t-36 34t-78.5 9q-111 0 -168 -24.5t-86 -89t-41 -193.5q0 -6 -12 -6t-12 6q-6 129 -33 193.5t-87.5 89t-179.5 24.5q-68 0 -91 -25.5t-23 -101.5v-944q0 -61 11 -91t44 -40t103 -10q4 0 4 -12.5t-4 -12.5q-66 0 -105 2l-154 2l-161 -2 q-41 -2 -117 -2q-6 0 -6 12.5t6 12.5q80 0 117 11t51 39.5t14 90.5v948q0 76 -25.5 99.5t-105.5 23.5q-121 0 -199.5 -73.5t-130.5 -235.5q0 -4 -11 -4t-11 6z" />
<glyph unicode="Th" horiz-adv-x="2131" d="M80 930q8 80 18.5 206t10.5 189q0 10 11 10t11 -10q0 -45 115 -45q176 -6 411 -6q307 0 398 6q125 4 212 60.5t126 144.5q0 6 12 6q8 0 14 -3t6 -7v-836q143 168 314 168q111 0 175 -67.5t64 -184.5v-395q0 -84 22.5 -112.5t92.5 -28.5q8 0 8 -12.5t-8 -12.5q-51 0 -80 2 l-119 2l-118 -2q-31 -2 -82 -2q-4 0 -4 12.5t4 12.5q70 0 93 28.5t23 112.5v305q0 115 -43 170t-131 55q-53 0 -109.5 -24.5t-101.5 -69.5v-436q0 -84 24 -112.5t93 -28.5q8 0 8 -12.5t-8 -12.5q-51 0 -80 2l-119 2l-118 -2q-31 -2 -82 -2q-4 0 -4 12.5t4 12.5 q70 0 93.5 28.5t23.5 112.5v1038q0 18 -8.5 25.5t-28.5 7.5h-332q-57 0 -85 -10t-37 -36t-9 -81v-944q0 -63 12 -92t49 -39t117 -10q6 0 6 -12.5t-6 -12.5q-72 0 -113 2l-168 2l-159 -2q-43 -2 -119 -2q-4 0 -4 12.5t4 12.5q80 0 118 10t51 39.5t13 91.5v948q0 53 -10 79 t-37 35t-82 9q-125 0 -206 -77t-124 -232q0 -4 -11 -4t-11 6z" />
<glyph unicode="fb" horiz-adv-x="1693" d="M45 750q0 16 6 16q76 0 103.5 19.5t29.5 70.5q12 311 107 459q57 88 145 130t211 42q178 0 281 -82q33 45 33 90q0 6 12 6t12 -6l-2 -827q72 70 143.5 109.5t163.5 39.5q90 0 167 -43t123 -129t46 -209q0 -147 -63.5 -251.5t-164 -158t-212.5 -53.5q-166 0 -291 95 l-174 -80h-4q-8 0 -10 7t4 11q55 33 79.5 80t24.5 125l2 1077q-43 78 -102.5 121t-122.5 43q-129 0 -184 -160q-53 -143 -54 -393v-127q106 2 238 19q6 0 10 -14.5t4 -35.5q0 -18 -6 -36.5t-14 -16.5q-125 29 -232 31v-553q0 -63 13.5 -92t52.5 -39t123 -10q8 0 8 -12.5 t-8 -12.5l-137 2q-45 2 -138 2l-121 -2q-31 -2 -88 -2q-8 0 -8 12.5t8 12.5q55 0 82 11t37 39.5t10 90.5v461q0 68 -26.5 86t-110.5 18q-6 0 -6 19zM983 211q49 -102 113.5 -150.5t138.5 -48.5q100 0 153.5 90.5t53.5 257.5q0 180 -64.5 271.5t-173.5 91.5q-106 0 -221 -92 v-420z" />
<glyph unicode="ff" horiz-adv-x="1234" d="M45 750q0 16 6 16q76 0 103.5 19.5t29.5 70.5q14 287 142.5 423t353.5 136q150 0 260 -53q111 125 324 125q112 0 175.5 -32t63.5 -85q0 -41 -27.5 -64.5t-64.5 -23.5q-41 0 -62.5 18.5t-39.5 57.5q-25 43 -50.5 64.5t-72.5 21.5q-102 0 -161.5 -133t-59.5 -412v-127 q106 2 237 19q6 0 10.5 -14.5t4.5 -35.5q0 -18 -6.5 -36.5t-14.5 -16.5q-125 29 -231 31v-553q0 -63 13 -92t52 -39t123 -10q8 0 8 -12.5t-8 -12.5l-137 2q-45 2 -137 2l-121 -2q-31 -2 -88 -2q-8 0 -8 12.5t8 12.5q55 0 81.5 11t37 39.5t10.5 90.5v461v6l-2 -6 q0 43 -9.5 61.5t-37 25.5t-91.5 9q-68 4 -305 4v-561q0 -63 13.5 -92t52.5 -39t123 -10q8 0 8 -12.5t-8 -12.5l-137 2q-45 2 -138 2l-121 -2q-31 -2 -88 -2q-8 0 -8 12.5t8 12.5q55 0 82 11t37 39.5t10 90.5v461q0 68 -26.5 86t-110.5 18q-6 0 -6 19zM354 770q221 0 305 2 q74 2 101.5 14.5t32.5 49.5l2 8v12q10 244 69 385q-49 63 -114.5 99t-135.5 36q-119 0 -189.5 -118.5t-70.5 -358.5v-129z" />
<glyph unicode="ffb" horiz-adv-x="2304" d="M45 750q0 16 6 16q76 0 103.5 19.5t29.5 70.5q14 287 142.5 423t353.5 136q143 0 258 -51q111 123 319 123q178 0 281 -82q33 45 33 90q0 6 12 6t12 -6l-2 -827q72 70 143.5 109.5t164.5 39.5q90 0 166.5 -43t122.5 -129t46 -209q0 -147 -63.5 -251.5t-163.5 -158 t-213 -53.5q-166 0 -291 95l-174 -80h-4q-8 0 -10 7t4 11q55 33 79.5 80t24.5 125l2 1077q-43 78 -102 121t-123 43q-129 0 -184 -160q-53 -143 -53 -393v-127q106 2 237 19q6 0 10.5 -14.5t4.5 -35.5q0 -18 -6.5 -36.5t-14.5 -16.5q-125 29 -231 31v-553q0 -63 13 -92 t52 -39t123 -10q8 0 8 -12.5t-8 -12.5l-137 2q-45 2 -137 2l-121 -2q-31 -2 -88 -2q-8 0 -8 12.5t8 12.5q55 0 81.5 11t37 39.5t10.5 90.5v461v6l-2 -6q0 43 -9.5 61.5t-37 25.5t-91.5 9q-68 4 -305 4v-561q0 -63 13.5 -92t52.5 -39t123 -10q8 0 8 -12.5t-8 -12.5l-137 2 q-45 2 -138 2l-121 -2q-31 -2 -88 -2q-8 0 -8 12.5t8 12.5q55 0 82 11t37 39.5t10 90.5v461q0 68 -26.5 86t-110.5 18q-6 0 -6 19zM354 770q221 0 305 2q74 2 101.5 14.5t32.5 49.5l2 8v12q8 242 69 387q-49 61 -115.5 97t-134.5 36q-119 0 -189.5 -118.5t-70.5 -358.5v-129 zM1593 211q49 -102 114 -150.5t138 -48.5q101 0 154 90.5t53 257.5q0 180 -64.5 271.5t-172.5 91.5q-106 0 -222 -92v-420z" />
<glyph unicode="fff" horiz-adv-x="1845" d="M45 750q0 16 6 16q76 0 103.5 19.5t29.5 70.5q14 287 142.5 423t353.5 136q88 0 164 -19.5t123 -47.5q119 117 321 116q88 0 168 -34q96 57 242 57q112 0 175.5 -32t63.5 -85q0 -41 -27.5 -64.5t-64.5 -23.5q-41 0 -62.5 18.5t-39.5 57.5q-25 43 -50.5 64.5t-72.5 21.5 q-59 0 -104 -45q41 -27 71 -58l-80 -149q-27 57 -57 98q-51 -137 -51 -391v-82q6 16 6 39l43 -82q123 8 188 17q6 0 10.5 -14.5t4.5 -35.5q0 -18 -6.5 -36.5t-14.5 -16.5q-90 23 -190 29l-33 -90q0 39 -8 57v-518q0 -63 13 -92t52 -39t123 -10q8 0 8 -12.5t-8 -12.5l-137 2 q-45 2 -137 2q-61 0 -156 -4h-2h-31h-20h-2q-152 4 -221 4l-123 -2q-33 -2 -90 -2q-6 0 -6 12.5t6 12.5q57 0 82.5 10t36 39.5t10.5 91.5v461q0 23 -2 32q-4 37 -30 48.5t-106 15.5q-68 4 -305 4v-561q0 -63 13.5 -92t52.5 -39t123 -10q8 0 8 -12.5t-8 -12.5l-137 2 q-45 2 -138 2l-121 -2q-31 -2 -88 -2q-8 0 -8 12.5t8 12.5q55 0 82 11t37 39.5t10 90.5v461q0 68 -26.5 86t-110.5 18q-6 0 -6 19zM354 770q221 0 305 2q63 2 92 11.5t37 33.5q6 16 7 33v6q8 225 82 369q-49 72 -119 111.5t-144 39.5q-119 0 -189.5 -118.5t-70.5 -358.5 v-129zM967 166q0 -59 11 -87t43 -40t103 -14q66 4 87.5 31.5t21.5 109.5v461q0 49 -13.5 70.5t-45.5 27.5q-57 2 -207 2v-561zM967 770h194q37 8 51.5 27.5t16.5 58.5q12 358 147 510q-74 57 -151 57q-119 0 -188.5 -130t-69.5 -394v-129z" />
<glyph unicode="ffh" horiz-adv-x="2299" d="M45 750q0 16 6 16q76 0 103.5 19.5t29.5 70.5q14 287 142.5 423t353.5 136q143 0 258 -51q111 123 319 123q176 0 281 -80q31 41 31 88q0 6 12 6t12 -6v-850q150 168 314 168q111 0 174 -67.5t63 -184.5v-395q0 -84 23.5 -112.5t93.5 -28.5q6 0 6 -12.5t-6 -12.5 q-51 0 -82 2l-117 2l-118 -2q-29 -2 -80 -2q-6 0 -6 12.5t6 12.5q68 0 91 28.5t23 112.5v305q0 115 -43 170t-131 55q-53 0 -109.5 -24.5t-101.5 -69.5v-436q0 -84 23.5 -112.5t93.5 -28.5q6 0 6 -12.5t-6 -12.5q-51 0 -82 2l-117 2l-118 -2q-29 -2 -80 -2q-6 0 -6 12.5 t6 12.5q68 0 91 28.5t23 112.5v1122q-43 78 -102 121t-123 43q-238 0 -237 -553v-127q106 2 237 19q6 0 10.5 -14.5t4.5 -35.5q0 -18 -6.5 -36.5t-14.5 -16.5q-125 29 -231 31v-553q0 -63 13 -92t52 -39t123 -10q8 0 8 -12.5t-8 -12.5l-137 2q-45 2 -137 2l-121 -2 q-31 -2 -88 -2q-8 0 -8 12.5t8 12.5q55 0 81.5 11t37 39.5t10.5 90.5v461v6l-2 -6q0 43 -9.5 61.5t-37 25.5t-91.5 9q-68 4 -305 4v-561q0 -63 13.5 -92t52.5 -39t123 -10q8 0 8 -12.5t-8 -12.5l-137 2q-45 2 -138 2l-121 -2q-31 -2 -88 -2q-8 0 -8 12.5t8 12.5q55 0 82 11 t37 39.5t10 90.5v461q0 68 -26.5 86t-110.5 18q-6 0 -6 19zM354 770q221 0 305 2q74 2 101.5 14.5t32.5 49.5l2 8v12q8 242 69 387q-49 61 -115.5 97t-134.5 36q-119 0 -189.5 -118.5t-70.5 -358.5v-129z" />
<glyph unicode="ffi" horiz-adv-x="1775" d="M45 750q0 16 6 16q76 0 103.5 19.5t29.5 70.5q14 287 142.5 423t353.5 136q84 0 154.5 -16.5t117.5 -42.5q125 131 351 131q129 0 206.5 -44t77.5 -112q0 -37 -22.5 -58.5t-65.5 -21.5q-39 0 -62.5 22.5t-50.5 65.5q-29 53 -60.5 81t-90.5 28q-119 0 -194.5 -136 t-75.5 -413v-127q106 2 237 19q6 0 10.5 -15.5t4.5 -34.5q0 -20 -7.5 -39.5t-13.5 -15.5q-115 29 -231 35v-555q0 -63 13 -92t52 -39t123 -10q8 0 8 -12.5t-8 -12.5l-137 2q-45 2 -137 2l-121 -2q-31 -2 -88 -2q-8 0 -8 12.5t8 12.5q55 0 81.5 11t37 39.5t10.5 90.5v461v6 l-2 -6q0 43 -9.5 61.5t-37 25.5t-91.5 9q-68 4 -305 4v-561q0 -63 13.5 -92t52.5 -39t123 -10q8 0 8 -12.5t-8 -12.5l-137 2q-45 2 -138 2l-121 -2q-31 -2 -88 -2q-8 0 -8 12.5t8 12.5q55 0 82 11t37 39.5t10 90.5v461q0 68 -26.5 86t-110.5 18q-6 0 -6 19zM354 770 q221 0 305 2q74 2 101.5 14.5t32.5 49.5l2 8v12q10 238 75 377q-49 68 -116.5 105.5t-139.5 37.5q-119 0 -189.5 -118.5t-70.5 -358.5v-129zM1278 657.5q-4 10.5 2 14.5l295 137q2 2 6 2q8 0 17.5 -9t9.5 -16q0 -25 -2 -43q-4 -86 -4 -202v-375q0 -84 23.5 -112.5 t92.5 -28.5q8 0 8 -12.5t-8 -12.5q-51 0 -82 2l-116 2l-117 -2q-31 -2 -82 -2q-6 0 -6 12.5t6 12.5q68 0 92.5 29.5t24.5 111.5v373q0 72 -13.5 103.5t-48.5 31.5q-27 0 -84 -27h-2q-8 0 -12 10.5z" />
<glyph unicode="ffj" horiz-adv-x="1787" d="M45 750q0 16 6 16q76 0 103.5 19.5t29.5 70.5q14 287 142.5 423t353.5 136q84 0 154.5 -16.5t117.5 -42.5q125 131 344 131q147 0 231.5 -44t84.5 -112q0 -37 -22.5 -58.5t-65.5 -21.5t-68.5 22.5t-56.5 69.5q-33 51 -64.5 78t-89.5 27q-127 0 -203.5 -135t-76.5 -414 v-127q106 2 237 19q6 0 10.5 -14.5t4.5 -35.5q0 -18 -6.5 -36.5t-14.5 -16.5q-125 29 -231 31v-553q0 -63 13 -92t52 -39t123 -10q8 0 8 -12.5t-8 -12.5l-137 2q-45 2 -137 2l-121 -2q-31 -2 -88 -2q-8 0 -8 12.5t8 12.5q55 0 81.5 11t37 39.5t10.5 90.5v461v6l-2 -6 q0 43 -9.5 61.5t-37 25.5t-91.5 9q-68 4 -305 4v-561q0 -63 13.5 -92t52.5 -39t123 -10q8 0 8 -12.5t-8 -12.5l-137 2q-45 2 -138 2l-121 -2q-31 -2 -88 -2q-8 0 -8 12.5t8 12.5q55 0 82 11t37 39.5t10 90.5v461q0 68 -26.5 86t-110.5 18q-6 0 -6 19zM354 770q221 0 305 2 q74 2 101.5 14.5t32.5 49.5l2 8v12q8 227 75 377q-47 66 -115.5 104.5t-140.5 38.5q-119 0 -189.5 -118.5t-70.5 -358.5v-129zM1275 -564q-5 11 1 13q98 43 140 136t42 270v684q0 72 -13 103.5t-48 31.5q-25 0 -82 -27h-2q-8 0 -13.5 10.5t0.5 14.5l295 137q3 2 7 2 q10 0 18 -9t8 -16v-43q-4 -86 -4 -202v-639q0 -139 -31.5 -227.5t-104.5 -146.5t-204 -101q-4 -2 -9 9z" />
<glyph unicode="ffk" horiz-adv-x="2271" d="M45 750q0 16 6 16q76 0 103.5 19.5t29.5 70.5q14 287 142.5 423t353.5 136q143 0 258 -51q111 123 319 123q176 0 281 -80q31 41 31 88q0 6 12 6t12 -6v-1081l217 196q59 49 60 97q0 27 -23.5 43t-66.5 16q-6 0 -6 12.5t6 12.5q57 0 90 -3l155 -2l146 2q27 2 78 3 q4 0 4 -12.5t-4 -12.5q-84 0 -191.5 -42t-197.5 -122l-88 -78l274 -358q106 -141 227 -141q4 0 4 -12.5t-4 -12.5q-51 0 -82 2l-116 2l-156 -2q-33 -2 -92 -2q-6 0 -6 12.5t6 12.5q84 0 84 41q0 18 -19 43l-237 315l-62 -53v-205q0 -84 23.5 -112.5t93.5 -28.5q6 0 6 -12.5 t-6 -12.5q-51 0 -82 2l-117 2l-118 -2q-29 -2 -80 -2q-6 0 -6 12.5t6 12.5q68 0 91 28.5t23 112.5v1122q-43 78 -101 121t-124 43q-238 0 -237 -553v-127q106 2 237 19q6 0 10.5 -14.5t4.5 -35.5q0 -18 -6.5 -36.5t-14.5 -16.5q-125 29 -231 31v-553q0 -63 13 -92t52 -39 t123 -10q8 0 8 -12.5t-8 -12.5l-137 2q-45 2 -137 2l-121 -2q-31 -2 -88 -2q-8 0 -8 12.5t8 12.5q55 0 81.5 11t37 39.5t10.5 90.5v461v6l-2 -6q0 43 -9.5 61.5t-37 25.5t-91.5 9q-68 4 -305 4v-561q0 -63 13.5 -92t52.5 -39t123 -10q8 0 8 -12.5t-8 -12.5l-137 2 q-45 2 -138 2l-121 -2q-31 -2 -88 -2q-8 0 -8 12.5t8 12.5q55 0 82 11t37 39.5t10 90.5v461q0 68 -26.5 86t-110.5 18q-6 0 -6 19zM354 770q221 0 305 2q74 2 101.5 14.5t32.5 49.5l2 8v12q8 242 69 387q-49 61 -115.5 97t-134.5 36q-119 0 -189.5 -118.5t-70.5 -358.5v-129 z" />
<glyph unicode="ffl" horiz-adv-x="1771" d="M45 750q0 16 6 16q76 0 103.5 19.5t29.5 70.5q14 287 142.5 423t353.5 136q76 0 143.5 -15.5t114.5 -37.5q113 125 322 125q176 0 286 -82q33 43 33 90q0 6 12.5 6t12.5 -6v-1329q0 -84 23.5 -112.5t92.5 -28.5q6 0 6 -12.5t-6 -12.5q-51 0 -82 2l-120 2l-117 -2 q-31 -2 -82 -2q-6 0 -6 12.5t6 12.5q68 0 91.5 28.5t23.5 112.5v1122q-47 80 -105.5 122t-124.5 42q-113 0 -176 -133t-63 -420v-127q106 2 237 19q6 0 10.5 -15.5t4.5 -34.5q0 -20 -7.5 -39.5t-13.5 -15.5q-115 29 -231 35v-555q0 -63 13 -92t52 -39t123 -10q8 0 8 -12.5 t-8 -12.5l-137 2q-45 2 -137 2l-121 -2q-31 -2 -88 -2q-8 0 -8 12.5t8 12.5q55 0 81.5 11t37 39.5t10.5 90.5v461v6l-2 -6q0 43 -9.5 61.5t-37 25.5t-91.5 9q-68 4 -305 4v-561q0 -63 13.5 -92t52.5 -39t123 -10q8 0 8 -12.5t-8 -12.5l-137 2q-45 2 -138 2l-121 -2 q-31 -2 -88 -2q-8 0 -8 12.5t8 12.5q55 0 82 11t37 39.5t10 90.5v461q0 68 -26.5 86t-110.5 18q-6 0 -6 19zM354 770q221 0 305 2q74 2 101.5 14.5t32.5 49.5l2 8v12q10 244 69 385q-49 63 -114.5 99t-135.5 36q-119 0 -189.5 -118.5t-70.5 -358.5v-129z" />
<glyph unicode="ff&#xfe;" horiz-adv-x="2287" d="M45 750q0 16 6 16q76 0 103.5 19.5t29.5 70.5q14 287 142.5 423t353.5 136q143 0 258 -51q111 123 319 123q172 0 279 -78q29 41 29 86q0 6 12 6t12 -6v-817q152 139 309 139q86 0 160 -45t118 -131t44 -201q0 -162 -67.5 -266t-171 -152.5t-209.5 -48.5q-103 0 -183 29 v-399q0 -61 13.5 -90t52.5 -40.5t123 -11.5q4 0 4 -12t-4 -12q-76 0 -119 2l-156 2l-121 -2q-31 -2 -82 -2q-4 0 -4 12t4 12q51 0 77 11.5t35 40t9 90.5v1695q-43 74 -100 114t-119 40q-238 0 -237 -553v-127q106 2 237 19q6 0 10.5 -14.5t4.5 -35.5q0 -18 -6.5 -36.5 t-14.5 -16.5q-125 29 -231 31v-553q0 -63 13 -92t52 -39t123 -10q8 0 8 -12.5t-8 -12.5l-137 2q-45 2 -137 2l-121 -2q-31 -2 -88 -2q-8 0 -8 12.5t8 12.5q55 0 81.5 11t37 39.5t10.5 90.5v461v6l-2 -6q0 43 -9.5 61.5t-37 25.5t-91.5 9q-68 4 -305 4v-561q0 -63 13.5 -92 t52.5 -39t123 -10q8 0 8 -12.5t-8 -12.5l-137 2q-45 2 -138 2l-121 -2q-31 -2 -88 -2q-8 0 -8 12.5t8 12.5q55 0 82 11t37 39.5t10 90.5v461q0 68 -26.5 86t-110.5 18q-6 0 -6 19zM354 770q221 0 305 2q74 2 101.5 14.5t32.5 49.5l2 8v12q8 242 69 387q-49 61 -115.5 97 t-134.5 36q-119 0 -189.5 -118.5t-70.5 -358.5v-129zM1589 125q45 -49 99.5 -75.5t128.5 -26.5q104 0 163.5 89t59.5 265q0 160 -74 249t-186 89q-56 0 -101 -20.5t-90 -61.5v-508z" />
<glyph unicode="fft" horiz-adv-x="1894" d="M45 750q0 16 6 16q76 0 103.5 19.5t29.5 70.5q14 287 142.5 423t353.5 136q150 0 260 -53q111 125 324 125q113 0 176 -32t63 -85q0 -41 -28.5 -64.5t-67.5 -23.5t-61.5 21.5t-45.5 64.5q-20 41 -45.5 60.5t-68.5 19.5q-102 0 -161.5 -135t-59.5 -414v-127q199 0 290 6 q109 6 161 40t95 114q2 8 19 8q14 0 14 -8v-162q139 6 271 21q6 0 11 -14.5t5 -35.5q0 -18 -7 -36.5t-16 -16.5q-115 27 -264 33v-496q0 -156 150 -155q49 0 90 15t69 42q3 2 7 2q8 0 12 -7t-2 -11q-76 -72 -142.5 -104t-144.5 -32q-88 0 -147.5 42t-59.5 141v469 q0 49 -23.5 69.5t-104.5 26.5t-283 6v-563q0 -63 13 -92t52 -39t123 -10q8 0 8 -12.5t-8 -12.5l-137 2q-45 2 -137 2l-121 -2q-31 -2 -88 -2q-8 0 -8 12.5t8 12.5q55 0 81.5 11t37 39.5t10.5 90.5v461v6l-2 -6q0 43 -9.5 61.5t-37 25.5t-91.5 9q-68 4 -305 4v-561 q0 -63 13.5 -92t52.5 -39t123 -10q8 0 8 -12.5t-8 -12.5l-137 2q-45 2 -138 2l-121 -2q-31 -2 -88 -2q-8 0 -8 12.5t8 12.5q55 0 82 11t37 39.5t10 90.5v461q0 68 -26.5 86t-110.5 18q-6 0 -6 19zM354 770q221 0 305 2q74 2 101.5 14.5t32.5 49.5l2 8v12q10 244 69 385 q-49 63 -114.5 99t-135.5 36q-119 0 -189.5 -118.5t-70.5 -358.5v-129z" />
<glyph unicode="fh" horiz-adv-x="1689" d="M45 750q0 16 6 16q76 0 103.5 19.5t29.5 70.5q10 332 122 481.5t341 149.5q176 0 281 -80q31 41 30 88q0 6 12.5 6t12.5 -6v-850q150 168 313 168q111 0 174.5 -67.5t63.5 -184.5v-395q0 -84 23.5 -112.5t93.5 -28.5q6 0 6 -12.5t-6 -12.5q-51 0 -82 2l-117 2l-119 -2 q-29 -2 -80 -2q-6 0 -6 12.5t6 12.5q68 0 91.5 28.5t23.5 112.5v305q0 115 -43 170t-131 55q-53 0 -109.5 -24.5t-101.5 -69.5v-436q0 -84 23.5 -112.5t93.5 -28.5q6 0 6 -12.5t-6 -12.5q-51 0 -82 2l-117 2l-119 -2q-29 -2 -80 -2q-6 0 -6 12.5t6 12.5q68 0 91.5 28.5 t23.5 112.5v1122q-43 78 -102.5 121t-122.5 43q-238 0 -238 -553v-127q106 2 238 19q6 0 10 -14.5t4 -35.5q0 -18 -6 -36.5t-14 -16.5q-125 29 -232 31v-553q0 -63 13.5 -92t52.5 -39t123 -10q8 0 8 -12.5t-8 -12.5l-137 2q-45 2 -138 2l-121 -2q-31 -2 -88 -2q-8 0 -8 12.5 t8 12.5q55 0 82 11t37 39.5t10 90.5v461q0 68 -26.5 86t-110.5 18q-6 0 -6 19z" />
<glyph unicode="fj" horiz-adv-x="1177" d="M45 750q0 16 6 16q76 0 103.5 19.5t29.5 70.5q12 328 141.5 479.5t360.5 151.5q147 0 231 -44t84 -112q0 -37 -22.5 -58.5t-65.5 -21.5t-68.5 22.5t-56.5 69.5q-33 51 -64.5 78t-88.5 27q-127 0 -204 -135t-77 -414v-127q106 2 238 19q6 0 10 -14.5t4 -35.5 q0 -18 -6 -36.5t-14 -16.5q-125 29 -232 31v-553q0 -63 13.5 -92t52.5 -39t123 -10q8 0 8 -12.5t-8 -12.5l-137 2q-45 2 -138 2l-121 -2q-31 -2 -88 -2q-8 0 -8 12.5t8 12.5q55 0 82 11t37 39.5t10 90.5v461q0 68 -26.5 86t-110.5 18q-6 0 -6 19zM664.5 -564q-5.5 11 1.5 13 q98 43 140 136t42 270v684q0 72 -13.5 103.5t-48.5 31.5q-25 0 -81 -27h-3q-8 0 -13 10.5t1 14.5l295 137q2 2 6 2q10 0 18.5 -9t8.5 -16v-43q-4 -86 -4 -202v-639q0 -139 -32 -227.5t-104.5 -146.5t-203.5 -101q-4 -2 -9.5 9z" />
<glyph unicode="fk" horiz-adv-x="1660" d="M45 750q0 16 6 16q76 0 103.5 19.5t29.5 70.5q10 332 122 481.5t341 149.5q176 0 281 -80q31 41 30 88q0 6 12.5 6t12.5 -6v-1081l217 196q59 49 60 97q0 27 -24 43t-67 16q-6 0 -6 12.5t6 12.5q57 0 91 -3l155 -2l146 2q27 2 77 3q4 0 4 -12.5t-4 -12.5 q-84 0 -191.5 -42t-197.5 -122l-88 -78l275 -358q106 -141 227 -141q4 0 4 -12.5t-4 -12.5q-51 0 -82 2l-117 2l-155 -2q-33 -2 -92 -2q-6 0 -6.5 12.5t6.5 12.5q84 0 83 41q0 18 -18 43l-238 315l-61 -53v-205q0 -84 23.5 -112.5t93.5 -28.5q6 0 6 -12.5t-6 -12.5 q-51 0 -82 2l-117 2l-119 -2q-29 -2 -80 -2q-6 0 -6 12.5t6 12.5q68 0 91.5 28.5t23.5 112.5v1122q-43 78 -101.5 121t-123.5 43q-238 0 -238 -553v-127q106 2 238 19q6 0 10 -14.5t4 -35.5q0 -18 -6 -36.5t-14 -16.5q-125 29 -232 31v-553q0 -63 13.5 -92t52.5 -39t123 -10 q8 0 8 -12.5t-8 -12.5l-137 2q-45 2 -138 2l-121 -2q-31 -2 -88 -2q-8 0 -8 12.5t8 12.5q55 0 82 11t37 39.5t10 90.5v461q0 68 -26.5 86t-110.5 18q-6 0 -6 19z" />
<glyph unicode="f&#xfe;" horiz-adv-x="1677" d="M45 750q0 16 6 16q76 0 103.5 19.5t29.5 70.5q10 332 122 481.5t341 149.5q172 0 279 -78q29 41 28 86q0 6 12.5 6t12.5 -6v-817q152 139 309 139q86 0 160 -45t118 -131t44 -201q0 -162 -67.5 -266t-171 -152.5t-210.5 -48.5q-102 0 -182 29v-399q0 -61 13.5 -90 t52 -40.5t122.5 -11.5q4 0 4 -12t-4 -12q-76 0 -118 2l-156 2l-121 -2q-31 -2 -82 -2q-4 0 -4 12t4 12q51 0 77 11.5t35 40t9 90.5v1695q-43 74 -100.5 114t-118.5 40q-238 0 -238 -553v-127q106 2 238 19q6 0 10 -14.5t4 -35.5q0 -18 -6 -36.5t-14 -16.5q-125 29 -232 31 v-553q0 -63 13.5 -92t52.5 -39t123 -10q8 0 8 -12.5t-8 -12.5l-137 2q-45 2 -138 2l-121 -2q-31 -2 -88 -2q-8 0 -8 12.5t8 12.5q55 0 82 11t37 39.5t10 90.5v461q0 68 -26.5 86t-110.5 18q-6 0 -6 19zM979 125q45 -49 99.5 -75.5t127.5 -26.5q104 0 164 89t60 265 q0 160 -74 249t-187 89q-55 0 -100 -20.5t-90 -61.5v-508z" />
<glyph unicode="ft" horiz-adv-x="1284" d="M45 750q0 16 6 16q76 0 103.5 19.5t29.5 70.5q10 334 125 482.5t344 148.5q113 0 176.5 -32t63.5 -85q0 -41 -28.5 -64.5t-67.5 -23.5t-61.5 21.5t-45.5 64.5q-20 41 -46 60.5t-69 19.5q-102 0 -161.5 -135t-59.5 -414v-127q199 0 291 6q109 6 161 40t95 114q2 8 19 8 q14 0 14 -8v-162q139 6 270 21q6 0 11.5 -14.5t5.5 -35.5q0 -18 -7.5 -36.5t-15.5 -16.5q-115 27 -264 33v-496q0 -156 149 -155q49 0 90 15t70 42q2 2 6 2q8 0 12.5 -7t-1.5 -11q-76 -72 -142.5 -104t-144.5 -32q-88 0 -147.5 42t-59.5 141v469q0 49 -23.5 69.5 t-104.5 26.5t-284 6v-563q0 -63 13.5 -92t52.5 -39t123 -10q8 0 8 -12.5t-8 -12.5l-137 2q-45 2 -138 2l-121 -2q-31 -2 -88 -2q-8 0 -8 12.5t8 12.5q55 0 82 11t37 39.5t10 90.5v461q0 68 -26.5 86t-110.5 18q-6 0 -6 19z" />
<glyph unicode="fi" horiz-adv-x="1165" d="M45 750q0 16 6 16q76 0 103.5 19.5t29.5 70.5q12 330 140.5 480.5t367.5 150.5q129 0 207 -44t78 -112q0 -37 -22.5 -58.5t-65.5 -21.5q-39 0 -62.5 22.5t-50.5 65.5q-29 53 -60.5 81t-90.5 28q-119 0 -195 -136t-76 -413v-127q106 2 238 19q6 0 10 -15.5t4 -34.5 q0 -20 -7 -39.5t-13 -15.5q-115 29 -232 35v-555q0 -63 13.5 -92t52.5 -39t123 -10q8 0 8 -12.5t-8 -12.5l-137 2q-45 2 -138 2l-121 -2q-31 -2 -88 -2q-8 0 -8 12.5t8 12.5q55 0 82 11t37 39.5t10 90.5v461q0 68 -26.5 86t-110.5 18q-6 0 -6 19zM668 657.5q-4 10.5 2 14.5 l295 137q2 2 6 2q8 0 17 -9t9 -16q0 -25 -2 -43q-4 -86 -4 -202v-375q0 -84 23.5 -112.5t93.5 -28.5q8 0 8 -12.5t-8 -12.5q-51 0 -82 2l-117 2l-116 -2q-31 -2 -82 -2q-6 0 -6 12.5t6 12.5q68 0 92 29.5t24 111.5v373q0 72 -13 103.5t-48 31.5q-27 0 -84 -27h-2 q-8 0 -12 10.5z" />
<glyph unicode="fl" horiz-adv-x="1161" d="M45 750q0 16 6 16q76 0 103.5 19.5t29.5 70.5q10 334 124 482.5t341 148.5q176 0 287 -82q33 43 33 90q0 6 12 6t12 -6v-1329q0 -84 23.5 -112.5t93.5 -28.5q6 0 6 -12.5t-6 -12.5q-51 0 -82 2l-121 2l-116 -2q-31 -2 -82 -2q-6 0 -6.5 12.5t6.5 12.5q68 0 91 28.5 t23 112.5v1122q-47 80 -105.5 122t-123.5 42q-113 0 -176.5 -133t-63.5 -420v-127q106 2 238 19q6 0 10 -15.5t4 -34.5q0 -20 -7 -39.5t-13 -15.5q-115 29 -232 35v-555q0 -63 13.5 -92t52.5 -39t123 -10q8 0 8 -12.5t-8 -12.5l-137 2q-45 2 -138 2l-121 -2q-31 -2 -88 -2 q-8 0 -8 12.5t8 12.5q55 0 82 11t37 39.5t10 90.5v461q0 68 -26.5 86t-110.5 18q-6 0 -6 19z" />
<glyph unicode="gg" horiz-adv-x="1816" d="M55 -342q0 137 193 279q-66 14 -100.5 46.5t-34.5 96.5q0 125 145 225q-76 35 -118 100.5t-42 139.5q0 80 49.5 138t128 90t164.5 32q135 0 224 -68q59 37 117.5 54.5t125.5 17.5q8 0 12.5 -15.5t4.5 -37.5q0 -27 -8.5 -58.5t-14.5 -25.5q-98 33 -172 33h-27 q59 -70 60 -156q0 -80 -48 -142.5t-128 -98.5t-168 -36q-70 0 -125 19q-41 -41 -41 -96q0 -72 59.5 -92.5t202.5 -20.5q102 0 174 -12.5t123 -61.5t51 -149q0 -115 -67.5 -215.5t-181 -159.5t-242.5 -59q-141 0 -228.5 63t-87.5 170zM217 -229q0 -135 75 -209t187 -74 q106 0 170 67.5t64 190.5q0 82 -37 120t-95.5 48t-156.5 10q-90 0 -131 4q-76 -55 -76 -157zM272 598q0 -121 56.5 -206t140.5 -85q49 0 83 47t34 148q0 115 -60.5 190.5t-146.5 75.5q-106 0 -107 -170zM954 -342q0 137 191 279q-66 14 -100.5 46.5t-34.5 96.5 q0 125 145 225q-76 35 -119 100.5t-43 139.5q0 80 50.5 138t129 90t164.5 32q135 0 222 -66q111 70 221 70q16 0 16 -53q0 -27 -8 -58.5t-14 -25.5q-86 33 -150 33h-25q59 -70 60 -156q0 -80 -48 -142.5t-128 -98.5t-168 -36q-70 0 -125 19q-41 -41 -41 -96 q0 -72 59.5 -92.5t202.5 -20.5q109 0 185.5 -12.5t131 -61.5t54.5 -149q0 -115 -71 -215.5t-189.5 -159.5t-253.5 -59q-141 0 -227.5 63t-86.5 170zM1116 -229q0 -135 75 -209t185 -74q117 0 187.5 67.5t70.5 190.5q0 82 -40 120t-103.5 48t-169.5 10q-90 0 -131 4 q-74 -57 -74 -157zM1169 598q0 -121 56.5 -206t140.5 -85q49 0 83 47t34 148q0 115 -60.5 190.5t-146.5 75.5q-51 0 -79 -43t-28 -127z" />
<glyph unicode="&#x17f;b" horiz-adv-x="1671" d="M45 750q0 16 6 16q76 0 104.5 19.5t28.5 70.5q8 631 457 631q168 0 264 -80q31 41 31 88q0 6 12.5 6t12.5 -6v-825q70 68 142.5 107.5t162.5 39.5t166.5 -43t123 -129t46.5 -209q0 -147 -63.5 -251.5t-164 -158t-213.5 -53.5q-164 0 -291 95l-174 -80h-4q-8 0 -10 8t6 10 q53 35 79 81t26 124v1079q-84 162 -207 162q-109 0 -170.5 -133t-61.5 -420v-733q0 -63 13.5 -92t52.5 -39t123 -10q8 0 8 -12.5t-8 -12.5l-137 2q-45 2 -138 2l-121 -2q-31 -2 -88 -2q-8 0 -8 12.5t8 12.5q55 0 82 11t37 39.5t10 90.5v461q0 68 -26.5 86t-110.5 18 q-6 0 -6 19zM961 207q49 -100 114.5 -147.5t134.5 -47.5q101 0 154 90.5t53 257.5q0 180 -64.5 271.5t-172.5 91.5q-104 0 -219 -92v-424z" />
<glyph unicode="&#x17f;h" horiz-adv-x="1665" d="M45 750q0 16 6 16q76 0 104.5 19.5t28.5 70.5q8 631 455 631q170 0 266 -80q29 45 29 88q0 6 12 6t12 -6v-852q143 170 314 170q111 0 174 -67.5t63 -184.5v-395q0 -84 23.5 -112.5t93.5 -28.5q8 0 8 -12.5t-8 -12.5q-51 0 -82 2l-119 2l-116 -2q-31 -2 -82 -2 q-6 0 -6 12.5t6 12.5q70 0 93 28.5t23 112.5v305q0 115 -43 170t-131 55q-55 0 -111.5 -25.5t-99.5 -68.5v-436q0 -84 24 -112.5t93 -28.5q8 0 8 -12.5t-8 -12.5q-51 0 -82 2l-119 2l-116 -2q-31 -2 -82 -2q-6 0 -6 12.5t6 12.5q70 0 93.5 28.5t23.5 112.5v1124 q-84 162 -207 162q-109 0 -170.5 -133t-61.5 -420v-733q0 -63 13.5 -92t51.5 -39t124 -10q8 0 8 -12.5t-8 -12.5l-140 2q-45 2 -135 2l-121 -2q-33 -2 -90 -2q-6 0 -6 12.5t6 12.5q57 0 83 10t36 39.5t10 91.5l2 461q0 68 -26.5 86t-110.5 18q-6 0 -6 19z" />
<glyph unicode="&#x17f;i" horiz-adv-x="1142" d="M45 750q0 16 6 16q76 0 104.5 19.5t28.5 70.5q0 324 123 477.5t352 153.5q125 0 198 -40t73 -104q0 -37 -23.5 -58t-66.5 -21q-39 0 -61.5 21.5t-49.5 66.5q-29 49 -55.5 73.5t-75.5 24.5q-106 0 -175 -137t-69 -414v-733q0 -63 12.5 -92t50.5 -39t120 -10q6 0 6 -12.5 t-6 -12.5l-138 2q-43 2 -131 2l-123 -2q-33 -2 -88 -2q-8 0 -8 12.5t8 12.5q55 0 83 11t38 39.5t10 90.5v461q0 68 -26.5 86t-110.5 18q-6 0 -6 19zM622.5 657.5q-4.5 10.5 2.5 14.5l295 137q2 2 6 2q8 0 17 -9t9 -16v-43q-4 -86 -4 -202v-375q0 -84 23.5 -112.5t91.5 -28.5 q8 0 8 -12.5t-8 -12.5q-51 0 -80 2l-119 2l-116 -2q-31 -2 -84 -2q-5 0 -5 12.5t5 12.5q70 0 94 29.5t24 111.5v373q0 72 -13 103.5t-48 31.5q-27 0 -84 -27h-2q-8 0 -12.5 10.5z" />
<glyph unicode="&#x17f;j" horiz-adv-x="1105" d="M45 750q0 16 6 16q76 0 104.5 19.5t28.5 70.5q0 324 123 477.5t352 153.5q125 0 198 -40t73 -104q0 -37 -23.5 -58t-66.5 -21q-39 0 -61.5 21.5t-49.5 66.5q-29 49 -55.5 73.5t-75.5 24.5q-106 0 -175 -137t-69 -414v-733q0 -63 12.5 -92t50.5 -39t120 -10q6 0 6 -12.5 t-6 -12.5l-138 2q-43 2 -131 2l-123 -2q-33 -2 -88 -2q-8 0 -8 12.5t8 12.5q55 0 83 11t38 39.5t10 90.5v461q0 68 -26.5 86t-110.5 18q-6 0 -6 19zM593 -564q-5 11 1 13q98 43 140 136t42 270v684q0 72 -13 103.5t-48 31.5q-27 0 -84 -27h-2q-8 0 -12.5 10.5t1.5 14.5 l295 137q2 2 7 2q8 0 17 -9t9 -16q0 -25 -2 -43q-4 -86 -4 -202v-639q0 -139 -31.5 -227.5t-103.5 -146.5t-201 -101q-6 -2 -11 9z" />
<glyph unicode="&#x17f;k" horiz-adv-x="1636" d="M45 750q0 16 6 16q76 0 104.5 19.5t28.5 70.5q8 631 457 631q168 0 264 -80q29 45 29 88q0 6 12 6t12 -6v-1081l220 196q57 49 57 97q0 27 -23.5 43t-66.5 16q-6 0 -6 12.5t6 12.5q57 0 90 -3l158 -2l143 2q29 2 78 3q6 0 6 -12.5t-6 -12.5q-84 0 -191.5 -42t-197.5 -122 l-88 -78l274 -358q106 -141 227 -141q4 0 4 -12.5t-4 -12.5q-51 0 -82 2l-116 2l-156 -2q-33 -2 -92 -2q-4 0 -4 12.5t4 12.5q84 0 84 41q0 18 -19 43l-237 313l-62 -53v-203q0 -84 24 -112.5t93 -28.5q8 0 8 -12.5t-8 -12.5q-51 0 -82 2l-116 2l-117 -2q-31 -2 -82 -2 q-6 0 -6 12.5t6 12.5q68 0 92.5 29.5t24.5 111.5v1120q-41 80 -94.5 123t-114.5 43q-109 0 -170.5 -133t-61.5 -420v-733q0 -63 13.5 -92t52.5 -39t123 -10q8 0 8 -12.5t-8 -12.5l-137 2q-45 2 -138 2l-121 -2q-31 -2 -88 -2q-8 0 -8 12.5t8 12.5q55 0 82 11t37 39.5 t10 90.5v461q0 68 -26.5 86t-110.5 18q-6 0 -6 19z" />
<glyph unicode="&#x17f;l" horiz-adv-x="1132" d="M45 750q0 16 6 16q76 0 104.5 19.5t28.5 70.5q8 326 123 478.5t332 152.5q170 0 268 -82q31 43 31 90q0 6 12.5 6t12.5 -6v-1329q0 -84 23.5 -112.5t92.5 -28.5q6 0 6 -12.5t-6 -12.5q-51 0 -82 2l-118 2l-117 -2q-31 -2 -84 -2q-6 0 -6 12.5t6 12.5q70 0 93.5 28.5 t23.5 112.5v1118q-41 80 -95.5 124t-115.5 44q-104 0 -167 -133t-63 -420v-733q0 -63 13.5 -92t52.5 -39t123 -10q8 0 8 -12.5t-8 -12.5l-137 2q-45 2 -138 2l-121 -2q-31 -2 -88 -2q-8 0 -8 12.5t8 12.5q55 0 82 11t37 39.5t10 90.5v461q0 68 -26.5 86t-110.5 18 q-6 0 -6 19z" />
<glyph unicode="&#x17f;&#xfe;" horiz-adv-x="1652" d="M39 750q0 6 3 11t5 5q76 0 104.5 19.5t28.5 70.5q8 322 123 476.5t332 154.5q170 0 262 -78q29 45 29 86q0 6 12 6t12 -6v-821q156 143 314 143q86 0 159.5 -45t117.5 -131t44 -201q0 -162 -68.5 -266t-171 -152.5t-208.5 -48.5q-103 0 -187 29v-399q0 -61 14.5 -90 t53.5 -40.5t123 -11.5q4 0 4 -12t-4 -12q-78 0 -121 2l-154 2l-121 -2q-31 -2 -81 -2q-4 0 -4.5 12t4.5 12q51 0 75.5 11.5t33.5 40t9 90.5v1702q-39 72 -90 109.5t-110 37.5q-109 0 -169.5 -133t-60.5 -420v-733q0 -63 12.5 -92t51.5 -39t125 -10q6 0 6 -12.5t-6 -12.5 l-140 2q-45 2 -135 2l-123 -2q-33 -2 -88 -2q-8 0 -8 12.5t8 12.5q55 0 82 10t36 39.5t9 91.5v461q0 47 -11 68.5t-38 28.5t-86 7q-4 0 -6 5t-2 14zM950 129q49 -51 102.5 -78.5t131.5 -27.5q102 0 161.5 89t59.5 265q0 160 -74 249t-184 89q-107 0 -197 -84v-502z" />
<glyph unicode="&#x17f;&#x17f;" horiz-adv-x="1103" d="M45 750q0 6 3 11t5 5q76 0 104.5 19.5t28.5 70.5q2 274 135.5 416.5t358.5 142.5q127 0 217 -43q102 115 301 115q105 0 163 -32t58 -85q0 -41 -28.5 -64.5t-67.5 -23.5t-59.5 20.5t-40.5 63.5q-23 43 -43.5 62.5t-59.5 19.5q-94 0 -147 -133t-53 -416v-733q0 -63 11 -92 t44 -39t108 -10q6 0 6.5 -12.5t-6.5 -12.5l-127 2q-41 2 -122 2l-123 -2q-33 -2 -88 -2q-8 0 -8.5 12.5t8.5 12.5q55 0 81.5 10t36 39.5t9.5 91.5v461q0 47 -11.5 68.5t-38 28.5t-86.5 7q-4 0 -6 5t-2 14q0 6 3 11t5 5q76 0 106 19.5t32 70.5q10 252 65 387q-41 63 -93 98 t-110 35q-119 0 -189.5 -118.5t-70.5 -358.5v-733q0 -63 10.5 -92t42 -39t103.5 -10q4 0 4 -12.5t-4 -12.5l-123 2q-39 2 -119 2l-121 -2q-31 -2 -88 -2q-8 0 -8 12.5t8 12.5q55 0 82 11t37 39.5t10 90.5v461q0 47 -11 68.5t-37.5 28.5t-86.5 7q-4 0 -6 5t-2 14z" />
<glyph unicode="&#x17f;&#x17f;b" horiz-adv-x="2256" d="M45 750q0 6 3 11t5 5q76 0 104.5 19.5t28.5 70.5q2 274 135.5 416.5t358.5 142.5q143 0 238 -53q113 125 311 125q168 0 264 -80q31 41 31 88q0 6 12 6t12 -6v-825q70 68 142.5 107.5t162.5 39.5q91 0 167.5 -43t122.5 -129t46 -209q0 -147 -63.5 -251.5t-163.5 -158 t-213 -53.5q-164 0 -291 95l-174 -80h-4q-8 0 -10 8t6 10q53 35 78.5 81t25.5 124v1079q-84 162 -206 162q-109 0 -170.5 -133t-61.5 -420v-733q0 -63 13.5 -92t52.5 -39t122 -10q8 0 8.5 -12.5t-8.5 -12.5l-137 2q-45 2 -137 2l-121 -2q-31 -2 -88 -2q-8 0 -8 12.5t8 12.5 q55 0 82 11t37 39.5t10 90.5v461q0 68 -26.5 86t-110.5 18q-6 0 -6 19q0 16 6 16q76 0 104.5 19.5t28.5 70.5q2 221 59 365q-41 74 -98 114.5t-119 40.5q-119 0 -189.5 -118.5t-70.5 -358.5v-733q0 -63 10.5 -92t42 -39t103.5 -10q4 0 4 -12.5t-4 -12.5l-123 2q-39 2 -119 2 l-121 -2q-31 -2 -88 -2q-8 0 -8 12.5t8 12.5q55 0 82 11t37 39.5t10 90.5v461q0 47 -11 68.5t-37.5 28.5t-86.5 7q-4 0 -6 5t-2 14zM1548 207q49 -100 115 -147.5t135 -47.5q100 0 153.5 90.5t53.5 257.5q0 180 -64.5 271.5t-173.5 91.5q-104 0 -219 -92v-424z" />
<glyph unicode="&#x17f;&#x17f;h" horiz-adv-x="2252" d="M45 750q0 6 3 11t5 5q76 0 104.5 19.5t28.5 70.5q2 274 135.5 416.5t358.5 142.5q74 0 134 -15.5t101 -37.5q113 125 312 125q170 0 266 -80q29 45 29 88q0 6 12 6t12 -6v-852q143 170 314 170q111 0 174 -67.5t63 -184.5v-395q0 -84 23.5 -112.5t93.5 -28.5q8 0 8 -12.5 t-8 -12.5q-51 0 -82 2l-119 2l-117 -2q-31 -2 -81 -2q-6 0 -6.5 12.5t6.5 12.5q70 0 93 28.5t23 112.5v305q0 115 -43 170t-131 55q-55 0 -111.5 -25.5t-99.5 -68.5v-436q0 -84 23.5 -112.5t93.5 -28.5q8 0 8 -12.5t-8 -12.5q-51 0 -82 2l-119 2l-116 -2q-31 -2 -82 -2 q-6 0 -6.5 12.5t6.5 12.5q70 0 93 28.5t23 112.5v1124q-84 162 -206 162q-109 0 -170.5 -133t-61.5 -420v-733q0 -63 13.5 -92t51 -39t123.5 -10q8 0 8.5 -12.5t-8.5 -12.5l-139 2q-45 2 -135 2l-121 -2q-33 -2 -90 -2q-6 0 -6 12.5t6 12.5q57 0 83 10t36 39.5t10 91.5 l2 461q0 68 -26.5 86t-110.5 18q-6 0 -6 19q0 16 6 16q76 0 104.5 19.5t28.5 70.5q2 221 59 365q-41 74 -98 114.5t-119 40.5q-119 0 -189.5 -118.5t-70.5 -358.5v-733q0 -63 10.5 -92t42 -39t103.5 -10q4 0 4 -12.5t-4 -12.5l-123 2q-39 2 -119 2l-121 -2q-31 -2 -88 -2 q-8 0 -8 12.5t8 12.5q55 0 82 11t37 39.5t10 90.5v461q0 47 -11 68.5t-37.5 28.5t-86.5 7q-4 0 -6 5t-2 14z" />
<glyph unicode="&#x17f;&#x17f;i" horiz-adv-x="1716" d="M45 750q0 6 3 11t5 5q76 0 104.5 19.5t28.5 70.5q2 274 135.5 416.5t358.5 142.5q137 0 231 -49q119 121 324 121q125 0 197.5 -40t72.5 -104q0 -37 -23.5 -58t-66.5 -21q-39 0 -61.5 21.5t-48.5 66.5q-29 49 -55.5 73.5t-75.5 24.5q-107 0 -175.5 -137t-68.5 -414v-733 q0 -63 12 -92t50 -39t120 -10q6 0 6 -12.5t-6 -12.5l-137 2q-43 2 -131 2l-123 -2q-33 -2 -88 -2q-8 0 -8 12.5t8 12.5q55 0 82.5 11t38 39.5t10.5 90.5v461q0 68 -26.5 86t-110.5 18q-6 0 -6 19q0 16 6 16q76 0 104.5 19.5t28.5 70.5q0 233 65 377q-41 68 -97 105.5 t-114 37.5q-119 0 -189.5 -118.5t-70.5 -358.5v-733q0 -63 10.5 -92t42 -39t103.5 -10q4 0 4 -12.5t-4 -12.5l-123 2q-39 2 -119 2l-121 -2q-31 -2 -88 -2q-8 0 -8 12.5t8 12.5q55 0 82 11t37 39.5t10 90.5v461q0 47 -11 68.5t-37.5 28.5t-86.5 7q-4 0 -6 5t-2 14z M1198 657.5q-4 10.5 2 14.5l295 137q2 2 6 2q8 0 17.5 -9t9.5 -16v-43q-4 -86 -4 -202v-375q0 -84 23.5 -112.5t90.5 -28.5q9 0 9 -12.5t-9 -12.5q-51 0 -79 2l-119 2l-117 -2q-31 -2 -84 -2q-4 0 -4 12.5t4 12.5q70 0 94.5 29.5t24.5 111.5v373q0 72 -13.5 103.5 t-48.5 31.5q-27 0 -84 -27h-2q-8 0 -12 10.5z" />
<glyph unicode="&#x17f;&#x17f;j" horiz-adv-x="1681" d="M45 750q0 6 3 11t5 5q76 0 104.5 19.5t28.5 70.5q2 274 135.5 416.5t358.5 142.5q137 0 231 -49q119 121 324 121q125 0 197.5 -40t72.5 -104q0 -37 -23.5 -58t-66.5 -21q-39 0 -61.5 21.5t-48.5 66.5q-29 49 -55.5 73.5t-75.5 24.5q-106 0 -175 -137t-69 -414v-733 q0 -63 12 -92t50 -39t120 -10q6 0 6 -12.5t-6 -12.5l-137 2q-43 2 -131 2l-123 -2q-33 -2 -88 -2q-8 0 -8 12.5t8 12.5q55 0 82.5 11t38 39.5t10.5 90.5v461q0 68 -26.5 86t-110.5 18q-6 0 -6 19q0 16 6 16q76 0 104.5 19.5t28.5 70.5q0 233 65 377q-41 68 -97 105.5 t-114 37.5q-119 0 -189.5 -118.5t-70.5 -358.5v-733q0 -63 10.5 -92t42 -39t103.5 -10q4 0 4 -12.5t-4 -12.5l-123 2q-39 2 -119 2l-121 -2q-31 -2 -88 -2q-8 0 -8 12.5t8 12.5q55 0 82 11t37 39.5t10 90.5v461q0 47 -11 68.5t-37.5 28.5t-86.5 7q-4 0 -6 5t-2 14z M1168.5 -564q-5.5 11 0.5 13q98 43 140.5 136t42.5 270v684q0 72 -13.5 103.5t-48.5 31.5q-27 0 -84 -27h-2q-8 0 -12 10.5t2 14.5l295 137q2 2 6 2q8 0 17.5 -9t9.5 -16q0 -25 -2 -43q-4 -86 -4 -202v-639q0 -139 -32 -227.5t-103.5 -146.5t-200.5 -101q-6 -2 -11.5 9z" />
<glyph unicode="&#x17f;&#x17f;k" horiz-adv-x="2211" d="M45 750q0 6 3 11t5 5q76 0 104.5 19.5t28.5 70.5q2 274 135.5 416.5t358.5 142.5q135 0 229 -49q113 121 308 121q168 0 264 -80q29 45 28 88q0 6 12.5 6t12.5 -6v-1081l219 196q57 49 57 97q0 27 -23.5 43t-66.5 16q-6 0 -6 12.5t6 12.5q57 0 90 -3l158 -2l143 2 q29 2 78 3q6 0 6 -12.5t-6 -12.5q-84 0 -191.5 -42t-197.5 -122l-88 -78l275 -358q106 -141 227 -141q4 0 4 -12.5t-4 -12.5q-51 0 -82 2l-117 2l-155 -2q-33 -2 -93 -2q-4 0 -4 12.5t4 12.5q84 0 84 41q0 18 -18 43l-238 313l-61 -53v-203q0 -84 23.5 -112.5t93.5 -28.5 q8 0 8 -12.5t-8 -12.5q-51 0 -82 2l-117 2l-117 -2q-31 -2 -82 -2q-6 0 -6 12.5t6 12.5q68 0 92.5 29.5t24.5 111.5v1120q-41 80 -94 123t-115 43q-109 0 -170 -133t-61 -420v-733q0 -63 13 -92t52 -39t123 -10q8 0 8 -12.5t-8 -12.5l-137 2q-45 2 -137 2l-121 -2 q-31 -2 -88 -2q-8 0 -8 12.5t8 12.5q55 0 81.5 11t37 39.5t10.5 90.5v461q0 68 -26.5 86t-110.5 18q-6 0 -6 19q0 16 6 16q76 0 104.5 19.5t28.5 70.5q2 229 65 377q-41 68 -97 105.5t-114 37.5q-119 0 -189.5 -118.5t-70.5 -358.5v-733q0 -63 10.5 -92t42 -39t103.5 -10 q4 0 4 -12.5t-4 -12.5l-123 2q-39 2 -119 2l-121 -2q-31 -2 -88 -2q-8 0 -8 12.5t8 12.5q55 0 82 11t37 39.5t10 90.5v461q0 47 -11 68.5t-37.5 28.5t-86.5 7q-4 0 -6 5t-2 14z" />
<glyph unicode="&#x17f;&#x17f;l" horiz-adv-x="1705" d="M45 750q0 6 3 11t5 5q76 0 104.5 19.5t28.5 70.5q2 274 135.5 416.5t358.5 142.5q135 0 229 -49q109 121 305 121q170 0 269 -82q31 43 30 90q0 6 12.5 6t12.5 -6v-1329q0 -84 23.5 -112.5t93.5 -28.5q6 0 6 -12.5t-6 -12.5q-51 0 -82 2l-119 2l-117 -2q-31 -2 -84 -2 q-6 0 -6 12.5t6 12.5q70 0 93.5 28.5t23.5 112.5v1118q-41 80 -95 124t-116 44q-104 0 -166.5 -133t-62.5 -420v-733q0 -63 13 -92t52 -39t123 -10q8 0 8 -12.5t-8 -12.5l-137 2q-45 2 -137 2l-121 -2q-31 -2 -88 -2q-8 0 -8 12.5t8 12.5q55 0 81.5 11t37 39.5t10.5 90.5 v461q0 68 -26.5 86t-110.5 18q-6 0 -6 19q0 16 6 16q76 0 104.5 19.5t28.5 70.5q6 229 65 377q-41 68 -97 105.5t-114 37.5q-119 0 -189.5 -118.5t-70.5 -358.5v-733q0 -63 10.5 -92t42 -39t103.5 -10q4 0 4 -12.5t-4 -12.5l-123 2q-39 2 -119 2l-121 -2q-31 -2 -88 -2 q-8 0 -8 12.5t8 12.5q55 0 82 11t37 39.5t10 90.5v461q0 47 -11 68.5t-37.5 28.5t-86.5 7q-4 0 -6 5t-2 14z" />
<glyph unicode="&#x17f;&#x17f;&#xfe;" horiz-adv-x="2224" d="M39 750q0 6 3 11t5 5q76 0 104.5 19.5t28.5 70.5q2 274 135.5 416.5t358.5 142.5q129 0 227 -47q111 119 303 119q170 0 262 -78q29 45 29 86q0 6 12.5 6t12.5 -6v-821q156 143 313 143q86 0 159.5 -45t117.5 -131t44 -201q0 -162 -68.5 -266t-171 -152.5t-208.5 -48.5 q-102 0 -186 29v-399q0 -61 14 -90t53 -40.5t123 -11.5q4 0 4 -12t-4 -12q-78 0 -121 2l-153 2l-121 -2q-31 -2 -82 -2q-4 0 -4 12t4 12q51 0 75.5 11.5t34 40t9.5 90.5v1702q-39 72 -90.5 109.5t-110.5 37.5q-109 0 -169 -133t-60 -420v-733q0 -63 12 -92t51 -39t125 -10 q6 0 6 -12.5t-6 -12.5l-139 2q-45 2 -135 2l-123 -2q-33 -2 -88 -2q-8 0 -8.5 12.5t8.5 12.5q55 0 81.5 10t36 39.5t9.5 91.5v461q0 47 -11.5 68.5t-38 28.5t-86.5 7q-4 0 -6 5t-2 14q0 6 3 11t5 5q76 0 105 19.5t29 70.5q6 233 67 379q-41 68 -96 104.5t-113 36.5 q-119 0 -189.5 -118.5t-70.5 -358.5v-733q0 -63 10.5 -92t42 -39t103.5 -10q4 0 4 -12.5t-4 -12.5l-123 2q-39 2 -119 2l-121 -2q-31 -2 -88 -2q-8 0 -8 12.5t8 12.5q55 0 82 11t37 39.5t10 90.5v461q0 47 -11 68.5t-38 28.5t-86 7q-4 0 -6 5t-2 14zM1520 129 q49 -51 102 -78.5t131 -27.5q102 0 161.5 89t59.5 265q0 160 -73.5 249t-184.5 89q-106 0 -196 -84v-502z" />
<glyph unicode=" "  horiz-adv-x="479" />
<glyph unicode="&#x09;" horiz-adv-x="479" />
<glyph unicode="&#xa0;" horiz-adv-x="479" />
<glyph unicode="!" horiz-adv-x="528" d="M137 1264q-4 10 38 17t89 7q45 0 88 -7t39 -17q-41 -166 -62.5 -361.5t-39.5 -474.5l-2 -41q0 -8 -27 -8q-29 0 -29 8q-14 287 -33.5 495t-60.5 382zM139 90q0 49 31 78t82 29q53 0 81.5 -29t28.5 -78q0 -53 -28.5 -83t-81.5 -30q-51 0 -82 31t-31 82z" />
<glyph unicode="&#x22;" horiz-adv-x="606" d="M68 1243q-2 23 59 45.5t109 22.5q33 0 30 -15l-121 -546q-4 -4 -17 -6.5t-13 4.5zM373 1243q-2 23 59.5 45.5t108.5 22.5q33 0 30 -15l-120 -546q-4 -4 -17.5 -6.5t-13.5 4.5z" />
<glyph unicode="#" horiz-adv-x="1077" d="M119 203q0 16 2 29.5t6 13.5h152l55 315h-133q-4 0 -7.5 15.5t-3.5 33.5q0 14 3.5 27.5t5.5 13.5h151l60 336q0 10 47 -1t45 -19l-56 -316h287l60 336q0 10 47 -1t45 -19l-56 -316h119q4 0 7 -14t3 -31q0 -16 -3 -30.5t-7 -14.5h-135l-55 -315h119q4 0 7 -14.5t3 -30.5 q0 -18 -3 -32.5t-7 -14.5h-136l-57 -322q0 -8 -49 -1t-45 15l55 308h-287l-57 -322q0 -8 -49 -1t-45 15l55 308h-133q-4 0 -7 15t-3 34zM375 246h287l55 315h-287z" />
<glyph unicode="$" horiz-adv-x="856" d="M106 313v2q0 8 10.5 9.5t14.5 -7.5q49 -109 123 -193.5t164 -100.5v403l-49 27q-82 43 -131.5 76.5t-83 83t-33.5 114.5q0 106 85 174t212 80v168q0 8 8 12t20 4q10 0 18.5 -4t8.5 -12v-166q57 -2 118.5 -15.5t106.5 -31.5q16 -8 22.5 -16.5t8.5 -22.5l4 -188 q0 -8 -10 -10.5t-14 3.5q-20 61 -83 138.5t-153 97.5v-365l43 -20q88 -45 141.5 -80t90 -87t36.5 -124q0 -112 -86 -191t-225 -94v-186q0 -14 -27 -14q-29 0 -28 14v184q-86 2 -164 22.5t-117 51.5q-16 8 -16 43zM270 799q0 -64 39 -110t109 -85v338q-72 -2 -110 -42 t-38 -101zM473 18q66 7 108 44.5t42 113.5q0 70 -39 121t-111 96v-375z" />
<glyph unicode="%" horiz-adv-x="1175" d="M43 887q0 109 75 184.5t189 75.5q113 0 186.5 -77t73.5 -189q0 -111 -73.5 -185.5t-186.5 -74.5q-114 0 -189 76.5t-75 189.5zM166 23l758 1114q6 6 34.5 -14.5t24.5 -24.5l-760 -1112q-4 -6 -32.5 12t-24.5 25zM193 893q0 -244 129 -244q57 0 75.5 55.5t18.5 161.5 q0 123 -31 187.5t-90 64.5t-80.5 -59.5t-21.5 -165.5zM610 256q0 109 76 185.5t188 76.5q113 0 187 -78t74 -188q0 -111 -74 -186.5t-187 -75.5q-114 0 -189 76.5t-75 189.5zM762 264q0 -244 127 -244q57 0 75.5 54.5t18.5 163.5q0 123 -30.5 186t-90.5 63q-57 0 -78.5 -59 t-21.5 -164z" />
<glyph unicode="&#x26;" horiz-adv-x="1454" d="M133 272q0 106 69.5 186.5t205.5 180.5q-29 45 -62 102q-29 59 -44 111.5t-15 110.5q0 102 46 184t131 129t198 47q119 0 191.5 -52t72.5 -153q0 -82 -46 -148.5t-107.5 -112.5t-184.5 -128q150 -227 424 -442q33 94 32 202q0 104 -35.5 152.5t-123.5 48.5q-4 0 -5 12.5 t5 12.5l469 2q6 0 6 -12.5t-6 -12.5q-63 0 -96 -13t-47.5 -41t-30.5 -89q-53 -186 -123 -297q131 -96 238.5 -154.5t170.5 -72.5q9 -2 8 -13.5t-8 -11.5h-299q-63 0 -223 115q-156 -139 -399 -140q-137 0 -229.5 42t-137.5 110t-45 145zM313 375q0 -82 45 -153.5t129 -115 t193 -43.5q137 0 231 78q-41 31 -71 56q-113 90 -221.5 197.5t-188.5 213.5q-117 -106 -117 -233zM455 1108q-1 -158 112 -344q82 72 127 147.5t45 167.5q0 90 -44 141.5t-115 51.5q-125 0 -125 -164z" />
<glyph unicode="'" horiz-adv-x="301" d="M68 1243q-2 23 59 45.5t109 22.5q33 0 30 -15l-121 -546q-4 -4 -17 -6.5t-13 4.5z" />
<glyph unicode="(" horiz-adv-x="632" d="M104 623q0 290 121 521.5t336 340.5q4 2 8 -3t0 -9q-137 -143 -200.5 -355.5t-63.5 -494.5q0 -283 63.5 -495t200.5 -355q4 -2 0 -8.5t-8 -4.5q-215 111 -336 341.5t-121 521.5z" />
<glyph unicode=")" horiz-adv-x="632" d="M63 -227q137 143 201 355t64 495t-63.5 494.5t-201.5 355.5q-4 2 0.5 8t8.5 4q215 -111 335.5 -341.5t120.5 -520.5q0 -291 -120.5 -522.5t-335.5 -340.5q-4 -2 -8.5 3.5t-0.5 9.5z" />
<glyph unicode="*" horiz-adv-x="917" d="M109 838l313 168l4 2q6 0 11 -5.5t3 -9.5l-129 -231q-2 -8 -20 -8q-27 0 -74 18.5t-82 40t-26 25.5zM135 1165q0 51 11.5 103.5t19.5 44.5l258 -248q4 -2 1 -11.5t-7 -6.5l-262 49q-20 2 -21 69zM428 1346q-2 23 70.5 44t119.5 21q23 0 21 -8l-156 -320q-2 -6 -11 -6 t-9 6zM475 985q-2 4 6 11.5t13 2.5l182 -194q12 -12 -19.5 -58.5t-72.5 -84t-43 -25.5zM506 1040.5q-2 8.5 2 10.5l237 114q18 8 52 -37t59 -95t12 -50l-356 49q-4 0 -6 8.5z" />
<glyph unicode="+" horiz-adv-x="815" d="M59 391q0 16 2 29.5t7 13.5h292v291q0 4 15.5 7t32.5 3q18 0 32.5 -3t14.5 -7v-291h290q5 0 8 -14t3 -31q0 -18 -3 -32.5t-8 -14.5h-290v-291q0 -4 -17.5 -7t-36.5 -3q-41 0 -41 6v295h-290q-4 0 -7.5 15.5t-3.5 33.5z" />
<glyph unicode="," horiz-adv-x="454" d="M88 86q0 51 32 79t87 28q67 0 106 -52.5t39 -148.5q0 -90 -40 -166t-117 -152q-2 -2 -7 -2q-6 0 -10 6.5t0 10.5q100 102 101 241q0 57 -21 84q-18 -31 -72 -30q-45 0 -71.5 27.5t-26.5 74.5z" />
<glyph unicode="-" horiz-adv-x="661" d="M55 381q0 45 6 45l535 96q4 2 7 -14t3 -35q0 -18 -3 -34.5t-7 -18.5l-530 -96q-5 -2 -8 17t-3 40z" />
<glyph unicode="." horiz-adv-x="417" d="M98 90q0 49 31 78t82 29q53 0 82 -29t29 -78q0 -53 -29 -83t-82 -30q-51 0 -82 31t-31 82z" />
<glyph unicode="/" horiz-adv-x="712" d="M53 -311l516 1806q4 8 48.5 -4t41.5 -23l-514 -1804q-4 -8 -49 4.5t-43 20.5z" />
<glyph unicode="0" horiz-adv-x="976" d="M59 399q0 121 55.5 216.5t154 148.5t223.5 53t221 -54t150.5 -150.5t54.5 -217.5t-54.5 -217t-152 -150.5t-219.5 -54.5q-125 0 -223.5 55.5t-154 153t-55.5 217.5zM252 420q0 -180 71.5 -294t188.5 -114q104 0 157.5 94.5t53.5 262.5q0 205 -71.5 307t-178.5 102 q-104 0 -162.5 -97t-58.5 -261z" />
<glyph unicode="1" horiz-adv-x="679" d="M88 12.5q0 12.5 4 12.5q72 0 105.5 10t46 39.5t12.5 91.5v459q0 63 -11.5 91.5t-44 39t-108.5 10.5q-4 0 -4 12.5t4 12.5q66 0 103 -3l145 -2l143 2q39 2 105 3q6 0 6 -12.5t-6 -12.5q-72 0 -105.5 -10.5t-46 -40t-12.5 -90.5v-459q0 -63 11 -92t44 -39t109 -10 q6 0 6 -12.5t-6 -12.5q-66 0 -103 2l-145 2l-143 -2q-39 -2 -105 -2q-4 0 -4 12.5z" />
<glyph unicode="2" horiz-adv-x="823" d="M73 19.5q-5 19.5 3 27.5q180 160 266 246t124 149.5t38 128.5q0 80 -43 134.5t-117 54.5q-78 0 -130 -66.5t-95 -199.5q0 -2 -8 -2q-18 0 -17 6l86 338q0 4 8 4q6 0 11.5 -3t3.5 -6q-2 -10 -2 -24q0 -33 30 -33q18 0 62 14q90 29 158 29q111 0 173 -54t62 -142 q0 -74 -45 -141.5t-109.5 -124t-175.5 -140.5q-25 -18 -43 -32.5t-32 -24.5q-8 -6 -5 -10.5t13 -4.5q186 0 270 6.5t129 29t60 77.5q0 4 10 4q14 0 14 -6l-39 -231q0 -8 -5 -15.5t-13 -7.5h-627q-10 0 -15 19.5z" />
<glyph unicode="3" horiz-adv-x="802" d="M61 535l76 299q4 4 8 4q6 0 12.5 -3.5t4.5 -5.5q-4 -16 -4 -22q0 -35 35 -35q25 0 67 16q47 14 81 21.5t77 7.5q119 0 186.5 -68.5t67.5 -164.5q0 -98 -59.5 -185.5t-163.5 -130.5q141 -20 212.5 -101t71.5 -190q0 -98 -67.5 -199.5t-207 -191.5t-343.5 -149 q-8 -2 -13.5 9t2.5 13q231 86 332 222.5t101 271.5q0 117 -60.5 190.5t-169.5 73.5q-41 0 -88 -12q-6 -2 -10 10t2 14q147 39 214 114t67 206q0 102 -36 158.5t-106 56.5q-86 0 -153.5 -59.5t-110.5 -176.5q-2 -2 -8 -2q-18 0 -17 9z" />
<glyph unicode="4" horiz-adv-x="929" d="M49.5 24.5q-6.5 8.5 1.5 16.5l623 770q4 4 12 4q6 0 12.5 -3t6.5 -9v-713l151 6q8 0 8 -35q0 -20 -4 -39.5t-8 -19.5l-49 2q-66 4 -98 4v-297q0 -20 -17 -28l-135 -68l-12 -4q-6 0 -6 16v387q-125 2 -469 2q-10 0 -16.5 8.5zM172 98q-12 -14 10 -14q255 0 353 2v451z" />
<glyph unicode="5" horiz-adv-x="837" d="M119 367l65 364q2 14 6.5 17.5t20.5 5.5q258 31 346 43t113.5 25.5t36.5 43.5q2 6 13 5t9 -9l-41 -200q-6 -25 -17.5 -31t-39.5 -6l-389 -9q-27 0 -31 -30l-33 -185q285 -2 419 -104t134 -279q0 -117 -60.5 -212t-189.5 -184t-342 -185h-2q-8 0 -13 9t3 13 q231 125 324.5 252t93.5 273q0 170 -104.5 264t-301.5 94q-10 0 -16 7t-4 18z" />
<glyph unicode="6" horiz-adv-x="952" d="M82 424q0 193 89 378t256 330.5t392 221.5q8 2 12.5 -8.5t-2.5 -14.5q-182 -88 -309 -230.5t-190.5 -310t-63.5 -335.5q0 -121 32 -220.5t91.5 -158t136.5 -58.5q84 0 134.5 67t50.5 183q0 109 -46.5 175.5t-136.5 66.5q-41 0 -78.5 -16.5t-84.5 -53.5q-2 -2 -7 -2 q-6 0 -12 6.5t-4 10.5q115 131 285 131q133 0 200.5 -77t67.5 -183q0 -96 -57.5 -177t-154.5 -128.5t-212 -47.5q-180 0 -284.5 120t-104.5 331z" />
<glyph unicode="7" horiz-adv-x="878" d="M33 504l86 342q2 4 14 3t10 -5q-2 -8 -2 -21q0 -20 19.5 -26t79.5 -6h542q8 0 15.5 -9.5t3.5 -17.5l-449 -1202q-12 -35 -43 -49l-145 -76h-2q-6 0 -10.5 5t-1.5 9l536 1172q8 14 -8 14q-295 0 -409.5 -8t-152.5 -35t-59 -96q-4 -4 -10 -4t-11 3t-3 7z" />
<glyph unicode="8" horiz-adv-x="1001" d="M82 311q0 111 73.5 211.5t194.5 161.5q-70 51 -107.5 108.5t-37.5 129.5q0 84 49 141t124 85t150 28q88 0 156 -32t103.5 -81t35.5 -100q0 -68 -52 -136.5t-144 -115.5l4 -2q102 -62 163.5 -107t104.5 -112.5t43 -155.5q0 -102 -60.5 -185t-164 -129.5t-223.5 -46.5 q-121 0 -215.5 46.5t-145.5 124t-51 167.5zM268 367q0 -94 36 -174t100.5 -128.5t146.5 -48.5q100 0 162.5 70t62.5 172q0 82 -41 142.5t-93 97.5t-167 104q-66 41 -88 55q-57 -51 -88 -127.5t-31 -162.5zM362 997q0 -84 61.5 -144t178.5 -128q68 104 68 203 q0 92 -49.5 150.5t-120.5 58.5q-62 0 -100 -39t-38 -101z" />
<glyph unicode="9" horiz-adv-x="952" d="M59 498q0 92 48.5 164.5t135.5 113.5t197 41q199 0 314.5 -127t115.5 -342q0 -186 -88 -369.5t-255 -328t-394 -213.5q-6 -2 -11 8t3 14q180 80 307 220.5t190.5 306.5t63.5 323q0 106 -27.5 214t-90 180.5t-158.5 72.5q-84 0 -126 -61.5t-42 -169.5q0 -117 48 -186.5 t140 -69.5q43 0 79 15t81 52q2 2 6 2q6 0 11 -6t3 -10q-96 -125 -266 -125q-98 0 -161.5 42t-93.5 106.5t-30 132.5z" />
<glyph unicode=":" horiz-adv-x="417" d="M98 90q0 49 31 78t82 29q53 0 82 -29t29 -78q0 -53 -29 -83t-82 -30q-51 0 -82 31t-31 82zM98 666q0 49 31 77.5t82 28.5q53 0 82 -28.5t29 -77.5q0 -53 -29 -83t-82 -30q-51 0 -82 30.5t-31 82.5z" />
<glyph unicode=";" horiz-adv-x="468" d="M102 86q0 51 32 79t87 28q68 0 107 -52.5t39 -148.5q0 -90 -40 -166t-118 -152q-2 -2 -6 -2q-6 0 -10.5 6.5t0.5 10.5q100 102 100 241q0 57 -21 84q-18 -31 -71 -30q-45 0 -72 27.5t-27 74.5zM102 666q0 49 31 77.5t82 28.5q53 0 82 -28.5t29 -77.5q0 -53 -29 -83 t-82 -30q-51 0 -82 30.5t-31 82.5z" />
<glyph unicode="&#x3c;" horiz-adv-x="833" d="M63 389q0 31 11 35l684 301q14 8 14 -39q0 -45 -14 -53l-570 -244l570 -244q14 -6 14 -53t-14 -41l-684 303q-10 6 -11 35z" />
<glyph unicode="=" horiz-adv-x="958" d="M59 248q0 16 2 29.5t7 13.5h821q4 0 7 -14.5t3 -30.5q0 -18 -3 -32.5t-7 -14.5h-819q-4 0 -7.5 15t-3.5 34zM59 535q0 16 2 29.5t7 13.5h821q4 0 7 -14.5t3 -31.5q0 -18 -3 -32.5t-7 -14.5h-819q-4 0 -7.5 15.5t-3.5 34.5z" />
<glyph unicode="&#x3e;" horiz-adv-x="833" d="M61 90q0 18 4.5 34.5t10.5 18.5l569 244l-569 244q-6 2 -10.5 18.5t-4.5 34.5t4.5 31.5t10.5 9.5l684 -303q10 -4 10 -35q0 -29 -10 -35l-684 -301q-6 -2 -10.5 9.5t-4.5 29.5z" />
<glyph unicode="?" horiz-adv-x="688" d="M70 1120q0 66 76.5 113t189.5 47q129 0 216 -63.5t87 -180.5q0 -78 -37 -129t-110 -116l-37 -31q-66 -59 -95.5 -118.5t-29.5 -133.5q0 -39 12 -111q2 -6 -13.5 -9t-17.5 3q-25 55 -39 126t-14 120q0 63 21.5 103t64.5 91q47 55 71.5 103.5t24.5 126.5q0 82 -28.5 133 t-77.5 51q-37 0 -50.5 -23.5t-17.5 -64.5q-6 -53 -26.5 -89t-77.5 -36q-47 0 -69.5 26.5t-22.5 61.5zM197 90q0 49 30.5 78t81.5 29q53 0 82 -29t29 -78q0 -53 -29 -83t-82 -30q-51 0 -81.5 31t-30.5 82z" />
<glyph unicode="@" horiz-adv-x="1486" d="M137 356q0 193 96.5 345.5t255 237.5t338.5 85q160 0 283 -65.5t189.5 -175t66.5 -236.5q0 -117 -55.5 -217.5t-149.5 -159.5t-205 -59q-61 0 -94 31.5t-33 88.5q0 33 9 64l8 41q-70 -104 -152 -167t-153 -63q-49 0 -82 32t-33 100q0 12 4 45q16 111 86 215t164 169.5 t176 65.5q29 0 56.5 -12t43.5 -35q47 25 60 62q4 4 14 4q20 0 21 -7l-84 -458q-6 -27 -6 -51q0 -76 75 -76q51 0 104.5 38t89.5 111.5t36 173.5q0 135 -66.5 248t-182.5 179.5t-259 66.5q-156 0 -270.5 -77t-175 -207t-60.5 -283q0 -166 69.5 -291t197.5 -192.5t296 -67.5 q98 0 177 21.5t165 78.5h2q6 0 11.5 -7t-1.5 -9q-104 -88 -209.5 -121t-214.5 -33q-170 0 -309 67.5t-219 195.5t-80 304zM580 299q0 -78 47 -78q43 0 98 51.5t100 130t62 156.5q2 12 2 35q0 41 -16.5 66.5t-45.5 25.5q-76 0 -146.5 -93t-92.5 -218q-8 -35 -8 -76z" />
<glyph unicode="A" horiz-adv-x="1456" d="M-14 12.5q0 12.5 10 12.5q57 0 96 22.5t76 80.5t88 173l440 991q4 6 19 6q14 0 16 -6l502 -1011q72 -147 120 -201.5t103 -54.5q10 0 10 -12.5t-10 -12.5q-39 0 -125 4t-125 4q-51 0 -121 -4t-108 -4q-8 0 -8 12.5t8 12.5q59 0 87 13t28 44t-35 104l-156 316h-495 l-99 -221q-26 -59 -26 -107q0 -76 51 -112.5t143 -36.5q10 0 10 -12.5t-10 -12.5q-37 0 -106 4q-78 4 -136 4q-55 0 -129 -4q-66 -4 -108 -4q-10 0 -10 12.5zM428 553h449l-236 477z" />
<glyph unicode="B" horiz-adv-x="1193" d="M80 12.5q0 12.5 6 12.5q66 0 98.5 11t46 39.5t13.5 90.5v948q0 59 -13.5 89t-45 41t-97.5 11q-4 0 -4 12.5t4 12.5l107 -2q90 -4 145 -4q57 0 121 6q23 2 54.5 4t72.5 2q182 0 278.5 -69.5t96.5 -196.5q0 -98 -63.5 -177t-180.5 -124q168 -19 268 -113t100 -233 q0 -106 -58 -193.5t-161.5 -137.5t-230.5 -50q-59 0 -137 6q-27 2 -68 4t-92 2l-147 -2q-39 -2 -107 -2q-6 0 -6 12.5zM440 166q0 -47 12.5 -73.5t47.5 -40t104 -13.5q277 0 277 285q0 156 -81 250t-237 94q-74 0 -123 -4v-498zM440 721l86 -2q121 0 182.5 79t61.5 203 q0 117 -55.5 180.5t-161.5 63.5q-66 0 -89.5 -26.5t-23.5 -108.5v-389z" />
<glyph unicode="C" horiz-adv-x="1398" d="M100 637q0 193 100.5 344.5t274.5 236.5t389 85q228 -1 367 -64q16 -8 20 -15t9 -32l24 -270q0 -6 -10 -8.5t-14 6.5q-53 168 -159 256t-261 88q-150 0 -267.5 -75t-183 -215t-65.5 -327q0 -184 69.5 -328.5t190.5 -224.5t272 -80q150 0 249 79t175 251q2 6 12.5 4 t10.5 -6l-27 -246q-2 -25 -7 -31t-22 -14q-184 -76 -391 -76q-219 0 -391 83t-268.5 233.5t-96.5 345.5z" />
<glyph unicode="D" horiz-adv-x="1433" d="M61.5 12.5q-0.5 12.5 4.5 12.5q70 0 101.5 10t43.5 39.5t12 91.5v948q0 61 -11 90t-44 40t-100 11q-4 0 -4.5 12.5t4.5 12.5l108 -2q90 -4 143 -4q82 0 166 6q102 4 138 4q209 0 370.5 -82t250.5 -223t89 -317q0 -199 -92 -351.5t-247.5 -235.5t-342.5 -83q-63 0 -147 6 q-31 2 -78 4t-107 2l-145 -2q-39 -2 -108 -2q-4 0 -4.5 12.5zM420 188q0 -84 43 -119.5t168 -35.5q141 0 250.5 67.5t171 199.5t61.5 316q0 176 -58.5 318.5t-165 225.5t-247.5 83q-86 0 -133 -10t-68.5 -38t-21.5 -85v-922z" />
<glyph unicode="E" horiz-adv-x="1120" d="M80 12.5q0 12.5 6 12.5q70 0 101.5 10t43 39.5t11.5 91.5v948q0 61 -11.5 90t-44 40t-100.5 11q-6 0 -6 12.5t6 12.5h852q20 0 20 -18l5 -267q0 -4 -11.5 -6t-13.5 4q-49 233 -285 234h-82q-74 0 -104.5 -26.5t-30.5 -90.5v-418h197q225 0 225 152q0 6 11.5 6t11.5 -6 l-2 -178l2 -97q4 -66 4 -106q0 -4 -12.5 -4t-12.5 4q0 176 -229 176h-195v-465q0 -68 25.5 -94.5t91.5 -26.5h100q274 0 348 266q1 5 9 5q6 0 11 -3.5t5 -5.5q-20 -156 -20 -284q0 -16 -6.5 -23.5t-24.5 -7.5h-889q-6 0 -6 12.5z" />
<glyph unicode="F" horiz-adv-x="1060" d="M70 12.5q0 12.5 6 12.5q74 0 107.5 10t46 39.5t12.5 91.5v948q0 61 -11.5 90t-44 40t-100.5 11q-6 0 -6 12.5t6 12.5h852q20 0 20 -18l5 -267q0 -4 -11.5 -6t-13.5 4q-49 233 -285 234h-82q-74 0 -104.5 -26.5t-30.5 -88.5v-444h168q229 0 230 153q0 4 12 4t12 -4 l-2 -180q0 -63 2 -94l2 -107q0 -6 -12 -6t-12 6q0 174 -236 174h-164v-440q0 -66 16.5 -95.5t64.5 -41.5t149 -12q4 0 4 -12.5t-4 -12.5q-84 0 -131 2l-201 2l-150 -2q-39 -2 -108 -2q-6 0 -6 12.5z" />
<glyph unicode="G" horiz-adv-x="1484" d="M100 637q0 197 102.5 348.5t283 234.5t403.5 83q102 0 199.5 -16.5t158.5 -47.5q18 -8 21.5 -14t5.5 -33l26 -270q0 -6 -11 -8.5t-13 6.5q-43 129 -157.5 236.5t-295.5 107.5q-141 0 -256.5 -72t-182.5 -206t-67 -310q0 -186 73 -339t207 -241t308 -88q88 0 137.5 20.5 t72 74t22.5 155.5q0 106 -12.5 148.5t-54.5 56.5t-146 14q-12 0 -13 17q0 6 3.5 11t7.5 5q170 -10 272 -10t213 6q4 0 7 -5t3 -9q0 -14 -10 -15q-41 2 -57.5 -13t-21.5 -62.5t-5 -163.5q0 -92 7 -131t7 -50q0 -12 -4 -16t-18 -8q-258 -57 -461 -58q-231 0 -402 88.5 t-261.5 239t-90.5 334.5z" />
<glyph unicode="H" horiz-adv-x="1560" d="M61.5 12.5q-0.5 12.5 4.5 12.5q74 0 108.5 10t46.5 39.5t12 91.5v948q0 61 -12 90t-47 40t-106 11q-4 0 -4.5 12.5t4.5 12.5l108 -2q94 -4 148 -4q72 0 170 4l108 2q4 0 4 -12.5t-4 -12.5q-76 0 -111.5 -12t-49 -42t-13.5 -91v-418h702v418q0 61 -12 91t-48 42t-112 12 q-6 0 -6 12.5t6 12.5l99 -2q98 -4 174 -4q55 0 149 4l113 2q6 0 6 -12.5t-6 -12.5q-74 0 -107.5 -11t-46 -39.5t-12.5 -90.5v-948q0 -61 12.5 -91t46 -40t107.5 -10q6 0 6 -12.5t-6 -12.5q-70 0 -113 2l-149 2l-174 -2q-37 -2 -99 -2q-6 0 -6 12.5t6 12.5q78 0 113 10 t47 38.5t12 92.5v473h-702v-473q0 -61 12.5 -91t48 -40t113.5 -10q4 0 4 -12.5t-4 -12.5q-70 0 -108 2l-170 2l-150 -2q-39 -2 -108 -2q-4 0 -4.5 12.5z" />
<glyph unicode="I" horiz-adv-x="694" d="M84 12.5q0 12.5 6 12.5q70 0 101.5 10t44 39.5t12.5 91.5v948q0 61 -12.5 90t-44 40t-101.5 11q-6 0 -6 12.5t6 12.5l107 -2q90 -4 147 -4q63 0 154 4l102 2q6 0 6 -12.5t-6 -12.5q-68 0 -99.5 -12t-43 -42t-11.5 -91v-944q0 -64 10.5 -92.5t42 -38.5t101.5 -10 q6 0 6 -12.5t-6 -12.5q-66 0 -104 2l-152 2l-147 -2q-39 -2 -107 -2q-6 0 -6 12.5z" />
<glyph unicode="J" horiz-adv-x="681" d="M-109 -385q0 37 25 64.5t70 27.5t69.5 -25.5t44.5 -70.5q14 -33 28.5 -49.5t35.5 -16.5q53 0 78.5 75t25.5 245v1249q0 61 -13 90t-51 40t-118 11q-4 0 -4 12.5t4 12.5l123 -2q98 -4 156 -4q55 0 141 4l92 2q6 0 6 -12.5t-6 -12.5q-57 0 -85 -12t-37 -42t-9 -91v-1135 q0 -221 -107.5 -347t-302.5 -126q-74 0 -120 30t-46 83z" />
<glyph unicode="K" horiz-adv-x="1337" d="M61.5 12.5q-0.5 12.5 4.5 12.5q70 0 101.5 10t43.5 39.5t12 91.5v948q0 61 -11 90t-44 40t-100 11q-4 0 -4.5 12.5t4.5 12.5l108 -2q90 -4 143 -4q61 0 152 4l102 2q6 0 6.5 -12.5t-6.5 -12.5q-68 0 -99.5 -12t-42.5 -42t-11 -91v-432l401 405q63 63 64 107q0 31 -32 48 t-93 17q-4 0 -4 12.5t4 12.5l92 -2q90 -4 164 -4q80 0 162 4l88 2q6 0 6 -12.5t-6 -12.5q-90 0 -197.5 -49t-196.5 -135l-262 -262l301 -399q139 -190 210 -269.5t112 -97.5t110 -18q7 0 7 -12.5t-7 -12.5h-229l-80 -2q-29 0 -49 12.5t-47 45t-98 128.5l-84 113l-285 373 l-51 -54v-450q0 -63 10 -92t42 -39t101 -10q8 0 8.5 -12.5t-8.5 -12.5q-66 0 -104 2l-150 2l-145 -2q-39 -2 -108 -2q-4 0 -4.5 12.5z" />
<glyph unicode="L" horiz-adv-x="1107" d="M61.5 12.5q-0.5 12.5 4.5 12.5q70 0 101.5 10t42.5 39.5t11 91.5v948q0 61 -11 90t-44 40t-100 11q-4 0 -4.5 12.5t4.5 12.5l104 -2q90 -4 147 -4q61 0 152 4l102 2q6 0 6.5 -12.5t-6.5 -12.5q-68 0 -99.5 -11t-42.5 -40.5t-11 -91.5v-938q0 -55 9 -79.5t35.5 -33 t86.5 -8.5h123q145 0 245.5 81t133.5 218q2 6 12 5t10 -7q-18 -193 -18 -319q0 -16 -6.5 -23.5t-24.5 -7.5h-958q-4 0 -4.5 12.5z" />
<glyph unicode="M" horiz-adv-x="1740" d="M57 12.5q0 12.5 6 12.5q84 0 130.5 57t48.5 166l18 880q-37 66 -81 96.5t-101 30.5q-6 0 -6 12.5t6 12.5l88 -2q27 -2 70 -2l96 2q16 2 41 2q27 0 43 -19.5t51 -86.5l451 -879l407 934q12 29 26.5 40t34.5 11q14 0 37 -2t56 -2l110 2q27 2 80 2q4 0 4 -12.5t-4 -12.5 q-98 1 -142 -35q-40 -33 -40 -105v-13l45 -936q4 -63 16.5 -92t43 -39t100.5 -10q4 0 4 -12.5t-4 -12.5q-68 0 -109 2l-147 2l-144 -2q-37 -2 -104 -2q-4 0 -4 12.5t4 12.5q90 0 120.5 20.5t30.5 85.5l-2 35l-41 868l-436 -1020q-4 -8 -16 -8q-10 0 -19 8l-512 1012 l-18 -778v-9q0 -102 42 -157q44 -57 132 -57q6 0 6 -12.5t-6 -12.5q-55 0 -86 2l-113 2l-120 -2q-31 -2 -87 -2q-6 0 -6 12.5z" />
<glyph unicode="N" horiz-adv-x="1499" d="M53 1267.5q0 12.5 4 12.5l82 -2q27 -2 76 -2l131 2q25 2 60 2q16 0 24 -8t25 -33l49 -65l737 -869v725q0 109 -43 167t-123 58q-4 0 -4 12.5t4 12.5l84 -2q66 -4 109 -4q41 0 110 4l90 2q5 0 5 -12.5t-5 -12.5q-82 0 -127 -58t-45 -167v-1059q0 -6 -10 -8t-14 2 l-961 1116v-833q0 -109 43 -166t125 -57q4 0 4 -12.5t-4 -12.5q-55 0 -84 2l-108 2l-121 -2q-33 -2 -94 -2q-6 0 -6 12.5t6 12.5q88 0 136 57t48 166v897q-57 61 -103.5 85.5t-95.5 24.5q-4 0 -4 12.5z" />
<glyph unicode="O" d="M100 639q0 211 106.5 361.5t273.5 226.5t341 76q195 0 342.5 -91.5t226 -241t78.5 -317.5q0 -186 -98 -341.5t-263 -246t-357 -90.5q-191 0 -339.5 89.5t-229.5 242t-81 332.5zM319 713q0 -195 65 -352.5t178.5 -246.5t256.5 -89q123 0 220.5 66.5t153.5 195.5t56 307 q0 188 -62.5 337.5t-178 233.5t-271.5 84q-199 0 -308.5 -142t-109.5 -394z" />
<glyph unicode="P" horiz-adv-x="1126" d="M70 12.5q0 12.5 6 12.5q70 0 100.5 10t41.5 38.5t11 92.5v948q0 61 -11 90t-43 40t-99 11q-6 0 -6 12.5t6 12.5l106 -2q90 -4 146 -4q47 0 114 6q25 2 67 4t99 2q203 0 321 -86t118 -264q0 -129 -67 -219t-170 -135t-212 -45q-57 0 -96 10q-6 0 -6 10q0 6 3 12t7 4 q33 -8 72 -8q106 0 179.5 88t73.5 252q0 162 -75.5 251t-208.5 89q-49 0 -75 -10t-36 -38t-10 -87v-936q0 -65 15.5 -95t59.5 -42t138 -12q6 0 6 -12.5t-6 -12.5q-84 0 -131 2l-178 2l-148 -2q-39 -2 -106 -2q-6 0 -6 12.5z" />
<glyph unicode="Q" d="M100 639q0 211 106.5 361.5t273.5 226.5t341 76q195 0 342.5 -91.5t226 -241t78.5 -317.5q0 -145 -61 -275t-170 -223.5t-248 -140.5q82 -162 214 -267t251 -105q35 0 72 4q6 2 9 -8.5t-1 -12.5q-88 -24 -162 -24h-6q-152 0 -316.5 99t-283.5 275h-16q-190 0 -339 89.5 t-230 242t-81 332.5zM319 713q0 -195 65 -352.5t178.5 -246.5t256.5 -89q123 0 220.5 66.5t153.5 195.5t56 307q0 188 -62.5 337.5t-178 233.5t-271.5 84q-199 0 -308.5 -142t-109.5 -394z" />
<glyph unicode="R" horiz-adv-x="1413" d="M80 12.5q0 12.5 6 12.5q70 0 101.5 10t44 39.5t12.5 91.5v948q0 61 -11.5 90t-44 40t-100.5 11q-4 0 -4 12.5t4 12.5l107 -2q90 -4 145 -4q68 0 147 6q27 2 65 4t85 2q178 0 275.5 -69.5t97.5 -194.5q0 -113 -62.5 -203t-167.5 -143q168 -248 281 -387t200 -201.5 t171 -62.5q6 0 6 -12.5t-6 -12.5h-330q-47 0 -175 164t-311 459q-45 -4 -69 -5q-45 0 -107 5v-457q0 -63 11.5 -92t43 -39t101.5 -10q4 0 4 -12.5t-4 -12.5q-68 0 -104 2l-152 2l-147 -2q-39 -2 -107 -2q-6 0 -6 12.5zM440 678q49 -8 119 -8q133 0 190.5 66.5t57.5 213.5 q0 166 -56.5 231.5t-162.5 65.5q-80 0 -114 -29.5t-34 -107.5v-432z" />
<glyph unicode="S" horiz-adv-x="1038" d="M147 403v3q0 8 10.5 9t12.5 -7q68 -170 155 -279t222 -109q88 0 147.5 48.5t59.5 160.5q0 90 -40 158t-98.5 113t-158.5 110q-98 63 -153.5 107.5t-94.5 109t-39 150.5q0 106 59.5 180t154.5 110t200 36q70 0 139.5 -13.5t116.5 -34.5q31 -12 30 -38l7 -279 q0 -6 -11.5 -8t-13.5 4q-41 125 -109.5 226.5t-205.5 101.5q-92 0 -146.5 -53.5t-54.5 -145.5q0 -76 38 -134.5t94 -101.5t153 -102q104 -66 164.5 -113t102.5 -115.5t42 -160.5q0 -104 -54.5 -186t-153.5 -128.5t-226 -46.5q-86 0 -177.5 22.5t-138.5 55.5q-18 12 -20 39z " />
<glyph unicode="T" horiz-adv-x="1310" d="M80 930q8 80 18.5 206t10.5 189q0 10 11 10t11 -10q0 -45 115 -45q176 -6 411 -6q121 0 256 4l140 2q78 0 113.5 10t45.5 41q2 8 12.5 8t10.5 -8q-6 -63 -12 -192t-6 -209q0 -6 -11.5 -6t-13.5 6q-20 158 -96 232.5t-205 74.5q-57 0 -85 -10t-37 -36t-9 -81v-944 q0 -63 12 -92t49 -39t117 -10q6 0 6 -12.5t-6 -12.5q-72 0 -113 2l-168 2l-159 -2q-43 -2 -119 -2q-4 0 -4 12.5t4 12.5q80 0 118 10t51 39.5t13 91.5v948q0 53 -10 78t-37 35t-82 10q-125 0 -206 -77t-124 -232q0 -4 -11 -4t-11 6z" />
<glyph unicode="U" horiz-adv-x="1435" d="M57 1267.5q0 12.5 6 12.5l107 -2q90 -4 145 -4q61 0 152 4l102 2q6 0 6 -12.5t-6 -12.5q-68 0 -100.5 -12t-43.5 -42t-11 -91v-584q0 -244 101 -363.5t284 -119.5q174 0 272 107.5t98 304.5v575q0 107 -48 166t-138 59q-4 0 -4 12.5t4 12.5l94 -2q78 -4 123 -4 q37 0 111 4l90 2q4 0 4 -12.5t-4 -12.5q-80 0 -124 -59t-44 -166v-573q0 -147 -62.5 -257t-176 -169.5t-263.5 -59.5t-266.5 58.5t-181 168t-64.5 257.5v659q0 61 -12 90t-44 40t-100 11q-6 0 -6 12.5z" />
<glyph unicode="V" horiz-adv-x="1355" d="M0 1267.5q0 12.5 6 12.5l53 -2q45 -4 103 -4q143 0 258 4q33 2 84 2q6 0 6 -12.5t-6 -12.5q-129 0 -129 -90q0 -35 20 -78l381 -815l299 777q18 49 19 88q0 57 -38 87.5t-114 30.5q-6 0 -6 12.5t6 12.5l98 -2q78 -4 144 -4q39 0 96 4l84 2q6 0 6 -12.5t-6 -12.5 q-74 0 -135.5 -55t-100.5 -160l-397 -1038q-2 -8 -22 -8t-23 8l-518 1108q-37 76 -74 110.5t-88 34.5q-6 0 -6 12.5z" />
<glyph unicode="W" horiz-adv-x="1880" d="M0 1267.5q0 12.5 6 12.5l53 -2q45 -4 103 -4q115 0 209 4q29 2 71 2q6 0 6.5 -12.5t-6.5 -12.5q-55 0 -78.5 -11t-23.5 -42q0 -35 37 -115l391 -833l147 381l-223 475q-37 76 -68.5 110.5t-74.5 34.5q-6 0 -6 12.5t6 12.5l49 -2q45 -4 90 -4q96 0 170 4q20 2 53 2 q6 0 6.5 -12.5t-6.5 -12.5q-33 0 -46 -7t-13 -25q0 -33 49 -136l111 -233l73 195q37 96 37 145q0 61 -61 61q-6 0 -6 12.5t6 12.5q18 0 42.5 -3t90.5 -3q37 0 86 4l80 2q4 0 4 -12.5t-4 -12.5q-70 0 -123 -51t-96 -164l-99 -254l252 -532l299 780q20 53 21 101 q0 57 -34 88.5t-95 31.5q-6 0 -6 12.5t6 12.5l90 -2q74 -4 133 -4q41 0 94 4l88 2q4 0 4 -12.5t-4 -12.5q-74 0 -135 -55t-102 -160l-398 -1038q-2 -8 -22 -8t-23 8l-264 565l-215 -565q-2 -8 -22 -8t-23 8l-518 1108q-43 90 -72.5 117.5t-89.5 27.5q-6 0 -6 12.5z" />
<glyph unicode="X" horiz-adv-x="1329" d="M12 12.5q0 12.5 6 12.5q66 0 151 60t175 185l236 320l-330 506q-55 86 -106.5 122.5t-112.5 36.5q-6 0 -6 12.5t6 12.5l84 -2q57 -4 84 -4q70 0 176 4l112 2q4 0 4.5 -12.5t-4.5 -12.5q-41 0 -61 -7t-20 -27q0 -16 18 -47l281 -431l190 271q72 102 72 164q0 77 -108 77 h-3q-4 0 -4 12.5t4 12.5l100 -2q82 -4 148 -4q41 0 94 4l82 2q6 0 6 -12.5t-6 -12.5q-68 0 -154 -62.5t-176 -188.5l-221 -299l348 -535q51 -78 106.5 -111.5t129.5 -33.5q6 0 6 -12.5t-6 -12.5q-57 0 -88 2l-121 2l-166 -2q-37 -2 -104 -2q-6 0 -6.5 12.5t6.5 12.5 q79 0 79 33q0 19 -18 46l-291 447l-205 -291q-69 -99 -69 -156q0 -39 28.5 -59t83.5 -20q4 0 4 -12.5t-4 -12.5q-66 0 -100 2l-147 2l-95 -2q-25 -2 -82 -2q-6 0 -6 12.5z" />
<glyph unicode="Y" horiz-adv-x="1261" d="M0 1267.5q0 12.5 6 12.5l68 -2q45 -4 65 -4q70 0 197 4l127 2q4 0 4 -12.5t-4 -12.5q-84 0 -84 -57q0 -29 24 -65l297 -457l209 342q51 84 52 147q0 90 -113 90q-4 0 -4 12.5t4 12.5l106 -2q86 -4 158 -4q35 0 84 4l76 2q4 0 4 -12.5t-4 -12.5q-68 0 -154 -70.5 t-153 -180.5l-234 -379v-459q0 -63 11.5 -92t43 -39t101.5 -10q6 0 6 -12.5t-6 -12.5q-68 0 -105 2l-149 2l-148 -2q-41 -2 -108 -2q-4 0 -4 12.5t4 12.5q70 0 101.5 10t44 39.5t12.5 91.5v422l-312 475q-70 109 -120 150.5t-97 41.5q-6 0 -6 12.5z" />
<glyph unicode="Z" horiz-adv-x="1232" d="M113 997l82 344q0 2 8 2q20 0 16 -6q-2 -6 -2 -16q0 -25 23.5 -33t95.5 -8h747q10 0 15.5 -10t-0.5 -17l-738 -1198q-8 -10 -6 -13t15 -3h450q119 0 207 73.5t109 188.5q2 6 12 6t10 -6l-29 -285q0 -6 -5 -13t-13 -7q-305 4 -979 4q-10 0 -14 9t2 18l749 1202q6 10 5 13 t-15 3q-274 0 -401 -15.5t-197 -67.5t-123 -171q0 -2 -8 -2q-18 0 -16 8z" />
<glyph unicode="[" horiz-adv-x="561" d="M152 -217v1681q0 14 3 17.5t15 3.5h313q6 0 6 -12.5t-6 -12.5q-70 0 -102.5 -12t-43.5 -42t-11 -91v-1385q0 -61 11 -90.5t44 -42t102 -12.5q6 0 6 -12.5t-6 -12.5h-313q-12 0 -15 4.5t-3 18.5z" />
<glyph unicode="\" horiz-adv-x="712" d="M53 1468q-4 10 41 22.5t49 4.5l516 -1806q2 -8 -43 -20.5t-49 -4.5z" />
<glyph unicode="]" horiz-adv-x="561" d="M72 -227.5q0 12.5 6 12.5q70 0 102.5 12.5t44 42t11.5 90.5v1385q0 61 -11.5 91t-44.5 42t-102 12q-6 0 -6 12.5t6 12.5h313q12 0 15.5 -3t3.5 -18v-1681q0 -14 -3.5 -18.5t-15.5 -4.5h-313q-6 0 -6 12.5z" />
<glyph unicode="^" horiz-adv-x="802" d="M119 778l260 510q2 10 22 10t23 -10l258 -510v-2q0 -4 -8 -8t-10 0l-263 301l-262 -301q-2 -2 -6 -2q-6 0 -11 4t-3 8z" />
<glyph unicode="_" horiz-adv-x="815" d="M59 -111q0 16 2 29.5t7 13.5h677q4 0 7.5 -15t3.5 -32q0 -18 -3 -32.5t-8 -14.5h-675q-4 0 -7.5 16.5t-3.5 34.5z" />
<glyph unicode="`" horiz-adv-x="436" d="M59 1489q-2 8 25 8q39 0 95.5 -11t58.5 -20l77 -491q2 -4 -8 -7t-12 3z" />
<glyph unicode="a" horiz-adv-x="860" d="M92 131q0 55 30 90t76 56.5t136 54.5l198 74v122q0 127 -25.5 185.5t-80.5 58.5q-68 0 -97.5 -50t-35.5 -112q-12 -104 -105 -104q-45 0 -66.5 20.5t-21.5 51.5q0 57 69 111t166 88t171 34q88 0 140 -55.5t52 -165.5v-369q0 -63 20.5 -96t59.5 -33q31 0 74 19h4 q8 0 10 -9.5t-6 -13.5l-211 -100q-8 -4 -18 -4q-31 0 -58.5 35.5t-35.5 95.5l-95 -66q-49 -35 -89 -49t-89 -14q-84 0 -128 40t-44 105zM289 193q0 -49 31.5 -79t76.5 -30q37 0 78 25l57 38v21v203l-122 -52q-53 -20 -87 -47.5t-34 -78.5z" />
<glyph unicode="b" horiz-adv-x="1052" d="M16 1348l285 135l10 2q8 0 18.5 -8.5t10.5 -14.5v-796q68 70 141.5 110.5t165.5 40.5q90 0 167 -43t123 -129t46 -209q0 -147 -62.5 -251.5t-165 -158t-216.5 -53.5q-160 0 -287 95l-174 -80h-4q-8 0 -10.5 7t4.5 11q55 35 80.5 81t25.5 124v1001q0 72 -14.5 104 t-48.5 32q-25 0 -80 -25h-2q-8 0 -12.5 10t-0.5 15zM340 315q0 -106 40 -173.5t98.5 -97.5t113.5 -30q100 0 153.5 90.5t53.5 255.5q0 180 -64.5 271.5t-173.5 91.5q-104 0 -221 -94v-314z" />
<glyph unicode="c" horiz-adv-x="860" d="M68 381q0 129 69.5 226.5t179 149.5t222.5 52q96 0 174 -39t78 -104q0 -35 -27 -60.5t-74 -25.5q-78 0 -112 92q-20 51 -43 72.5t-72 21.5q-96 0 -152.5 -87t-56.5 -233q0 -170 79 -275t247 -105q57 0 102 14t98 45h2q6 0 11.5 -6t1.5 -10q-76 -68 -150 -101t-168 -33 q-133 0 -226 58.5t-138 152t-45 195.5z" />
<glyph unicode="d" horiz-adv-x="1046" d="M68 371q0 152 71.5 252t180 147t217.5 47q90 0 172 -33v428q0 72 -13.5 104t-48.5 32q-23 0 -82 -25h-4q-8 0 -12 10t0 13l289 137l8 2q8 0 18 -8.5t10 -14.5v-1229q0 -72 14.5 -101.5t49.5 -29.5q41 0 92 25h2q6 0 11.5 -10.5t-1.5 -12.5l-262 -127l-12 -2 q-20 0 -37.5 41t-19.5 111q-74 -70 -152 -112t-170 -42q-88 0 -161.5 48.5t-116.5 138.5t-43 211zM252 434q0 -172 67.5 -271.5t172.5 -99.5q59 0 111 27t106 76v2v487q-41 57 -91.5 85t-119.5 28q-117 0 -181.5 -82t-64.5 -252z" />
<glyph unicode="e" horiz-adv-x="849" d="M68 371q0 121 59 221t162.5 158.5t230.5 58.5q123 0 190.5 -59.5t67.5 -176.5q0 -59 -24 -59l-500 -2q-2 -18 -2 -55q0 -180 83 -285.5t236 -105.5q57 0 96.5 13t104.5 48l4 2q4 0 9.5 -8t0.5 -12q-76 -70 -151.5 -102t-163.5 -32q-125 0 -216 55.5t-139 145.5t-48 195z M258 549l328 6q-4 213 -140 213q-75 0 -123.5 -58.5t-64.5 -160.5z" />
<glyph unicode="f" horiz-adv-x="624" d="M45 750q0 16 6 16q76 0 103.5 19.5t29.5 70.5q10 334 125 482.5t344 148.5q113 0 176.5 -32t63.5 -85q0 -41 -27.5 -64.5t-64.5 -23.5q-41 0 -62.5 18.5t-40.5 57.5q-25 43 -50 64.5t-73 21.5q-102 0 -161.5 -133t-59.5 -412v-127q106 2 238 19q6 0 10 -14.5t4 -35.5 q0 -18 -6 -36.5t-14 -16.5q-125 29 -232 31v-553q0 -63 13.5 -92t52.5 -39t123 -10q8 0 8 -12.5t-8 -12.5l-137 2q-45 2 -138 2l-121 -2q-31 -2 -88 -2q-8 0 -8 12.5t8 12.5q55 0 82 11t37 39.5t10 90.5v461q0 68 -26.5 86t-110.5 18q-6 0 -6 19z" />
<glyph unicode="g" horiz-adv-x="919" d="M55 -346q0 145 209 285q-151 29 -151 143q0 65 35.5 118.5t109.5 104.5q-76 35 -118 100.5t-42 139.5q0 80 49.5 139t128 90t168.5 31q131 0 218 -66q55 35 108 52.5t115 17.5q14 0 14 -53q0 -29 -7 -59.5t-15 -24.5q-86 33 -148 33q-18 0 -27 -3q59 -66 60 -155 q0 -78 -49 -141.5t-129 -98.5t-170 -35q-68 0 -123 19q-45 -43 -45 -103q0 -74 60.5 -94t207.5 -22q117 -2 190.5 -12.5t128 -57.5t54.5 -147q0 -113 -72 -212.5t-190.5 -158.5t-253.5 -59q-141 0 -228.5 63t-87.5 166zM217 -252q0 -123 75 -191.5t189 -68.5 q117 0 187.5 68.5t70.5 185.5q0 86 -37.5 125t-100 49t-177.5 10q-57 0 -111 6q-96 -70 -96 -184zM272 602q0 -86 28 -153.5t72 -104.5t91 -37q53 0 88 46t35 141q0 86 -30 148.5t-76 94t-97 31.5q-111 0 -111 -166z" />
<glyph unicode="h" horiz-adv-x="1036" d="M5 1334.5q-5 11.5 1 13.5l285 135l10 2q8 0 17.5 -8.5t9.5 -14.5v-819q147 170 313 170q113 0 175.5 -67.5t62.5 -184.5v-395q0 -84 23.5 -112.5t92.5 -28.5q9 0 9 -12.5t-9 -12.5q-51 0 -82 2l-116 2l-117 -2q-31 -2 -82 -2q-6 0 -6 12.5t6 12.5q68 0 92.5 29.5 t24.5 111.5v305q0 225 -176 225q-55 0 -111.5 -25.5t-99.5 -68.5v-436q0 -84 23.5 -112.5t92.5 -28.5q8 0 8.5 -12.5t-8.5 -12.5q-51 0 -82 2l-116 2l-117 -2q-31 -2 -82 -2q-6 0 -6 12.5t6 12.5q68 0 92.5 29.5t24.5 111.5v1046q0 72 -14.5 104t-47.5 32q-31 0 -84 -25h-2 q-6 0 -11 11.5z" />
<glyph unicode="i" horiz-adv-x="544" d="M47 657.5q-4 10.5 2 14.5l295 137l6 2q8 0 17.5 -9t9.5 -16v-43q-4 -86 -4 -202v-375q0 -84 23.5 -112.5t92.5 -28.5q6 0 6.5 -12.5t-6.5 -12.5q-51 0 -81 2l-119 2l-119 -2q-29 -2 -80 -2q-6 0 -6 12.5t6 12.5q70 0 92.5 28.5t22.5 112.5v373q0 70 -14.5 101.5 t-49.5 31.5q-31 0 -80 -25h-2q-8 0 -12 10.5zM166 1137q0 51 29.5 78.5t83.5 27.5q51 0 79.5 -27.5t28.5 -78.5q0 -53 -27.5 -82t-80.5 -29q-54 0 -83.5 28.5t-29.5 82.5z" />
<glyph unicode="j" horiz-adv-x="534" d="M17.5 -568.5q-5.5 11.5 0.5 13.5q98 43 139.5 137t41.5 273v684q0 72 -13.5 102.5t-46.5 30.5t-82 -25h-2q-8 0 -13 10.5t1 14.5l295 137l6 2q8 0 17.5 -9t9.5 -16v-43q-4 -86 -4 -202v-639q0 -139 -32 -228.5t-104.5 -149t-203.5 -102.5q-4 -2 -9.5 9.5zM156 1137 q0 51 29.5 78.5t82.5 27.5q51 0 80 -27.5t29 -78.5q0 -53 -27.5 -82t-81.5 -29q-53 0 -82.5 28.5t-29.5 82.5z" />
<glyph unicode="k" horiz-adv-x="1005" d="M5 1334.5q-5 11.5 1 13.5l285 135l10 2q8 0 17.5 -8.5t9.5 -14.5v-1048l219 196q57 49 57 97q0 27 -23.5 43t-66.5 16q-6 0 -6 12.5t6 12.5q57 0 90 -3l156 -2l145 2q29 2 78 3q6 0 6 -12.5t-6 -12.5q-84 0 -190.5 -42t-196.5 -122l-88 -76l272 -360q57 -76 112.5 -108.5 t115.5 -32.5q6 0 6 -12.5t-6 -12.5q-51 0 -82 2l-117 2l-154 -2q-35 -2 -94 -2q-4 0 -4 12.5t4 12.5q84 0 84 43q0 18 -16 41l-240 315l-61 -53v-205q0 -84 23.5 -112.5t92.5 -28.5q8 0 8.5 -12.5t-8.5 -12.5q-51 0 -82 2l-116 2l-117 -2q-31 -2 -82 -2q-6 0 -6 12.5t6 12.5 q68 0 92.5 29.5t24.5 111.5v1046q0 72 -14.5 104t-47.5 32q-31 0 -84 -25h-2q-6 0 -11 11.5z" />
<glyph unicode="l" horiz-adv-x="542" d="M35 1333q-4 10 0 15l289 135l8 2q8 0 19 -8.5t11 -14.5v-1296q0 -84 23 -112.5t92 -28.5q6 0 6 -12.5t-6 -12.5q-49 0 -80 2l-121 2l-118 -2q-31 -2 -82 -2q-6 0 -6 12.5t6 12.5q68 0 92.5 29.5t24.5 111.5v1046q0 72 -13.5 104t-48.5 32q-31 0 -82 -25h-2q-8 0 -12 10z " />
<glyph unicode="m" horiz-adv-x="1581" d="M16.5 663.5q-4.5 10.5 1.5 12.5l269 131q12 4 14 4q20 0 42 -46t24 -120q137 168 299 168q94 0 151 -46t72 -134q145 180 311 180q109 0 167 -62.5t58 -189.5v-395q0 -84 24 -112.5t93 -28.5q8 0 8 -12.5t-8 -12.5q-51 0 -82 2l-117 2l-116 -2q-31 -2 -82 -2 q-6 0 -6 12.5t6 12.5q68 0 92.5 29.5t24.5 111.5v305q0 115 -40 170t-122 55q-55 0 -110.5 -26.5t-96.5 -71.5v-20v-412q0 -84 23.5 -112.5t93.5 -28.5q6 0 6 -12.5t-6 -12.5q-51 0 -82 2l-119 2l-117 -2q-31 -2 -82 -2q-6 0 -6 12.5t6 12.5q70 0 93.5 28.5t23.5 112.5v305 q0 115 -40 170t-122 55q-51 0 -104 -24.5t-94 -65.5v-440q0 -84 22.5 -112.5t91.5 -28.5q6 0 6 -12.5t-6 -12.5q-51 0 -80 2l-118 2l-119 -2q-29 -2 -80 -2q-6 0 -6 12.5t6 12.5q70 0 92.5 28.5t22.5 112.5v391q0 66 -15.5 96.5t-50.5 30.5q-31 0 -102 -31h-2 q-8 0 -12.5 10.5z" />
<glyph unicode="n" horiz-adv-x="1071" d="M16.5 663.5q-4.5 10.5 1.5 12.5l269 131q12 4 14 4q20 0 42 -46t24 -120q143 170 311 170q113 0 176.5 -68.5t63.5 -185.5v-395q0 -84 22.5 -112.5t91.5 -28.5q6 0 6 -12.5t-6 -12.5q-51 0 -80 2l-118 2l-117 -2q-31 -2 -82 -2q-6 0 -6 12.5t6 12.5q70 0 92.5 28.5 t22.5 112.5v307q0 115 -42 169t-133 54q-53 0 -108 -24.5t-100 -65.5v-440q0 -84 22.5 -112.5t91.5 -28.5q6 0 6 -12.5t-6 -12.5q-51 0 -80 2l-118 2l-119 -2q-29 -2 -80 -2q-6 0 -6 12.5t6 12.5q70 0 92.5 28.5t22.5 112.5v391q0 66 -15.5 96.5t-50.5 30.5q-31 0 -102 -31 h-2q-8 0 -12.5 10.5z" />
<glyph unicode="o" horiz-adv-x="995" d="M68 406q0 133 66.5 226t170 139t211.5 46q125 0 218 -59.5t142.5 -156.5t49.5 -208q0 -123 -60.5 -219t-163 -148.5t-221.5 -52.5q-123 0 -217 58.5t-145 158t-51 216.5zM262 477q0 -133 36 -238.5t100.5 -165t144.5 -59.5q90 0 138 80t48 234q0 137 -38 239.5 t-102.5 155.5t-139.5 53q-92 0 -139.5 -75.5t-47.5 -223.5z" />
<glyph unicode="p" horiz-adv-x="1048" d="M-6 664.5q-4 9.5 0 13.5l270 129q4 2 12 2q23 0 41.5 -38t22.5 -103q157 149 317 149h2q86 0 160 -45t118 -131t44 -201q0 -162 -68.5 -266t-171 -152.5t-209.5 -48.5q-98 0 -190 31v-401q0 -61 14.5 -90t53.5 -40.5t122 -11.5q4 0 4.5 -12t-4.5 -12q-74 0 -114 2l-160 2 l-117 -2q-31 -2 -84 -2q-6 0 -6 12t6 12q51 0 76 11.5t34 40t9 90.5v952q0 68 -15.5 98.5t-51.5 30.5q-35 0 -99 -29h-4q-8 0 -12 9.5zM342 133q49 -53 103.5 -81.5t132.5 -28.5q102 0 161.5 89t59.5 265q0 162 -74 250t-184 88q-105 0 -199 -88v-4v-490z" />
<glyph unicode="q" horiz-adv-x="1017" d="M68 352q0 152 65.5 257.5t170 156.5t218.5 51q162 0 287 -80l156 58l4 2q6 0 8 -10.5t-4 -12.5q-51 -27 -76 -66.5t-25 -103.5v-1001q0 -61 9.5 -90t35 -40.5t76.5 -11.5q6 0 6 -12t-6 -12q-51 0 -82 2l-120 2l-138 -2q-39 -2 -106 -2q-4 0 -4 12t4 12q70 0 103.5 11.5 t46 40t12.5 90.5v522q-70 -70 -142.5 -111t-165.5 -41q-90 0 -165.5 44t-121.5 129t-46 206zM254 428q0 -178 62.5 -269t170.5 -91q107 0 222 96v379q0 113 -73 173t-163 60q-109 0 -164 -88t-55 -260z" />
<glyph unicode="r" horiz-adv-x="765" d="M16.5 663.5q-4.5 10.5 1.5 12.5l269 131q12 4 14 4q20 0 40.5 -44t25.5 -116q80 90 133 125t96 35q47 0 90 -30.5t43 -73.5q0 -39 -23.5 -64t-64.5 -25q-27 0 -44 11.5t-36 32.5q-18 18 -32.5 27t-34.5 9q-23 0 -48.5 -17t-78.5 -73v-442q0 -57 16 -87t55 -42t115 -12 q8 0 8 -12.5t-8 -12.5q-68 0 -109 2l-161 2l-119 -2q-29 -2 -80 -2q-6 0 -6 12.5t6 12.5q70 0 92.5 28.5t22.5 112.5v391q0 66 -15.5 96.5t-50.5 30.5q-31 0 -102 -31h-2q-8 0 -12.5 10.5z" />
<glyph unicode="s" horiz-adv-x="690" d="M90 248q0 6 11.5 7t13.5 -3q35 -102 105.5 -168t150.5 -66q51 0 79.5 27t28.5 80q0 78 -45 124t-131 91q-70 37 -108.5 62.5t-66.5 69.5t-28 110q0 117 85 174t206 57q80 0 164 -31q18 -8 18 -22q0 -47 -2 -74l-2 -98q0 -6 -12 -6t-12 6q0 41 -33 85t-84 72.5t-104 28.5 q-94 0 -95 -90q0 -63 44 -106t128 -91q74 -41 114 -67.5t69.5 -71.5t29.5 -108q0 -70 -34.5 -129.5t-103 -96.5t-163.5 -37q-113 0 -207 58q-12 12 -12 24z" />
<glyph unicode="t" horiz-adv-x="690" d="M57 750q0 6 3 11t6 5q193 8 241 166q4 8 17.5 8t13.5 -8v-162q96 2 272 21q4 0 9.5 -15.5t5.5 -34.5q0 -18 -7.5 -36.5t-15.5 -16.5q-115 27 -264 33v-496q0 -80 40 -117.5t111 -37.5q86 0 162 59l4 2q6 0 11.5 -8t-0.5 -12q-76 -72 -143.5 -104t-143.5 -32 q-88 0 -148.5 42t-60.5 141v463q0 68 -21.5 90t-82.5 22q-2 0 -5.5 5t-3.5 12z" />
<glyph unicode="u" horiz-adv-x="1026" d="M18.5 672q-4.5 10 1.5 14l261 121l8 2q8 0 18 -8t10 -15v-464q0 -115 42 -171.5t128 -56.5q51 0 105.5 24.5t97.5 67.5v353q0 72 -15.5 105.5t-47.5 33.5q-18 0 -58 -16h-2q-8 0 -12 11t4 13l258 121q4 2 10 2q8 0 18.5 -8t10.5 -15v-555q0 -72 14.5 -100.5t47.5 -28.5 q25 0 92 25l4 2q6 0 10 -10t-2 -15l-268 -129l-9 -2q-20 0 -36.5 46.5t-18.5 123.5q-143 -166 -303 -166q-111 0 -172 69t-61 187v306q0 139 -64 139q-20 0 -57 -16h-2q-8 0 -12.5 10z" />
<glyph unicode="v" horiz-adv-x="897" d="M-24.5 778.5q-0.5 12.5 6.5 12.5q37 0 59 -3l119 -2l151 2q33 2 90 3q6 0 6.5 -12.5t-6.5 -12.5q-120 0 -120 -46q0 -13 10 -34l235 -465l156 377q14 35 14 68q0 49 -35.5 74.5t-105.5 25.5q-4 0 -4 12.5t4 12.5q55 0 84 -3l123 -2l80 2q23 2 71 3q5 0 5 -12.5t-5 -12.5 q-57 0 -99 -41t-81 -131l-254 -594q-4 -10 -20 -10q-18 0 -25 10l-303 621q-43 90 -73.5 117.5t-75.5 27.5q-6 0 -6.5 12.5z" />
<glyph unicode="w" horiz-adv-x="1392" d="M-24.5 778.5q-0.5 12.5 6.5 12.5q37 0 59 -3l119 -2l139 2q31 2 84 3q6 0 6 -12.5t-6 -12.5q-109 0 -109 -47q0 -12 11 -33l241 -461l136 324l-35 72q-45 90 -70 117.5t-63 27.5q-4 0 -4.5 12.5t4.5 12.5q35 0 57 -3l106 -2l142 2q31 2 82 3q4 0 4 -12.5t-4 -12.5 q-47 0 -75 -12.5t-28 -36.5q0 -10 10 -31l236 -463l154 375q16 43 16 70q0 47 -37 72.5t-104 25.5q-6 0 -6 12.5t6 12.5q55 0 82 -3l122 -2l82 2q20 2 70 3q6 0 6 -12.5t-6 -12.5q-55 0 -97 -41t-81 -131l-254 -592q0 -8 -21 -8q-23 0 -24 8l-242 492l-211 -492q0 -8 -20 -8 q-18 0 -25 8l-303 619q-45 88 -75.5 116.5t-73.5 28.5q-6 0 -6.5 12.5z" />
<glyph unicode="x" horiz-adv-x="901" d="M8 12.5q0 12.5 6 12.5q59 0 128 47t130 131l109 149l-178 269q-45 70 -90 107.5t-82 37.5q-4 0 -4 12.5t4 12.5q43 0 63 -3l64 -2l137 2q33 2 90 3q4 0 4 -12.5t-4 -12.5q-53 0 -53 -29q0 -20 22 -51l127 -192l72 108q47 70 47 107q0 57 -100 57q-4 0 -4 12.5t4 12.5 q55 0 84 -3l123 -2l81 2q20 2 70 3q6 0 6 -12.5t-6 -12.5q-59 0 -127.5 -47t-130.5 -131l-96 -129l192 -289q49 -74 100.5 -109.5t90.5 -35.5q6 0 6 -12.5t-6 -12.5l-72 2q-25 2 -72 2l-141 -2q-31 -2 -86 -2q-6 0 -6 12.5t6 12.5q53 0 53 28q0 16 -22 51l-141 213l-89 -129 q-45 -63 -45 -106q0 -57 99 -57q6 0 6 -12.5t-6 -12.5q-55 0 -82 2l-123 2l-82 -2q-20 -2 -70 -2q-6 0 -6 12.5z" />
<glyph unicode="y" horiz-adv-x="880" d="M-78 -481q0 41 25.5 62.5t62.5 21.5q25 0 42.5 -7.5t35.5 -19.5q20 -12 35.5 -18.5t38.5 -6.5q47 0 87 38t84 126t105 250l-323 656q-45 88 -71 116.5t-62 28.5q-6 0 -6.5 12.5t6.5 12.5q53 0 81 -3l80 -2l140 2q31 2 84 3q6 0 6 -12.5t-6 -12.5q-55 0 -81 -9t-26 -34 q0 -18 10 -37l250 -516l137 397q18 53 19 90q0 109 -137 109q-4 0 -4 12.5t4 12.5q55 0 84 -3l122 -2l80 2q23 2 72 3q4 0 4 -12.5t-4 -12.5q-61 0 -105 -49t-81 -150l-236 -624q-74 -197 -141.5 -309.5t-137 -160.5t-153.5 -48q-57 0 -89 23.5t-32 70.5z" />
<glyph unicode="z" horiz-adv-x="829" d="M72 561l82 303q0 2 8 2q16 0 14 -8q-4 -16 -4 -22q0 -27 24.5 -36t79.5 -9h459q8 0 14.5 -8.5t2.5 -16.5l-473 -717q-6 -14 10 -14q154 0 245 20.5t140 68.5t71 134q2 6 13.5 6t11.5 -6l-4 -235q0 -8 -6 -15.5t-15 -7.5h-657q-8 0 -13 8t-1 17l469 723q8 14 -11 14 q-190 0 -295.5 -48t-142.5 -159q0 -2 -8 -2q-16 0 -14 8z" />
<glyph unicode="{" horiz-adv-x="591" d="M59 623.5q0 13.5 7 13.5q80 12 106.5 133t26.5 313q0 176 25.5 259t89 113t198.5 30q8 0 8 -12.5t-8 -12.5q-59 0 -92 -56t-35 -161q-4 -250 -17.5 -352.5t-59.5 -160.5t-158 -105q113 -49 158.5 -109.5t59 -163t17.5 -350.5q2 -104 35 -160.5t92 -56.5q8 0 8 -12.5 t-8 -12.5q-135 0 -199.5 30t-89 114t-24.5 260q0 195 -27 314.5t-106 131.5q-7 0 -7 13.5z" />
<glyph unicode="|" horiz-adv-x="344" d="M129 -315v1812q0 14 47 14q45 0 45 -14v-1812q0 -8 -13 -12.5t-32 -4.5q-18 0 -32.5 4t-14.5 13z" />
<glyph unicode="}" horiz-adv-x="579" d="M59.5 -227.5q-0.5 12.5 8.5 12.5q59 0 92 56.5t35 160.5q4 248 17 350.5t59 162.5t159 110q-113 47 -159 105t-59 160.5t-17 352.5q-2 104 -35 160.5t-92 56.5q-8 0 -8.5 12.5t8.5 12.5q135 0 198.5 -30t89 -112.5t25.5 -259.5q0 -193 26.5 -313.5t106.5 -132.5 q6 0 6 -13.5t-6 -13.5q-80 -12 -106.5 -132t-26.5 -314q0 -176 -24.5 -260t-89 -114t-199.5 -30q-8 0 -8.5 12.5z" />
<glyph unicode="~" horiz-adv-x="907" d="M98 305q125 193 246 193q27 0 61.5 -10.5t67.5 -22.5q51 -20 90 -30.5t80 -10.5q57 0 89 20.5t65 57.5l4 2q4 0 8 -6t2 -11q-76 -115 -125 -153.5t-106 -38.5q-35 0 -65 8t-87 27q-94 39 -164 39q-47 0 -72.5 -13.5t-47 -35t-31.5 -29.5h-2q-4 0 -9.5 5t-3.5 9z" />
<glyph unicode="&#xa1;" horiz-adv-x="528" d="M137 -539q41 166 62.5 361.5t40.5 474.5l2 41q0 4 9 7t19 3t18.5 -3t8.5 -7q14 -287 33.5 -495t60.5 -382q4 -10 -38 -17t-89 -7q-45 0 -88 7t-39 17zM166 635q0 53 28.5 83t81.5 30q52 0 82.5 -31t30.5 -82q0 -49 -30.5 -78t-82.5 -29q-53 0 -81.5 29t-28.5 78z" />
<glyph unicode="&#xa2;" horiz-adv-x="1091" d="M66 483q0 129 64.5 236.5t177 176.5t253.5 83v170q0 8 8.5 12t20.5 4q10 0 18 -4t8 -12v-166h17q76 0 165 -16.5t146 -42.5q14 -6 18.5 -13.5t4.5 -21.5l14 -211q0 -6 -11.5 -8t-13.5 6q-61 131 -145 196.5t-195 69.5v-926q12 -2 35 -2q113 0 190 65.5t136 207.5 q2 8 12 6t10 -8l-20 -217q-2 -16 -6 -22.5t-23 -14.5q-158 -55 -327 -56h-7v-184q0 -14 -26 -14q-29 0 -29 14v186q-174 14 -284.5 93.5t-160.5 190t-50 222.5zM276 514q0 -174 73 -313.5t212 -175.5v915q-133 -16 -209 -132t-76 -294z" />
<glyph unicode="&#xa3;" horiz-adv-x="884" d="M33 11.5q0 11.5 6 13.5q104 25 142 72.5t38 119.5q0 119 -37 225h-88q-6 0 -10 9.5t-4 19.5t4 18.5t10 8.5h70q-16 51 -25.5 91t-9.5 85q0 158 107.5 233.5t269.5 75.5q96 0 182 -29q31 -12 33 -39l14 -210q0 -8 -10 -9q-8 0 -14 9q-51 117 -105.5 179t-138.5 62 t-122 -58.5t-38 -144.5q0 -53 10.5 -101t22.5 -89t16 -55h205q14 0 14 -27q0 -29 -14 -29h-188q18 -82 18 -139q0 -76 -25.5 -124t-70.5 -85h219q90 0 134 12.5t66.5 46t39.5 107.5q0 4 12 3t12 -5q-18 -106 -18 -227q0 -16 -7.5 -23.5t-23.5 -7.5h-690q-6 0 -6 11.5z" />
<glyph unicode="&#xa4;" horiz-adv-x="847" d="M96 696l70 64l104 -113q76 39 162 39t152 -41l104 109l57 -58l-100 -102q70 -76 70 -182q0 -102 -68 -176l101 -101l-70 -67l-100 112q-82 -47 -177 -47q-82 0 -143 39l-92 -104l-60 59l91 94q-35 39 -53.5 89t-18.5 104q0 111 74 180zM260 457q0 -109 47 -194t133 -85 q62 0 97.5 50.5t35.5 140.5q0 111 -51 191.5t-137 80.5q-57 0 -91 -47t-34 -137z" />
<glyph unicode="&#xa5;" horiz-adv-x="1007" d="M0 946q0 12 6 12l76 -2l74 -4q59 0 182 4l119 2q4 0 4 -12t-4 -12q-96 0 -97 -47q0 -25 23 -60l201 -309l131 234q33 59 33 100q0 39 -26 60.5t-73 21.5q-6 0 -6 12t6 12l94 -2q74 -4 140 -4q29 0 65 4l51 2q7 0 7 -12t-7 -12q-125 0 -233 -184l-158 -279v-35h195 q14 0 14 -24q0 -25 -14 -25h-580q-6 0 -10 7t-4 18q0 10 4 17t10 7h201v2l-227 350q-51 78 -95.5 112t-95.5 34q-6 0 -6 12zM209 274q0 10 4 17.5t10 7.5h580q14 0 14 -25q0 -27 -14 -26h-195v-82q0 -63 11.5 -92t43 -39t105.5 -10q4 0 4 -12.5t-4 -12.5q-68 0 -104 2 l-150 2l-141 -2q-41 -2 -111 -2q-6 0 -6 12.5t6 12.5q70 0 103.5 10t46 39.5t12.5 91.5v82h-201q-6 0 -10 8t-4 18z" />
<glyph unicode="&#xa6;" horiz-adv-x="344" d="M129 -315v757q0 8 14.5 12.5t32.5 4.5t31.5 -4t13.5 -13v-757q0 -8 -13 -12.5t-32 -4.5q-18 0 -32.5 4t-14.5 13zM129 737v760q0 14 47 14q45 0 45 -14v-760q0 -6 -13 -10t-32 -4q-18 0 -32.5 4t-14.5 10z" />
<glyph unicode="&#xa7;" horiz-adv-x="966" d="M162 453q0 72 31.5 132t117.5 134q-82 82 -82 184q0 129 98.5 198.5t235.5 69.5q106 0 178 -38q23 -10 23 -33l16 -228q0 -6 -11 -6t-13 6q-31 82 -101.5 167t-160.5 85q-51 0 -83 -34.5t-32 -106.5q0 -68 29.5 -120t74.5 -89t119 -86q84 -55 133 -97t84 -105.5 t35 -151.5q0 -72 -31.5 -132.5t-117.5 -133.5q83 -85 83 -185q0 -131 -98 -199.5t-235 -68.5q-104 0 -179 37q-23 14 -22 35l-16 227q0 4 11 4t13 -4q31 -82 101.5 -167t160.5 -85q51 0 83 35t32 106q0 68 -29.5 119t-73.5 88t-120 86q-82 55 -133.5 97.5t-86 107 t-34.5 152.5zM297 543q0 -92 37 -160t90 -112t139 -99q90 -61 115 -82q41 59 41 154q0 92 -37 158.5t-89 109.5t-138 100q-98 70 -117 84q-41 -59 -41 -153z" />
<glyph unicode="&#xa8;" horiz-adv-x="659" d="M49 1063q0 47 27.5 72.5t77.5 25.5q47 0 72.5 -25.5t25.5 -72.5q0 -49 -25.5 -75.5t-72.5 -26.5q-50 0 -77.5 26.5t-27.5 75.5zM408 1063q0 45 27.5 71.5t74.5 26.5t73.5 -25.5t26.5 -72.5q0 -49 -26.5 -75.5t-73.5 -26.5t-74.5 26.5t-27.5 75.5z" />
<glyph unicode="&#xa9;" horiz-adv-x="1482" d="M137 385q0 184 98.5 330.5t259 228.5t339.5 82q158 0 278.5 -65.5t186 -174t65.5 -235.5q0 -123 -68.5 -231.5t-189.5 -174t-270 -65.5q-129 0 -213 46t-122 118.5t-38 154.5q0 106 52 184.5t134 120t172 41.5q82 0 146.5 -30.5t64.5 -85.5q0 -37 -19.5 -57.5 t-58.5 -20.5q-29 0 -48 17.5t-36 49.5q-25 41 -47 61.5t-65 20.5q-74 0 -101.5 -57t-27.5 -178q0 -143 73.5 -236.5t227.5 -93.5q82 0 154.5 42t116.5 122t44 188q0 135 -62.5 248t-172 178.5t-244.5 65.5q-156 0 -267.5 -72.5t-170 -196.5t-58.5 -274q0 -180 76 -311 t206 -200.5t290 -69.5q109 0 197.5 21.5t187.5 78.5h4q6 0 10 -6t-2 -8q-115 -88 -227.5 -122t-239.5 -34q-166 0 -311.5 70.5t-234.5 207t-89 322.5z" />
<glyph unicode="&#xaa;" horiz-adv-x="583" d="M59 827q0 35 21.5 59.5t77.5 43.5l196 69v103q0 94 -20.5 122.5t-59.5 28.5q-31 0 -52 -29.5t-25 -74.5q-6 -31 -20.5 -49.5t-49.5 -18.5q-31 0 -49.5 16.5t-18.5 45.5q0 35 46.5 68.5t112 56t112.5 22.5q61 0 99 -36.5t38 -110.5v-240q0 -47 8 -67.5t29 -20.5 q10 0 55 19h2q8 0 11 -7.5t-1 -11.5l-139 -65q-12 -4 -16 -5q-20 0 -38 21.5t-22 58.5l-69 -37q-43 -25 -71 -32.5t-58 -7.5q-45 0 -72 22.5t-27 56.5zM68 618q0 10 3 20.5t5 10.5h461q4 0 7 -10t3 -23q0 -12 -3 -23t-7 -11h-459q-4 0 -7 11t-3 25zM190 866q0 -27 15.5 -43 t40.5 -16q23 0 47 10l61 33v8v119l-106 -43q-31 -12 -44.5 -27.5t-13.5 -40.5z" />
<glyph unicode="&#xab;" horiz-adv-x="960" d="M104 412q0 14 9 22l376 305q0 2 5 2q4 0 8 -5t2 -7l-209 -317l209 -318q2 -4 -5 -11t-10 -1l-376 305q-8 8 -9 25zM440 412q0 10 9 22l378 305q0 2 4 2t8.5 -5t2.5 -7l-211 -317l211 -318q2 -4 -5.5 -11t-9.5 -1l-378 305q-8 12 -9 25z" />
<glyph unicode="&#xac;" horiz-adv-x="808" d="M59 512q0 14 3.5 27.5t5.5 13.5h677v-395q0 -4 -15 -7.5t-34 -3.5q-16 0 -29.5 2.5t-13.5 6.5v307h-583q-4 0 -7.5 15.5t-3.5 33.5z" />
<glyph unicode="&#xad;" horiz-adv-x="661" d="M55 381q0 45 6 45l535 96q4 2 7 -14t3 -35q0 -18 -3 -34.5t-7 -18.5l-530 -96q-5 -2 -8 17t-3 40z" />
<glyph unicode="&#xae;" horiz-adv-x="1521" d="M137 864q0 182 93.5 324.5t249 219.5t333.5 77q176 0 309 -74t207 -202t74 -285q0 -176 -88 -323.5t-237.5 -232.5t-329.5 -85q-154 0 -295.5 71.5t-228.5 203.5t-87 306zM252 932q0 -176 78 -311.5t208 -209t281 -73.5q223 0 344 143.5t121 376.5q0 174 -69.5 305 t-193.5 202t-284 71q-162 0 -270.5 -69t-161.5 -182.5t-53 -252.5zM479 570.5q0 11.5 2 11.5q37 0 52.5 6t20.5 24.5t5 61.5v440q0 57 -13.5 73.5t-64.5 16.5q-2 0 -2 12.5t2 12.5l146 -2q25 0 90 4q57 4 78 4q102 0 151 -34t49 -105q0 -117 -114 -174q82 -168 138 -242 t132 -105q4 0 4 -8t-4 -8h-188q-18 0 -64.5 82t-126.5 248q-43 -6 -88 -6v-209q0 -43 6 -61.5t24.5 -24.5t61.5 -6q4 0 4 -11.5t-4 -11.5l-149 2l-146 -2q-2 0 -2 11.5zM684 915q16 -2 45 -2q74 0 104.5 32t30.5 108q0 156 -102 155q-33 0 -48.5 -5t-22.5 -25.5t-7 -67.5 v-195z" />
<glyph unicode="&#xaf;" horiz-adv-x="706" d="M80 1012q0 14 4 24.5t12 10.5h514q8 0 13.5 -10.5t5.5 -24.5t-5.5 -24.5t-13.5 -10.5h-514q-8 0 -12 11t-4 24z" />
<glyph unicode="&#xb0;" horiz-adv-x="679" d="M59 1030q0 109 79 184.5t204 75.5t202 -75.5t77 -188.5t-77 -187.5t-202 -74.5t-204 75.5t-79 190.5zM205 1036q0 -117 33.5 -181t117.5 -64q76 0 98.5 54t22.5 167q0 127 -35.5 189.5t-111.5 62.5q-72 0 -98.5 -58.5t-26.5 -169.5z" />
<glyph unicode="&#xb1;" horiz-adv-x="815" d="M59 47q0 14 2 26.5t7 12.5h677q5 0 8 -13.5t3 -27.5q0 -16 -3 -29.5t-8 -13.5h-675q-4 0 -7.5 14.5t-3.5 30.5zM59 520q0 16 2 29.5t7 13.5h292v293q0 8 48 8q47 0 47 -8v-293h290q4 0 7.5 -14t3.5 -31q0 -18 -3 -32.5t-8 -14.5h-290v-291q0 -4 -16.5 -7t-35.5 -3 q-16 0 -29.5 2t-13.5 6v293h-290q-4 0 -7.5 15.5t-3.5 33.5z" />
<glyph unicode="&#xb2;" horiz-adv-x="516" d="M49 829.5q-2 4.5 0 8.5q21 80 55.5 138t88.5 124q55 70 79.5 115t24.5 108q0 119 -90 119q-45 0 -80 -31t-49 -78q0 -4 -8 -4q-6 0 -11.5 3t-3.5 7q23 72 70 114t133 42t130 -42t44 -107q0 -66 -41 -118t-121 -122q-59 -49 -93 -86t-48 -78q0 -8 6 -8q131 0 190.5 6 t82 24.5t26.5 61.5q0 4 11.5 4t11.5 -4l-4 -190q0 -4 -2 -7.5t-7 -3.5h-389q-4 0 -6 4.5z" />
<glyph unicode="&#xb3;" horiz-adv-x="514" d="M45 952q-2 8 10.5 11.5t14.5 -5.5q18 -43 54 -70.5t85 -27.5t82 34t33 112q0 72 -39 110.5t-115 38.5q-8 0 -7 12.5t7 12.5q61 0 94 40t33 101q0 57 -24.5 86t-67.5 29q-45 0 -80 -32t-43 -73q-4 -4 -10 -4t-11.5 3t-3.5 7q18 72 67.5 114t133.5 42t130 -42t46 -108 q0 -55 -36 -101t-91 -66q70 -15 112 -55t42 -103q0 -80 -59.5 -143.5t-163.5 -63.5q-150 0 -193 141z" />
<glyph unicode="&#xb4;" horiz-adv-x="434" d="M119 975l80 491q4 8 60 19.5t93 11.5q25 0 23 -8l-234 -518q0 -4 -8 -4q-6 0 -11 3t-3 5z" />
<glyph unicode="&#xb6;" horiz-adv-x="1333" d="M111 791q0 242 153.5 368.5t423.5 126.5q59 0 131 -6q154 -6 172 -6q41 0 119 4l107 2q6 0 6 -12.5t-6 -12.5q-88 0 -135.5 -43t-47.5 -122l2 -977q0 -264 -77.5 -386t-249.5 -122q-78 0 -123 29.5t-45 80.5q0 39 22.5 62.5t67.5 23.5q49 0 66.5 -23.5t25.5 -66.5 q8 -35 17.5 -50t33.5 -15q47 0 64.5 79.5t17.5 290.5v240q-49 -6 -115 -6q-160 0 -303 53t-235 174t-92 314z" />
<glyph unicode="&#xb7;" horiz-adv-x="399" d="M86 412q0 49 30.5 77.5t82.5 28.5q53 0 81.5 -28.5t28.5 -77.5q0 -53 -28.5 -83t-81.5 -30q-52 0 -82.5 30.5t-30.5 82.5z" />
<glyph unicode="&#xb8;" horiz-adv-x="475" d="M41 -471q0 29 21.5 51.5t52.5 22.5q35 0 49 -15.5t26 -44.5q12 -31 25.5 -45t46.5 -14q53 0 53 57q0 53 -37.5 96.5t-134.5 96.5q-10 4 -15 10t-5 14q0 12 8 35q29 68 59 156q8 18 19 49l33 -2q-15 -57 -15 -82q0 -35 19.5 -58.5t64.5 -50.5q53 -33 83 -68.5t30 -90.5 q0 -82 -59.5 -145.5t-178.5 -63.5q-145 0 -145 92z" />
<glyph unicode="&#xb9;" horiz-adv-x="536" d="M57.5 1360q-4.5 10 1.5 12l265 119q2 2 6 2q6 0 10 -5t4 -11v-486q0 -70 7 -97.5t33 -35.5t87 -8q4 0 4 -12.5t-4 -12.5l-80 2q-70 4 -108 4q-43 0 -117 -4l-84 -2q-4 0 -4 12.5t4 12.5q66 0 92.5 9t34.5 37t8 95v242q0 90 -7 120.5t-36 30.5q-27 0 -102 -34h-2 q-8 0 -12.5 10z" />
<glyph unicode="&#xba;" horiz-adv-x="659" d="M59 1020q0 88 43 148.5t108.5 91t133.5 30.5q78 0 136.5 -39t90 -102.5t31.5 -134.5q0 -76 -39 -140.5t-103.5 -101.5t-140.5 -37q-116 0 -188 83t-72 202zM72 618q0 10 3 20.5t5 10.5h498q4 0 7 -10t3 -23q0 -12 -3 -23t-7 -11h-496q-4 0 -7 11t-3 25zM188 1059 q0 -119 46.5 -206t115.5 -87q58 0 90.5 56.5t32.5 154.5q0 119 -47 199.5t-121 80.5q-55 0 -86 -52t-31 -146z" />
<glyph unicode="&#xbb;" horiz-adv-x="960" d="M119 94l211 316l-211 319q-2 4 5 10t9 0l377 -305q10 -10 10 -22q0 -14 -10 -25l-377 -305q0 -2 -4 -2t-8 5t-2 9zM455 94l209 316l-209 319q-2 4 5 10t9 0l379 -305q8 -8 8 -22q0 -16 -8 -25l-379 -305q0 -2 -4 -2t-8 5t-2 9z" />
<glyph unicode="&#xbc;" horiz-adv-x="1239" d="M57.5 1166.5q-4.5 9.5 1.5 11.5l265 120h4q6 0 11 -5t5 -9v-487q0 -70 7 -97.5t33 -36t87 -8.5q4 0 4 -11t-4 -11q-51 0 -80 2l-108 2l-117 -2q-31 -2 -84 -2q-4 0 -4 11t4 11q66 0 92.5 9.5t34.5 37t8 95.5v243q0 90 -7 121t-36 31q-27 0 -102 -35h-4q-6 0 -10.5 9.5z M324 27l571 1261q4 6 33.5 -6t27.5 -18l-573 -1266q-2 -6 -31.5 9.5t-27.5 19.5zM717 200q-4 7 2 11l334 446q6 8 26 9q10 0 19.5 -3.5t9.5 -7.5v-424l82 5q6 0 6 -27q0 -29 -6 -29l-82 4v-100q0 -29 4 -40t20.5 -16t57.5 -5q2 -4 2 -12.5t-2 -12.5l-137 2l-172 -2 q-2 0 -2 12.5t2 12.5q49 0 69.5 4t27.5 16t7 41v104q-143 4 -258 5q-6 0 -10 7zM793 229q-6 -6 4 -6l188 2v279z" />
<glyph unicode="&#xbd;" horiz-adv-x="1251" d="M57.5 1166.5q-4.5 9.5 1.5 11.5l265 120h4q6 0 11 -5t5 -9v-487q0 -70 7 -97.5t33 -36t87 -8.5q4 0 4 -11t-4 -11q-51 0 -80 2l-108 2l-117 -2q-31 -2 -84 -2q-4 0 -4 11t4 11q66 0 92.5 9.5t34.5 37t8 95.5v243q0 90 -7 121t-36 31q-27 0 -102 -35h-4q-6 0 -10.5 9.5z M324 27l571 1261q4 6 33.5 -6t27.5 -18l-573 -1266q-2 -6 -31.5 9.5t-27.5 19.5zM784 12q21 80 55.5 138.5t88.5 123.5q53 66 78.5 113t25.5 111q0 117 -90 116q-45 0 -80 -29.5t-49 -76.5q0 -6 -8 -6q-6 0 -11.5 3t-2.5 7q23 72 69.5 114t132.5 42t130 -41t44 -107 t-41 -118t-120 -121q-61 -53 -94 -89t-48 -77q0 -6 6 -6q131 0 189.5 6t82 25.5t27.5 60.5q0 4 11.5 4t11.5 -4l-4 -191q0 -10 -8 -10h-389q-8 0 -7 12z" />
<glyph unicode="&#xbe;" horiz-adv-x="1216" d="M45 760q-2 8 10.5 10t14.5 -6q18 -43 54 -69.5t85 -26.5t82 33.5t33 109.5q0 74 -39 113t-115 39q-8 0 -7 12t7 12q61 0 94 40t33 101q0 55 -24.5 85t-67.5 30q-45 0 -80 -31.5t-43 -72.5q-2 -6 -10 -6q-6 0 -11.5 3t-3.5 7q18 72 67.5 113.5t133.5 41.5t130 -42t46 -107 q0 -55 -36 -100t-91 -66q70 -14 112 -54t42 -104q0 -80 -59.5 -143.5t-163.5 -63.5q-150 0 -193 142zM301 27l571 1261q5 6 34.5 -6t27.5 -18l-574 -1266q-2 -6 -31.5 9.5t-27.5 19.5zM694.5 200q-4.5 7 1.5 11l334 446q6 8 27 9q10 0 19 -3.5t9 -7.5v-424l82 5q6 0 7 -27 q0 -29 -7 -29l-82 4v-100q0 -29 4.5 -40t20.5 -16t57 -5q2 -4 2 -12.5t-2 -12.5l-137 2l-172 -2q-2 0 -2 12.5t2 12.5q49 0 69.5 4t28 16t7.5 41v104q-143 4 -258 5q-6 0 -10.5 7zM770 229q-6 -6 4 -6l189 2v279z" />
<glyph unicode="&#xbf;" horiz-adv-x="669" d="M31 -319q0 78 36.5 129t110.5 116l37 31q66 59 95.5 118.5t29.5 133.5q0 41 -12 110q-2 6 13 9.5t17 -2.5q25 -55 39.5 -126t14.5 -120q0 -63 -21.5 -103t-64.5 -92q-47 -55 -72 -103t-25 -126q0 -82 29 -133t78 -51q37 0 50 23.5t17 64.5q6 53 27 89t78 36 q47 0 69.5 -27t22.5 -61q0 -66 -77 -113t-189 -47q-129 0 -216 63.5t-87 180.5zM250 627q0 53 28.5 82.5t81.5 29.5q52 0 82.5 -30.5t30.5 -81.5q0 -49 -30.5 -78t-82.5 -29q-53 0 -81.5 29t-28.5 78z" />
<glyph unicode="&#xc0;" horiz-adv-x="1456" d="M-14 12.5q0 12.5 10 12.5q57 0 96 22.5t76 80.5t88 173l440 991q4 6 19 6q14 0 16 -6l502 -1011q72 -147 120 -201.5t103 -54.5q10 0 10 -12.5t-10 -12.5q-39 0 -125 4t-125 4q-51 0 -121 -4t-108 -4q-8 0 -8 12.5t8 12.5q59 0 87 13t28 44t-35 104l-156 316h-495 l-99 -221q-27 -61 -26 -111q0 -72 51 -108.5t143 -36.5q10 0 10 -12.5t-10 -12.5q-37 0 -106 4q-78 4 -136 4q-55 0 -129 -4q-66 -4 -108 -4q-10 0 -10 12.5zM428 553h449l-236 477zM465 1548q-21 4 21 24.5t96.5 37t64.5 8.5q61 -45 92 -70q125 -94 191 -137q4 -2 4 -8 t-4 -10t-8 -2q-231 102 -457 157z" />
<glyph unicode="&#xc1;" horiz-adv-x="1456" d="M-14 12.5q0 12.5 10 12.5q57 0 96 22.5t76 80.5t88 173l440 991q4 6 19 6q14 0 16 -6l502 -1011q72 -147 120 -201.5t103 -54.5q10 0 10 -12.5t-10 -12.5q-39 0 -125 4t-125 4q-51 0 -121 -4t-108 -4q-8 0 -8 12.5t8 12.5q59 0 87 13t28 44t-35 104l-156 316h-495 l-99 -221q-27 -61 -26 -111q0 -72 51 -108.5t143 -36.5q10 0 10 -12.5t-10 -12.5q-37 0 -106 4q-78 4 -136 4q-55 0 -129 -4q-66 -4 -108 -4q-10 0 -10 12.5zM428 553h449l-236 477zM505 1398q-3 9 3 13q68 43 192 137q29 25 91 70q10 8 65 -8.5t97 -37t20 -24.5 q-242 -61 -455 -159h-2q-8 0 -11 9z" />
<glyph unicode="&#xc2;" horiz-adv-x="1456" d="M-14 12.5q0 12.5 10 12.5q57 0 96 22.5t76 80.5t88 173l440 991q4 6 19 6q14 0 16 -6l502 -1011q72 -147 120 -201.5t103 -54.5q10 0 10 -12.5t-10 -12.5q-39 0 -125 4t-125 4q-51 0 -121 -4t-108 -4q-8 0 -8 12.5t8 12.5q59 0 87 13t28 44t-35 104l-156 316h-495 l-99 -221q-27 -61 -26 -111q0 -72 51 -108.5t143 -36.5q10 0 10 -12.5t-10 -12.5q-37 0 -106 4q-78 4 -136 4q-55 0 -129 -4q-66 -4 -108 -4q-10 0 -10 12.5zM428 553h449l-236 477zM481 1341l211 226q10 10 25 10q12 0 22 -10l209 -226q2 0 2 -4t-5 -8t-7 -2l-221 92 l-223 -92q-5 -2 -11 5t-2 9z" />
<glyph unicode="&#xc3;" horiz-adv-x="1456" d="M-14 12.5q0 12.5 10 12.5q57 0 96 22.5t76 80.5t88 173l440 991q4 6 19 6q14 0 16 -6l502 -1011q72 -147 120 -201.5t103 -54.5q10 0 10 -12.5t-10 -12.5q-39 0 -125 4t-125 4q-51 0 -121 -4t-108 -4q-8 0 -8 12.5t8 12.5q59 0 87 13t28 44t-35 104l-156 316h-495 l-99 -221q-27 -61 -26 -111q0 -72 51 -108.5t143 -36.5q10 0 10 -12.5t-10 -12.5q-37 0 -106 4q-78 4 -136 4q-55 0 -129 -4q-66 -4 -108 -4q-10 0 -10 12.5zM428 553h449l-236 477zM444 1473q90 154 177 153q23 0 100 -20q100 -31 151 -31q33 0 55.5 13.5t47.5 41.5l4 2 q4 0 8 -6t2 -10q-53 -90 -88 -121t-80 -31q-41 0 -116 23q-35 10 -73 18t-71 8q-39 0 -55.5 -11t-46.5 -44h-2q-6 0 -11.5 5t-1.5 10z" />
<glyph unicode="&#xc4;" horiz-adv-x="1456" d="M-14 12.5q0 12.5 10 12.5q57 0 96 22.5t76 80.5t88 173l440 991q4 6 19 6q14 0 16 -6l502 -1011q72 -147 120 -201.5t103 -54.5q10 0 10 -12.5t-10 -12.5q-39 0 -125 4t-125 4q-51 0 -121 -4t-108 -4q-8 0 -8 12.5t8 12.5q59 0 87 13t28 44t-35 104l-156 316h-495 l-99 -221q-27 -61 -26 -111q0 -72 51 -108.5t143 -36.5q10 0 10 -12.5t-10 -12.5q-37 0 -106 4q-78 4 -136 4q-55 0 -129 -4q-66 -4 -108 -4q-10 0 -10 12.5zM428 553h449l-236 477zM436 1552q0 47 28 73t77 26q47 0 72.5 -26t25.5 -73q0 -49 -25.5 -75.5t-72.5 -26.5 q-49 0 -77 26.5t-28 75.5zM795 1552q0 45 27.5 72t74.5 27t73.5 -26t26.5 -73q0 -49 -26.5 -75.5t-73.5 -26.5t-74.5 26.5t-27.5 75.5z" />
<glyph unicode="&#xc5;" horiz-adv-x="1456" d="M-14 12.5q0 12.5 10 12.5q57 0 96 22.5t76 80.5t88 173l440 991q4 6 19 6q14 0 16 -6l502 -1011q72 -147 120 -201.5t103 -54.5q10 0 10 -12.5t-10 -12.5q-39 0 -125 4t-125 4q-51 0 -121 -4t-108 -4q-8 0 -8 12.5t8 12.5q59 0 87 13t28 44t-35 104l-156 316h-495 l-99 -221q-27 -61 -26 -111q0 -72 51 -108.5t143 -36.5q10 0 10 -12.5t-10 -12.5q-37 0 -106 4q-78 4 -136 4q-55 0 -129 -4q-66 -4 -108 -4q-10 0 -10 12.5zM428 553h449l-236 477zM496 1518q0 74 69.5 115.5t155.5 41.5q84 0 144.5 -47t60.5 -115q0 -72 -67.5 -115.5 t-156.5 -43.5q-94 0 -150 48t-56 116zM627 1559q0 -70 28.5 -124.5t77.5 -54.5q61 0 62 97q0 70 -34 121t-81 51q-53 0 -53 -90z" />
<glyph unicode="&#xc6;" horiz-adv-x="1808" d="M-18 12.5q0 12.5 10 12.5q78 0 151.5 58t159.5 187l600 906q27 37 27 51q0 18 -34 23t-124 5q-6 0 -6 12.5t6 12.5h856q20 0 21 -18l4 -267q0 -4 -11.5 -6t-13.5 4q-10 53 -48 107.5t-96.5 90.5t-123.5 36h-94q-74 0 -103.5 -25.5t-29.5 -89.5v-420h190q223 0 223 152 q0 6 12.5 6t12.5 -6l-2 -178q0 -63 2 -97l2 -106q0 -4 -11.5 -4t-11.5 4q0 86 -58 131t-173 45h-186v-465q0 -68 25.5 -94.5t90.5 -26.5h109q109 0 206 78t128 188q0 5 6 5t11 -3.5t5 -5.5q-18 -174 -18 -284q0 -16 -7.5 -23.5t-23.5 -7.5h-877q-4 0 -4 12.5t4 12.5 q70 0 102 10t44 39.5t12 91.5v473h-323l-238 -365q-55 -88 -55 -147q0 -49 39 -75.5t114 -26.5q10 0 10.5 -12.5t-10.5 -12.5q-43 0 -121 4q-90 4 -155 4q-51 0 -117 -4q-61 -4 -98 -4q-10 0 -10 12.5zM657 692h289v445z" />
<glyph unicode="&#xc7;" horiz-adv-x="1398" d="M100 637q0 193 100.5 344.5t274.5 236.5t389 85q227 0 367 -64q16 -8 20 -15t9 -32l24 -270q0 -6 -10 -8.5t-14 6.5q-53 168 -159 256t-261 88q-150 0 -267.5 -75t-183 -215t-65.5 -327q0 -184 69.5 -328.5t190.5 -224.5t272 -80q150 0 249 79t175 251q2 6 12.5 4 t10.5 -6l-27 -246q-2 -25 -7 -31t-22 -14q-184 -76 -391 -76h-10q-8 -31 -8 -59q0 -37 19.5 -61.5t64.5 -49.5q53 -33 82.5 -68.5t29.5 -90.5q0 -82 -59.5 -145.5t-177.5 -63.5q-145 0 -146 92q0 29 21.5 51.5t52.5 22.5q35 0 49 -15.5t27 -44.5q12 -31 25.5 -45t45.5 -14 q53 0 54 57q0 53 -38 96.5t-134 96.5q-10 4 -15.5 10t-5.5 14q0 12 8 35q33 80 70 182q-207 8 -368.5 94.5t-252 234t-90.5 333.5z" />
<glyph unicode="&#xc8;" horiz-adv-x="1120" d="M80 12.5q0 12.5 6 12.5q70 0 101.5 10t43 39.5t11.5 91.5v948q0 61 -11.5 90t-44 40t-100.5 11q-6 0 -6 12.5t6 12.5h852q20 0 20 -18l5 -267q0 -4 -11.5 -6t-13.5 4q-49 233 -285 234h-82q-74 0 -104.5 -26.5t-30.5 -90.5v-418h197q225 0 225 152q0 6 11.5 6t11.5 -6 l-2 -178l2 -97q4 -66 4 -106q0 -4 -12.5 -4t-12.5 4q0 176 -229 176h-195v-465q0 -68 25.5 -94.5t91.5 -26.5h100q274 0 348 266q1 5 9 5q6 0 11 -3.5t5 -5.5q-20 -156 -20 -284q0 -16 -6.5 -23.5t-24.5 -7.5h-889q-6 0 -6 12.5zM354 1548q-20 4 22 24.5t96 37t65 8.5 q61 -45 92 -70q125 -94 190 -137q4 -2 4 -8t-4 -10t-8 -2q-231 102 -457 157z" />
<glyph unicode="&#xc9;" horiz-adv-x="1120" d="M80 12.5q0 12.5 6 12.5q70 0 101.5 10t43 39.5t11.5 91.5v948q0 61 -11.5 90t-44 40t-100.5 11q-6 0 -6 12.5t6 12.5h852q20 0 20 -18l5 -267q0 -4 -11.5 -6t-13.5 4q-49 233 -285 234h-82q-74 0 -104.5 -26.5t-30.5 -90.5v-418h197q225 0 225 152q0 6 11.5 6t11.5 -6 l-2 -178l2 -97q4 -66 4 -106q0 -4 -12.5 -4t-12.5 4q0 176 -229 176h-195v-465q0 -68 25.5 -94.5t91.5 -26.5h100q274 0 348 266q1 5 9 5q6 0 11 -3.5t5 -5.5q-20 -156 -20 -284q0 -16 -6.5 -23.5t-24.5 -7.5h-889q-6 0 -6 12.5zM393 1398q-2 9 4 13q66 39 181 129 q94 72 102 78q10 8 65.5 -8.5t97.5 -37t19 -24.5q-127 -31 -232.5 -68.5t-221.5 -88.5l-5 -2q-8 0 -10 9z" />
<glyph unicode="&#xca;" horiz-adv-x="1120" d="M80 12.5q0 12.5 6 12.5q70 0 101.5 10t43 39.5t11.5 91.5v948q0 61 -11.5 90t-44 40t-100.5 11q-6 0 -6 12.5t6 12.5h852q20 0 20 -18l5 -267q0 -4 -11.5 -6t-13.5 4q-49 233 -285 234h-82q-74 0 -104.5 -26.5t-30.5 -90.5v-418h197q225 0 225 152q0 6 11.5 6t11.5 -6 l-2 -178l2 -97q4 -66 4 -106q0 -4 -12.5 -4t-12.5 4q0 176 -229 176h-195v-465q0 -68 25.5 -94.5t91.5 -26.5h100q274 0 348 266q1 5 9 5q6 0 11 -3.5t5 -5.5q-20 -156 -20 -284q0 -16 -6.5 -23.5t-24.5 -7.5h-889q-6 0 -6 12.5zM373 1432l211 225q10 10 24 10q12 0 23 -10 l209 -225q2 0 2 -5q0 -4 -5.5 -8t-7.5 -2l-221 92l-223 -92q-4 -2 -10 5.5t-2 9.5z" />
<glyph unicode="&#xcb;" horiz-adv-x="1120" d="M80 12.5q0 12.5 6 12.5q70 0 101.5 10t43 39.5t11.5 91.5v948q0 61 -11.5 90t-44 40t-100.5 11q-6 0 -6 12.5t6 12.5h852q20 0 20 -18l5 -267q0 -4 -11.5 -6t-13.5 4q-49 233 -285 234h-82q-74 0 -104.5 -26.5t-30.5 -90.5v-418h197q225 0 225 152q0 6 11.5 6t11.5 -6 l-2 -178l2 -97q4 -66 4 -106q0 -4 -12.5 -4t-12.5 4q0 176 -229 176h-195v-465q0 -68 25.5 -94.5t91.5 -26.5h100q274 0 348 266q1 5 9 5q6 0 11 -3.5t5 -5.5q-20 -156 -20 -284q0 -16 -6.5 -23.5t-24.5 -7.5h-889q-6 0 -6 12.5zM326 1552q0 47 27.5 73t76.5 26 q47 0 72.5 -26t25.5 -73q0 -49 -25.5 -75.5t-72.5 -26.5q-49 0 -76.5 26.5t-27.5 75.5zM684 1552q0 45 27.5 72t74.5 27t74 -26t27 -73q0 -49 -26.5 -75.5t-74.5 -26.5q-47 0 -74.5 26.5t-27.5 75.5z" />
<glyph unicode="&#xcc;" horiz-adv-x="694" d="M84 12.5q0 12.5 6 12.5q70 0 101.5 10t44 39.5t12.5 91.5v948q0 61 -12.5 90t-44 40t-101.5 11q-6 0 -6 12.5t6 12.5l107 -2q90 -4 147 -4q63 0 154 4l102 2q6 0 6 -12.5t-6 -12.5q-68 0 -99.5 -12t-43 -42t-11.5 -91v-944q0 -64 10.5 -92.5t42 -38.5t101.5 -10 q6 0 6 -12.5t-6 -12.5q-66 0 -104 2l-152 2l-147 -2q-39 -2 -107 -2q-6 0 -6 12.5zM94 1548q-20 4 22 24.5t96 37t64 8.5q61 -45 93 -70q125 -94 190 -137q4 -2 4 -8t-4 -10t-8 -2q-232 102 -457 157z" />
<glyph unicode="&#xcd;" horiz-adv-x="694" d="M84 12.5q0 12.5 6 12.5q70 0 101.5 10t44 39.5t12.5 91.5v948q0 61 -12.5 90t-44 40t-101.5 11q-6 0 -6 12.5t6 12.5l107 -2q90 -4 147 -4q63 0 154 4l102 2q6 0 6 -12.5t-6 -12.5q-68 0 -99.5 -12t-43 -42t-11.5 -91v-944q0 -64 10.5 -92.5t42 -38.5t101.5 -10 q6 0 6 -12.5t-6 -12.5q-66 0 -104 2l-152 2l-147 -2q-39 -2 -107 -2q-6 0 -6 12.5zM133 1398q-2 9 4 13q66 39 180 129q94 72 103 78q10 8 65.5 -8.5t97.5 -37t19 -24.5q-127 -31 -232.5 -68.5t-222.5 -88.5l-4 -2q-8 0 -10 9z" />
<glyph unicode="&#xce;" horiz-adv-x="694" d="M84 12.5q0 12.5 6 12.5q70 0 101.5 10t44 39.5t12.5 91.5v948q0 61 -12.5 90t-44 40t-101.5 11q-6 0 -6 12.5t6 12.5l107 -2q90 -4 147 -4q63 0 154 4l102 2q6 0 6 -12.5t-6 -12.5q-68 0 -99.5 -12t-43 -42t-11.5 -91v-944q0 -64 10.5 -92.5t42 -38.5t101.5 -10 q6 0 6 -12.5t-6 -12.5q-66 0 -104 2l-152 2l-147 -2q-39 -2 -107 -2q-6 0 -6 12.5zM113 1432l211 225q10 10 24 10q12 0 23 -10l209 -225q2 0 2 -5q0 -4 -5.5 -8t-7.5 -2l-221 92l-223 -92q-4 -2 -10 5.5t-2 9.5z" />
<glyph unicode="&#xcf;" horiz-adv-x="694" d="M84 12.5q0 12.5 6 12.5q70 0 101.5 10t44 39.5t12.5 91.5v948q0 61 -12.5 90t-44 40t-101.5 11q-6 0 -6 12.5t6 12.5l107 -2q90 -4 147 -4q63 0 154 4l102 2q6 0 6 -12.5t-6 -12.5q-68 0 -99.5 -12t-43 -42t-11.5 -91v-944q0 -64 10.5 -92.5t42 -38.5t101.5 -10 q6 0 6 -12.5t-6 -12.5q-66 0 -104 2l-152 2l-147 -2q-39 -2 -107 -2q-6 0 -6 12.5zM90 1552q0 47 27.5 73t77.5 26q47 0 73.5 -27t26.5 -72q0 -49 -26.5 -75.5t-73.5 -26.5q-50 0 -77.5 26.5t-27.5 75.5zM397 1552q0 45 28 72t75 27t72.5 -26t25.5 -73q0 -49 -25.5 -75.5 t-72.5 -26.5t-75 26.5t-28 75.5z" />
<glyph unicode="&#xd0;" horiz-adv-x="1433" d="M61.5 12.5q-0.5 12.5 4.5 12.5q70 0 101.5 10t43.5 39.5t12 91.5v444h-114q-8 0 -9 27q0 27 9 27h114v450q0 61 -11 90t-44 40t-100 11q-4 0 -4.5 12.5t4.5 12.5l108 -2q90 -4 143 -4q82 0 166 6q102 4 138 4q208 0 370 -82t251 -223t89 -317q0 -199 -92 -351.5 t-247.5 -235.5t-342.5 -83q-63 0 -147 6q-31 2 -78 4t-107 2l-145 -2q-39 -2 -108 -2q-4 0 -4.5 12.5zM420 188q0 -84 43 -119.5t168 -35.5q141 0 250.5 67.5t171 199.5t61.5 316q0 176 -58.5 318.5t-165 225.5t-247.5 83q-86 0 -133 -10t-68.5 -38t-21.5 -85v-446h278 q8 0 9 -27q0 -27 -9 -27h-278v-422z" />
<glyph unicode="&#xd1;" horiz-adv-x="1499" d="M53 1267.5q0 12.5 4 12.5l82 -2q27 -2 76 -2l131 2q25 2 60 2q16 0 24 -8t25 -33l49 -65l737 -869v725q0 109 -43 167t-123 58q-4 0 -4 12.5t4 12.5l84 -2q66 -4 109 -4q41 0 110 4l90 2q5 0 5 -12.5t-5 -12.5q-82 0 -127 -58t-45 -167v-1059q0 -6 -10 -8t-14 2 l-961 1116v-833q0 -109 43 -166t125 -57q4 0 4 -12.5t-4 -12.5q-55 0 -84 2l-108 2l-121 -2q-33 -2 -94 -2q-6 0 -6 12.5t6 12.5q88 0 136 57t48 166v897q-57 61 -103.5 85.5t-95.5 24.5q-4 0 -4 12.5zM514 1442q88 154 178 153q23 0 96 -20q94 -29 154 -29q35 0 56.5 12.5 t45.5 43.5h3q6 0 11 -5.5t1 -9.5q-53 -92 -88 -122.5t-78 -30.5q-33 0 -71 10t-48 12q-35 10 -71.5 18.5t-69.5 8.5q-35 0 -52.5 -9.5t-31.5 -24.5t-21 -22h-2q-6 0 -11 5.5t-1 9.5z" />
<glyph unicode="&#xd2;" d="M100 639q0 211 106.5 361.5t273.5 226.5t341 76q195 0 342.5 -91.5t226 -241t78.5 -317.5q0 -186 -98 -341.5t-263 -246t-357 -90.5q-191 0 -339.5 89.5t-229.5 242t-81 332.5zM319 713q0 -195 65 -352.5t178.5 -246.5t256.5 -89q123 0 220.5 66.5t153.5 195.5t56 307 q0 188 -62.5 337.5t-178 233.5t-271.5 84q-199 0 -308.5 -142t-109.5 -394zM541 1548q-20 4 21.5 24.5t96 37t64.5 8.5q61 -45 92 -70q125 -94 191 -137q4 -2 4 -8t-4.5 -10t-8.5 -2q-231 102 -456 157z" />
<glyph unicode="&#xd3;" d="M100 639q0 211 106.5 361.5t273.5 226.5t341 76q195 0 342.5 -91.5t226 -241t78.5 -317.5q0 -186 -98 -341.5t-263 -246t-357 -90.5q-191 0 -339.5 89.5t-229.5 242t-81 332.5zM319 713q0 -195 65 -352.5t178.5 -246.5t256.5 -89q123 0 220.5 66.5t153.5 195.5t56 307 q0 188 -62.5 337.5t-178 233.5t-271.5 84q-199 0 -308.5 -142t-109.5 -394zM580 1398q-2 9 4 13q66 39 180 129q94 72 102 78q10 8 65.5 -8.5t97.5 -37t20 -24.5q-127 -31 -232.5 -68.5t-222.5 -88.5l-4 -2q-8 0 -10 9z" />
<glyph unicode="&#xd4;" d="M100 639q0 211 106.5 361.5t273.5 226.5t341 76q195 0 342.5 -91.5t226 -241t78.5 -317.5q0 -186 -98 -341.5t-263 -246t-357 -90.5q-191 0 -339.5 89.5t-229.5 242t-81 332.5zM319 713q0 -195 65 -352.5t178.5 -246.5t256.5 -89q123 0 220.5 66.5t153.5 195.5t56 307 q0 188 -62.5 337.5t-178 233.5t-271.5 84q-199 0 -308.5 -142t-109.5 -394zM559 1432l211 225q10 10 25 10q12 0 22 -10l209 -225q2 0 2 -5q0 -4 -5 -8t-7 -2l-221 92l-224 -92q-4 -2 -10 5.5t-2 9.5z" />
<glyph unicode="&#xd5;" d="M100 639q0 211 106.5 361.5t273.5 226.5t341 76q195 0 342.5 -91.5t226 -241t78.5 -317.5q0 -186 -98 -341.5t-263 -246t-357 -90.5q-191 0 -339.5 89.5t-229.5 242t-81 332.5zM319 713q0 -195 65 -352.5t178.5 -246.5t256.5 -89q123 0 220.5 66.5t153.5 195.5t56 307 q0 188 -62.5 337.5t-178 233.5t-271.5 84q-199 0 -308.5 -142t-109.5 -394zM528 1442q88 154 179 153q23 0 96 -20q94 -29 153 -29q35 0 56.5 12.5t46.5 43.5h2q6 0 11 -5.5t1 -9.5q-53 -92 -88 -122.5t-78 -30.5q-33 0 -70.5 10t-48.5 12q-35 10 -71.5 18.5t-69.5 8.5 q-35 0 -52 -9.5t-31.5 -24.5t-20.5 -22h-2q-6 0 -11.5 5.5t-1.5 9.5z" />
<glyph unicode="&#xd6;" d="M100 639q0 211 106.5 361.5t273.5 226.5t341 76q195 0 342.5 -91.5t226 -241t78.5 -317.5q0 -186 -98 -341.5t-263 -246t-357 -90.5q-191 0 -339.5 89.5t-229.5 242t-81 332.5zM319 713q0 -195 65 -352.5t178.5 -246.5t256.5 -89q123 0 220.5 66.5t153.5 195.5t56 307 q0 188 -62.5 337.5t-178 233.5t-271.5 84q-199 0 -308.5 -142t-109.5 -394zM512 1552q0 47 27.5 73t76.5 26q47 0 73 -26t26 -73q0 -49 -25.5 -75.5t-73.5 -26.5q-49 0 -76.5 26.5t-27.5 75.5zM870 1552q0 45 28 72t75 27t73.5 -26t26.5 -73q0 -49 -26.5 -75.5t-73.5 -26.5 t-75 26.5t-28 75.5z" />
<glyph unicode="&#xd7;" horiz-adv-x="804" d="M127 180l209 209l-205 205q-6 6 25.5 40t38.5 30l208 -207l203 202q8 6 42 -27.5t26 -37.5l-205 -205l205 -205q8 -6 -26 -40.5t-40 -26.5l-205 205l-204 -207q-8 -6 -42 26.5t-30 38.5z" />
<glyph unicode="&#xd8;" horiz-adv-x="1603" d="M100 639q0 211 106.5 361.5t273.5 226.5t341 76q127 0 236.5 -41t193.5 -115l146 147h2q10 0 26.5 -14t10.5 -20l-148 -150q86 -92 133 -211t47 -246q0 -186 -98 -341.5t-263 -246t-357 -90.5q-252 0 -428 154l-144 -145l-2 -2q-10 0 -25.5 16t-9.5 22l144 146 q-90 90 -137.5 213t-47.5 260zM319 713q1 -238 95 -416l721 733q-68 104 -169.5 161.5t-228.5 57.5q-199 0 -308.5 -142t-109.5 -394zM440 250q68 -106 166.5 -165.5t212.5 -59.5q123 0 220.5 66.5t153.5 195.5t56 307q0 223 -86 389z" />
<glyph unicode="&#xd9;" horiz-adv-x="1435" d="M57 1267.5q0 12.5 6 12.5l107 -2q90 -4 145 -4q61 0 152 4l102 2q6 0 6 -12.5t-6 -12.5q-68 0 -100.5 -12t-43.5 -42t-11 -91v-584q0 -244 101 -363.5t284 -119.5q174 0 272 107.5t98 304.5v575q0 107 -48 166t-138 59q-4 0 -4 12.5t4 12.5l94 -2q78 -4 123 -4 q37 0 111 4l90 2q4 0 4 -12.5t-4 -12.5q-80 0 -124 -59t-44 -166v-573q0 -147 -62.5 -257t-176 -169.5t-263.5 -59.5t-266.5 58.5t-181 168t-64.5 257.5v659q0 61 -12 90t-44 40t-100 11q-6 0 -6 12.5zM512 1548q-20 4 21.5 24.5t96 37t64.5 8.5q61 -45 92 -70 q125 -94 191 -137q4 -2 4 -8t-4 -10t-8 -2q-232 102 -457 157z" />
<glyph unicode="&#xda;" horiz-adv-x="1435" d="M57 1267.5q0 12.5 6 12.5l107 -2q90 -4 145 -4q61 0 152 4l102 2q6 0 6 -12.5t-6 -12.5q-68 0 -100.5 -12t-43.5 -42t-11 -91v-584q0 -244 101 -363.5t284 -119.5q174 0 272 107.5t98 304.5v575q0 107 -48 166t-138 59q-4 0 -4 12.5t4 12.5l94 -2q78 -4 123 -4 q37 0 111 4l90 2q4 0 4 -12.5t-4 -12.5q-80 0 -124 -59t-44 -166v-573q0 -147 -62.5 -257t-176 -169.5t-263.5 -59.5t-266.5 58.5t-181 168t-64.5 257.5v659q0 61 -12 90t-44 40t-100 11q-6 0 -6 12.5zM551 1398q-2 9 4 13q66 39 180 129q94 72 103 78q10 8 65 -8.5t97 -37 t20 -24.5q-127 -31 -232.5 -68.5t-222.5 -88.5l-4 -2q-8 0 -10 9z" />
<glyph unicode="&#xdb;" horiz-adv-x="1435" d="M57 1267.5q0 12.5 6 12.5l107 -2q90 -4 145 -4q61 0 152 4l102 2q6 0 6 -12.5t-6 -12.5q-68 0 -100.5 -12t-43.5 -42t-11 -91v-584q0 -244 101 -363.5t284 -119.5q174 0 272 107.5t98 304.5v575q0 107 -48 166t-138 59q-4 0 -4 12.5t4 12.5l94 -2q78 -4 123 -4 q37 0 111 4l90 2q4 0 4 -12.5t-4 -12.5q-80 0 -124 -59t-44 -166v-573q0 -147 -62.5 -257t-176 -169.5t-263.5 -59.5t-266.5 58.5t-181 168t-64.5 257.5v659q0 61 -12 90t-44 40t-100 11q-6 0 -6 12.5zM530 1432l211 225q10 10 25 10q12 0 22 -10l209 -225q2 0 2 -5 q0 -4 -5 -8t-7 -2l-221 92l-223 -92q-4 -2 -10.5 5.5t-2.5 9.5z" />
<glyph unicode="&#xdc;" horiz-adv-x="1435" d="M57 1267.5q0 12.5 6 12.5l107 -2q90 -4 145 -4q61 0 152 4l102 2q6 0 6 -12.5t-6 -12.5q-68 0 -100.5 -12t-43.5 -42t-11 -91v-584q0 -244 101 -363.5t284 -119.5q174 0 272 107.5t98 304.5v575q0 107 -48 166t-138 59q-4 0 -4 12.5t4 12.5l94 -2q78 -4 123 -4 q37 0 111 4l90 2q4 0 4 -12.5t-4 -12.5q-80 0 -124 -59t-44 -166v-573q0 -147 -62.5 -257t-176 -169.5t-263.5 -59.5t-266.5 58.5t-181 168t-64.5 257.5v659q0 61 -12 90t-44 40t-100 11q-6 0 -6 12.5zM483 1552q0 47 28 73t77 26q47 0 72.5 -26t25.5 -73q0 -49 -25.5 -75.5 t-72.5 -26.5q-49 0 -77 26.5t-28 75.5zM842 1552q0 45 27.5 72t74.5 27t73.5 -26t26.5 -73q0 -49 -26.5 -75.5t-73.5 -26.5t-74.5 26.5t-27.5 75.5z" />
<glyph unicode="&#xdd;" horiz-adv-x="1261" d="M0 1267.5q0 12.5 6 12.5l68 -2q45 -4 65 -4q70 0 197 4l127 2q4 0 4 -12.5t-4 -12.5q-84 0 -84 -57q0 -29 24 -65l297 -457l209 342q51 84 52 147q0 90 -113 90q-4 0 -4 12.5t4 12.5l106 -2q86 -4 158 -4q35 0 84 4l76 2q4 0 4 -12.5t-4 -12.5q-68 0 -154 -70.5 t-153 -180.5l-234 -379v-459q0 -63 11.5 -92t43 -39t101.5 -10q6 0 6 -12.5t-6 -12.5q-68 0 -105 2l-149 2l-148 -2q-41 -2 -108 -2q-4 0 -4 12.5t4 12.5q70 0 101.5 10t44 39.5t12.5 91.5v422l-312 475q-70 109 -120 150.5t-97 41.5q-6 0 -6 12.5zM446.5 1398 q-2.5 9 4.5 13q66 39 180 129q94 72 102 78q10 8 65.5 -8.5t97.5 -37t19 -24.5q-127 -31 -232 -68.5t-222 -88.5l-4 -2q-8 0 -10.5 9z" />
<glyph unicode="&#xde;" horiz-adv-x="1116" d="M80 12.5q0 12.5 6 12.5q61 0 90 10t39 39.5t10 91.5v948q0 61 -10 90t-40 40t-89 11q-6 0 -6 12.5t6 12.5l100 -2q86 -4 138 -4q66 0 176 4l133 2q4 0 4 -12.5t-4 -12.5q-94 0 -138 -12t-59.5 -43t-15.5 -96v-94q102 12 186 12q201 0 322 -82t121 -262 q0 -133 -65.5 -224.5t-166 -136.5t-205.5 -45q-49 0 -100 11q-6 0 -6 10q0 6 3 12t7 4q49 -8 74 -8q102 0 171.5 89t69.5 257q0 164 -74.5 250t-201.5 86q-72 0 -135 -12v-797q0 -66 15.5 -95.5t59.5 -41.5t138 -12q4 0 4 -12.5t-4 -12.5q-86 0 -133 2l-176 2l-138 -2 q-37 -2 -100 -2q-6 0 -6 12.5z" />
<glyph unicode="&#xdf;" horiz-adv-x="1136" d="M37 754q0 4 3 9t5 5q63 0 90 11.5t34 39t13 99.5q16 287 127 428t336 141q135 0 211 -54.5t76 -144.5q0 -72 -37 -122t-107 -111q-61 -55 -90.5 -93t-29.5 -90q0 -63 47 -124.5t141 -149.5q109 -104 164 -178t55 -160q0 -70 -41 -135.5t-114.5 -106.5t-169.5 -41 q-93 0 -149 40t-56 108q0 39 24.5 63.5t67.5 24.5t62.5 -25.5t35.5 -74.5q16 -47 32.5 -70t53.5 -23q49 0 76 38t27 94q0 80 -46.5 143t-136.5 145q-92 90 -137 152.5t-45 142.5q0 53 20.5 98.5t63.5 106.5q49 74 74.5 132t25.5 134q0 98 -43 172t-131 74q-221 0 -221 -539 v-747q0 -61 8.5 -91t33 -40t77.5 -10q6 0 6 -12.5t-6 -12.5l-201 2l-215 -2q-6 0 -6 12.5t6 12.5q55 0 82 11t37 39.5t10 90.5l-2 469q0 45 -10 66.5t-38 28.5t-85 7q-2 0 -5 5.5t-3 11.5z" />
<glyph unicode="&#xe0;" horiz-adv-x="860" d="M92 131q0 55 30 90t76 56.5t136 54.5l198 74v122q0 127 -25.5 185.5t-80.5 58.5q-68 0 -97.5 -50t-35.5 -112q-12 -104 -105 -104q-45 0 -66.5 20.5t-21.5 51.5q0 57 69 111t166 88t171 34q88 0 140 -55.5t52 -165.5v-369q0 -63 20.5 -96t59.5 -33q31 0 74 19h4 q8 0 10 -9.5t-6 -13.5l-211 -100q-8 -4 -18 -4q-31 0 -58.5 35.5t-35.5 95.5l-95 -66q-49 -35 -89 -49t-89 -14q-84 0 -128 40t-44 105zM213 1489q-2 8 25 8q39 0 95 -11t58 -20l78 -491q2 -4 -8 -7t-12 3zM289 193q0 -49 31.5 -79t76.5 -30q37 0 78 25l57 38v21v203 l-122 -52q-53 -20 -87 -47.5t-34 -78.5z" />
<glyph unicode="&#xe1;" horiz-adv-x="860" d="M92 131q0 55 30 90t76 56.5t136 54.5l198 74v122q0 127 -25.5 185.5t-80.5 58.5q-68 0 -97.5 -50t-35.5 -112q-12 -104 -105 -104q-45 0 -66.5 20.5t-21.5 51.5q0 57 69 111t166 88t171 34q88 0 140 -55.5t52 -165.5v-369q0 -63 20.5 -96t59.5 -33q31 0 74 19h4 q8 0 10 -9.5t-6 -13.5l-211 -100q-8 -4 -18 -4q-31 0 -58.5 35.5t-35.5 95.5l-95 -66q-49 -35 -89 -49t-89 -14q-84 0 -128 40t-44 105zM289 193q0 -49 31.5 -79t76.5 -30q37 0 78 25l57 38v21v203l-122 -52q-53 -20 -87 -47.5t-34 -78.5zM410 975l79 491q4 8 60.5 19.5 t93.5 11.5q25 0 23 -8l-234 -518q0 -4 -8 -4q-6 0 -11 3t-3 5z" />
<glyph unicode="&#xe2;" horiz-adv-x="860" d="M92 131q0 55 30 90t76 56.5t136 54.5l198 74v122q0 127 -25.5 185.5t-80.5 58.5q-68 0 -97.5 -50t-35.5 -112q-12 -104 -105 -104q-45 0 -66.5 20.5t-21.5 51.5q0 57 69 111t166 88t171 34q88 0 140 -55.5t52 -165.5v-369q0 -63 20.5 -96t59.5 -33q31 0 74 19h4 q8 0 10 -9.5t-6 -13.5l-211 -100q-8 -4 -18 -4q-31 0 -58.5 35.5t-35.5 95.5l-95 -66q-49 -35 -89 -49t-89 -14q-84 0 -128 40t-44 105zM274 975l140 510q2 10 22 10q23 0 25 -10l137 -510v-2q0 -4 -9 -6t-11 4l-140 260l-141 -260q-2 -6 -13.5 -3t-9.5 7zM289 193 q0 -49 31.5 -79t76.5 -30q37 0 78 25l57 38v21v203l-122 -52q-53 -20 -87 -47.5t-34 -78.5z" />
<glyph unicode="&#xe3;" horiz-adv-x="860" d="M92 131q0 55 30 90t76 56.5t136 54.5l198 74v122q0 127 -25.5 185.5t-80.5 58.5q-68 0 -97.5 -50t-35.5 -112q-12 -104 -105 -104q-45 0 -66.5 20.5t-21.5 51.5q0 57 69 111t166 88t171 34q88 0 140 -55.5t52 -165.5v-369q0 -63 20.5 -96t59.5 -33q31 0 74 19h4 q8 0 10 -9.5t-6 -13.5l-211 -100q-8 -4 -18 -4q-31 0 -58.5 35.5t-35.5 95.5l-95 -66q-49 -35 -89 -49t-89 -14q-84 0 -128 40t-44 105zM164 983q90 154 176 154q23 0 100 -21q100 -31 152 -31q33 0 55.5 13.5t46.5 42.5l4 2q4 0 8.5 -6.5t2.5 -10.5q-53 -90 -88 -120.5 t-80 -30.5q-41 0 -117 22q-35 10 -73 18.5t-70 8.5q-39 0 -55.5 -11.5t-47.5 -43.5h-2q-6 0 -11 5t-1 9zM289 193q0 -49 31.5 -79t76.5 -30q37 0 78 25l57 38v21v203l-122 -52q-53 -20 -87 -47.5t-34 -78.5z" />
<glyph unicode="&#xe4;" horiz-adv-x="860" d="M92 131q0 55 30 90t76 56.5t136 54.5l198 74v122q0 127 -25.5 185.5t-80.5 58.5q-68 0 -97.5 -50t-35.5 -112q-12 -104 -105 -104q-45 0 -66.5 20.5t-21.5 51.5q0 57 69 111t166 88t171 34q88 0 140 -55.5t52 -165.5v-369q0 -63 20.5 -96t59.5 -33q31 0 74 19h4 q8 0 10 -9.5t-6 -13.5l-211 -100q-8 -4 -18 -4q-31 0 -58.5 35.5t-35.5 95.5l-95 -66q-49 -35 -89 -49t-89 -14q-84 0 -128 40t-44 105zM156 1063q0 47 27.5 72.5t76.5 25.5q47 0 72.5 -25.5t25.5 -72.5q0 -49 -25.5 -75.5t-72.5 -26.5q-49 0 -76.5 26.5t-27.5 75.5z M289 193q0 -49 31.5 -79t76.5 -30q37 0 78 25l57 38v21v203l-122 -52q-53 -20 -87 -47.5t-34 -78.5zM514 1063q0 45 27.5 71.5t74.5 26.5t74 -25.5t27 -72.5q0 -49 -26.5 -75.5t-74.5 -26.5q-47 0 -74.5 26.5t-27.5 75.5z" />
<glyph unicode="&#xe5;" horiz-adv-x="860" d="M92 131q0 55 30 90t76 56.5t136 54.5l198 74v122q0 127 -25.5 185.5t-80.5 58.5q-68 0 -97.5 -50t-35.5 -112q-12 -104 -105 -104q-45 0 -66.5 20.5t-21.5 51.5q0 57 69 111t166 88t171 34q88 0 140 -55.5t52 -165.5v-369q0 -63 20.5 -96t59.5 -33q31 0 74 19h4 q8 0 10 -9.5t-6 -13.5l-211 -100q-8 -4 -18 -4q-31 0 -58.5 35.5t-35.5 95.5l-95 -66q-49 -35 -89 -49t-89 -14q-84 0 -128 40t-44 105zM213 1120q0 74 69.5 117t155.5 43q84 0 144.5 -48t60.5 -116q0 -72 -68.5 -115t-156.5 -43q-92 0 -148.5 48.5t-56.5 113.5zM289 193 q0 -49 31.5 -79t76.5 -30q37 0 78 25l57 38v21v203l-122 -52q-53 -20 -87 -47.5t-34 -78.5zM342 1161q0 -68 29.5 -122t79.5 -54q31 0 45 22.5t14 71.5q0 72 -33 123t-80 51q-55 0 -55 -92z" />
<glyph unicode="&#xe6;" horiz-adv-x="1208" d="M70 133q0 53 27.5 88t69.5 56.5t128 54.5l203 74q-4 139 -12.5 212.5t-29 111.5t-59.5 38q-70 0 -101.5 -44t-35.5 -128q0 -37 -20.5 -64.5t-73.5 -27.5q-94 0 -94 82q0 45 59 98t146.5 89t164.5 36q61 0 109.5 -30.5t75.5 -88.5q125 119 299 119q115 0 176 -65.5 t61 -188.5q0 -23 -5 -32t-23 -9l-453 -2q-4 -45 -4 -72q2 -172 63.5 -275.5t200.5 -103.5q133 0 217 66l4 2q4 0 9.5 -8t1.5 -12q-74 -72 -148 -103t-164 -31q-227 0 -313 162l-125 -90q-92 -61 -184 -61q-82 0 -126 40t-44 107zM266 190q0 -51 28 -79.5t77 -28.5 q47 0 84 27l84 53q-37 82 -39 186v27l-131 -56q-49 -20 -76 -49.5t-27 -79.5zM686 549l283 6q0 102 -30 157.5t-81 55.5q-67 0 -112.5 -58.5t-59.5 -160.5z" />
<glyph unicode="&#xe7;" horiz-adv-x="860" d="M68 381q0 129 69.5 226.5t179 149.5t222.5 52q96 0 174 -39t78 -104q0 -35 -27 -60.5t-74 -25.5q-78 0 -112 92q-20 51 -43 72.5t-72 21.5q-96 0 -152.5 -87t-56.5 -233q0 -170 79 -275t247 -105q57 0 102 14t98 45h2q6 0 11.5 -6t1.5 -10q-76 -68 -150 -101t-168 -33 h-12q-8 -31 -8 -59q0 -37 19.5 -61.5t64.5 -49.5q53 -33 82.5 -68.5t29.5 -90.5q0 -82 -59 -145.5t-178 -63.5q-145 0 -146 92q0 29 21.5 51.5t52.5 22.5q35 0 49.5 -15.5t26.5 -44.5q12 -31 25.5 -45t46.5 -14q53 0 53 57q0 53 -38 96.5t-134 96.5q-10 4 -15.5 10t-5.5 14 q0 12 8 35q33 82 70 184q-119 10 -201 71t-121.5 149t-39.5 184z" />
<glyph unicode="&#xe8;" horiz-adv-x="849" d="M68 371q0 121 59 221t162.5 158.5t230.5 58.5q123 0 190.5 -59.5t67.5 -176.5q0 -59 -24 -59l-500 -2q-2 -18 -2 -55q0 -180 83 -285.5t236 -105.5q57 0 96.5 13t104.5 48l4 2q4 0 9.5 -8t0.5 -12q-76 -70 -151.5 -102t-163.5 -32q-125 0 -216 55.5t-139 145.5t-48 195z M252 1489q-2 8 24 8q39 0 95.5 -11t58.5 -20l78 -491q2 -4 -8.5 -7t-12.5 3zM258 549l328 6q-4 213 -140 213q-75 0 -123.5 -58.5t-64.5 -160.5z" />
<glyph unicode="&#xe9;" horiz-adv-x="849" d="M68 371q0 121 59 221t162.5 158.5t230.5 58.5q123 0 190.5 -59.5t67.5 -176.5q0 -59 -24 -59l-500 -2q-2 -18 -2 -55q0 -180 83 -285.5t236 -105.5q57 0 96.5 13t104.5 48l4 2q4 0 9.5 -8t0.5 -12q-76 -70 -151.5 -102t-163.5 -32q-125 0 -216 55.5t-139 145.5t-48 195z M258 549l328 6q-4 213 -140 213q-75 0 -123.5 -58.5t-64.5 -160.5zM449 975l79 491q4 8 60.5 19.5t93.5 11.5q25 0 23 -8l-234 -518q0 -4 -8 -4q-6 0 -11.5 3t-2.5 5z" />
<glyph unicode="&#xea;" horiz-adv-x="849" d="M68 371q0 121 59 221t162.5 158.5t230.5 58.5q123 0 190.5 -59.5t67.5 -176.5q0 -59 -24 -59l-500 -2q-2 -18 -2 -55q0 -180 83 -285.5t236 -105.5q57 0 96.5 13t104.5 48l4 2q4 0 9.5 -8t0.5 -12q-76 -70 -151.5 -102t-163.5 -32q-125 0 -216 55.5t-139 145.5t-48 195z M258 549l328 6q-4 213 -140 213q-75 0 -123.5 -58.5t-64.5 -160.5zM313 975l140 510q2 10 22 10q23 0 25 -10l137 -510v-2q0 -4 -9.5 -6t-11.5 4l-139 260l-141 -260q-2 -6 -13.5 -3t-9.5 7z" />
<glyph unicode="&#xeb;" horiz-adv-x="849" d="M68 371q0 121 59 221t162.5 158.5t230.5 58.5q123 0 190.5 -59.5t67.5 -176.5q0 -59 -24 -59l-500 -2q-2 -18 -2 -55q0 -180 83 -285.5t236 -105.5q57 0 96.5 13t104.5 48l4 2q4 0 9.5 -8t0.5 -12q-76 -70 -151.5 -102t-163.5 -32q-125 0 -216 55.5t-139 145.5t-48 195z M195 1063q0 47 27.5 72.5t76.5 25.5q47 0 72.5 -25.5t25.5 -72.5q0 -49 -25.5 -75.5t-72.5 -26.5q-49 0 -76.5 26.5t-27.5 75.5zM258 549l328 6q-4 213 -140 213q-75 0 -123.5 -58.5t-64.5 -160.5zM553 1063q0 45 27.5 71.5t74.5 26.5t74 -25.5t27 -72.5q0 -49 -27 -75.5 t-74 -26.5t-74.5 26.5t-27.5 75.5z" />
<glyph unicode="&#xec;" horiz-adv-x="544" d="M47 657.5q-4 10.5 2 14.5l295 137l6 2q8 0 17.5 -9t9.5 -16v-43q-4 -86 -4 -202v-375q0 -84 23.5 -112.5t92.5 -28.5q6 0 6.5 -12.5t-6.5 -12.5q-51 0 -81 2l-119 2l-119 -2q-29 -2 -80 -2q-6 0 -6 12.5t6 12.5q70 0 92.5 28.5t22.5 112.5v373q0 70 -14.5 101.5 t-49.5 31.5q-31 0 -80 -25h-2q-8 0 -12 10.5zM55 1489q-2 8 25 8q39 0 95 -11t58 -20l78 -491q2 -4 -8 -7t-12 3z" />
<glyph unicode="&#xed;" horiz-adv-x="544" d="M47 657.5q-4 10.5 2 14.5l295 137l6 2q8 0 17.5 -9t9.5 -16v-43q-4 -86 -4 -202v-375q0 -84 23.5 -112.5t92.5 -28.5q6 0 6.5 -12.5t-6.5 -12.5q-51 0 -81 2l-119 2l-119 -2q-29 -2 -80 -2q-6 0 -6 12.5t6 12.5q70 0 92.5 28.5t22.5 112.5v373q0 70 -14.5 101.5 t-49.5 31.5q-31 0 -80 -25h-2q-8 0 -12 10.5zM252 975l80 491q4 8 60.5 19.5t92.5 11.5q25 0 23 -8l-234 -518q0 -4 -8 -4q-6 0 -11 3t-3 5z" />
<glyph unicode="&#xee;" horiz-adv-x="544" d="M47 657.5q-4 10.5 2 14.5l295 137l6 2q8 0 17.5 -9t9.5 -16v-43q-4 -86 -4 -202v-375q0 -84 23.5 -112.5t92.5 -28.5q6 0 6.5 -12.5t-6.5 -12.5q-51 0 -81 2l-119 2l-119 -2q-29 -2 -80 -2q-6 0 -6 12.5t6 12.5q70 0 92.5 28.5t22.5 112.5v373q0 70 -14.5 101.5 t-49.5 31.5q-31 0 -80 -25h-2q-8 0 -12 10.5zM117 975l139 510q2 10 23 10q23 0 24 -10l137 -510v-2q0 -4 -9 -6t-11 4l-139 260l-142 -260q-2 -6 -13 -3t-9 7z" />
<glyph unicode="&#xef;" horiz-adv-x="544" d="M23 1063q0 47 27.5 72.5t76.5 25.5q47 0 73.5 -26.5t26.5 -71.5q0 -49 -26.5 -75.5t-73.5 -26.5q-49 0 -76.5 26.5t-27.5 75.5zM47 657.5q-4 10.5 2 14.5l295 137l6 2q8 0 17.5 -9t9.5 -16v-43q-4 -86 -4 -202v-375q0 -84 23.5 -112.5t92.5 -28.5q6 0 6.5 -12.5 t-6.5 -12.5q-51 0 -81 2l-119 2l-119 -2q-29 -2 -80 -2q-6 0 -6 12.5t6 12.5q70 0 92.5 28.5t22.5 112.5v373q0 70 -14.5 101.5t-49.5 31.5q-31 0 -80 -25h-2q-8 0 -12 10.5zM330 1063q0 45 27.5 71.5t74.5 26.5t72.5 -25.5t25.5 -72.5q0 -49 -25.5 -75.5t-72.5 -26.5 t-74.5 26.5t-27.5 75.5z" />
<glyph unicode="&#xf0;" horiz-adv-x="962" d="M41 381q0 141 68.5 239.5t173 147.5t209.5 49q102 0 184 -49q-57 193 -158 348l-262 -125q-10 -4 -22.5 24.5t-2.5 35.5l252 118q-135 188 -299 297q-4 4 -4 7q0 4 5 9t12 3q225 -102 387 -266l209 98q6 2 15 -11.5t13 -28.5t-4 -20l-186 -88q139 -153 215 -336.5 t76 -367.5q0 -248 -130 -370t-335 -122q-125 0 -219.5 55.5t-145.5 149.5t-51 203zM227 440q0 -117 36 -213t101.5 -153.5t149.5 -57.5q107 0 163 84t56 291q0 115 -22 238q-43 70 -104.5 107.5t-133.5 37.5q-109 0 -177.5 -87t-68.5 -247z" />
<glyph unicode="&#xf1;" horiz-adv-x="1071" d="M16.5 663.5q-4.5 10.5 1.5 12.5l269 131q12 4 14 4q20 0 42 -46t24 -120q143 170 311 170q113 0 176.5 -68.5t63.5 -185.5v-395q0 -84 22.5 -112.5t91.5 -28.5q6 0 6 -12.5t-6 -12.5q-51 0 -80 2l-118 2l-117 -2q-31 -2 -82 -2q-6 0 -6 12.5t6 12.5q70 0 92.5 28.5 t22.5 112.5v307q0 115 -42 169t-133 54q-53 0 -108 -24.5t-100 -65.5v-440q0 -84 22.5 -112.5t91.5 -28.5q6 0 6 -12.5t-6 -12.5q-51 0 -80 2l-118 2l-119 -2q-29 -2 -80 -2q-6 0 -6 12.5t6 12.5q70 0 92.5 28.5t22.5 112.5v391q0 66 -15.5 96.5t-50.5 30.5q-31 0 -102 -31 h-2q-8 0 -12.5 10.5zM291 983q90 154 176 154q23 0 100 -21q100 -31 152 -31q33 0 55.5 13.5t46.5 42.5l4 2q4 0 8.5 -6.5t2.5 -10.5q-53 -90 -88 -120.5t-80 -30.5q-41 0 -117 22q-35 10 -73 18.5t-70 8.5q-39 0 -55.5 -11.5t-47.5 -43.5h-2q-6 0 -11 5t-1 9z" />
<glyph unicode="&#xf2;" horiz-adv-x="995" d="M68 406q0 133 66.5 226t170 139t211.5 46q125 0 218 -59.5t142.5 -156.5t49.5 -208q0 -123 -60.5 -219t-163 -148.5t-221.5 -52.5q-123 0 -217 58.5t-145 158t-51 216.5zM262 477q0 -133 36 -238.5t100.5 -165t144.5 -59.5q90 0 138 80t48 234q0 137 -38 239.5 t-102.5 155.5t-139.5 53q-92 0 -139.5 -75.5t-47.5 -223.5zM276 1489q-2 8 25 8q39 0 95.5 -11t58.5 -20l77 -491q2 -4 -8 -7t-12 3z" />
<glyph unicode="&#xf3;" horiz-adv-x="995" d="M68 406q0 133 66.5 226t170 139t211.5 46q125 0 218 -59.5t142.5 -156.5t49.5 -208q0 -123 -60.5 -219t-163 -148.5t-221.5 -52.5q-123 0 -217 58.5t-145 158t-51 216.5zM262 477q0 -133 36 -238.5t100.5 -165t144.5 -59.5q90 0 138 80t48 234q0 137 -38 239.5 t-102.5 155.5t-139.5 53q-92 0 -139.5 -75.5t-47.5 -223.5zM473 975l80 491q4 8 60.5 19.5t93.5 11.5q25 0 22 -8l-233 -518q-1 -4 -9 -4q-6 0 -11 3t-3 5z" />
<glyph unicode="&#xf4;" horiz-adv-x="995" d="M68 406q0 133 66.5 226t170 139t211.5 46q125 0 218 -59.5t142.5 -156.5t49.5 -208q0 -123 -60.5 -219t-163 -148.5t-221.5 -52.5q-123 0 -217 58.5t-145 158t-51 216.5zM262 477q0 -133 36 -238.5t100.5 -165t144.5 -59.5q90 0 138 80t48 234q0 137 -38 239.5 t-102.5 155.5t-139.5 53q-92 0 -139.5 -75.5t-47.5 -223.5zM338 975l139 510q2 10 23 10q23 0 24 -10l138 -510v-2q0 -4 -9.5 -6t-11.5 4l-139 260l-142 -260q-2 -6 -13 -3t-9 7z" />
<glyph unicode="&#xf5;" horiz-adv-x="995" d="M68 406q0 133 66.5 226t170 139t211.5 46q125 0 218 -59.5t142.5 -156.5t49.5 -208q0 -123 -60.5 -219t-163 -148.5t-221.5 -52.5q-123 0 -217 58.5t-145 158t-51 216.5zM227 983q90 154 176 154q23 0 101 -21q100 -31 151 -31q33 0 55.5 13.5t47.5 42.5l4 2q4 0 8 -6.5 t2 -10.5q-53 -90 -88 -120.5t-80 -30.5q-41 0 -117 22q-35 10 -72.5 18.5t-70.5 8.5q-39 0 -55.5 -11.5t-46.5 -43.5h-2q-6 0 -11.5 5t-1.5 9zM262 477q0 -133 36 -238.5t100.5 -165t144.5 -59.5q90 0 138 80t48 234q0 137 -38 239.5t-102.5 155.5t-139.5 53 q-92 0 -139.5 -75.5t-47.5 -223.5z" />
<glyph unicode="&#xf6;" horiz-adv-x="995" d="M68 406q0 133 66.5 226t170 139t211.5 46q125 0 218 -59.5t142.5 -156.5t49.5 -208q0 -123 -60.5 -219t-163 -148.5t-221.5 -52.5q-123 0 -217 58.5t-145 158t-51 216.5zM219 1063q0 47 27.5 72.5t77.5 25.5q47 0 72.5 -25.5t25.5 -72.5q0 -49 -25.5 -75.5t-72.5 -26.5 q-50 0 -77.5 26.5t-27.5 75.5zM262 477q0 -133 36 -238.5t100.5 -165t144.5 -59.5q90 0 138 80t48 234q0 137 -38 239.5t-102.5 155.5t-139.5 53q-92 0 -139.5 -75.5t-47.5 -223.5zM578 1063q0 45 27.5 71.5t74.5 26.5t73.5 -25.5t26.5 -72.5q0 -49 -26.5 -75.5t-73.5 -26.5 t-74.5 26.5t-27.5 75.5z" />
<glyph unicode="&#xf7;" horiz-adv-x="815" d="M59 391q0 16 2 29.5t7 13.5h677q4 0 7.5 -14t3.5 -31q0 -18 -3 -32.5t-8 -14.5h-675q-4 0 -7.5 15.5t-3.5 33.5zM293 90q0 49 30.5 78t84.5 29q51 0 78.5 -29t27.5 -78q0 -53 -27.5 -83t-78.5 -30q-54 0 -84.5 30t-30.5 83zM293 698q0 49 30.5 78t84.5 29 q51 0 78.5 -28.5t27.5 -78.5q0 -53 -27.5 -82.5t-78.5 -29.5q-54 0 -84.5 29.5t-30.5 82.5z" />
<glyph unicode="&#xf8;" horiz-adv-x="976" d="M68 406q0 133 66.5 226t170 139t211.5 46q150 0 260 -90l90 92l4 2q10 0 24.5 -15t8.5 -22l-90 -92q55 -59 84 -137t29 -162q0 -123 -60.5 -219t-163 -148.5t-221.5 -52.5q-160 0 -270 99l-98 -103l-2 -2q-10 0 -25.5 16.5t-9.5 22.5l98 103q-51 59 -78.5 136t-27.5 161z M262 477q0 -126 37 -241l371 380q-39 78 -96.5 119t-124.5 41q-92 0 -139.5 -75.5t-47.5 -223.5zM322 184q37 -80 94 -125t127 -45q90 0 138 80t48 234q0 131 -37 237z" />
<glyph unicode="&#xf9;" horiz-adv-x="1026" d="M18.5 672q-4.5 10 1.5 14l261 121l8 2q8 0 18 -8t10 -15v-464q0 -115 42 -171.5t128 -56.5q51 0 105.5 24.5t97.5 67.5v353q0 72 -15.5 105.5t-47.5 33.5q-18 0 -58 -16h-2q-8 0 -12 11t4 13l258 121q4 2 10 2q8 0 18.5 -8t10.5 -15v-555q0 -72 14.5 -100.5t47.5 -28.5 q25 0 92 25l4 2q6 0 10 -10t-2 -15l-268 -129l-9 -2q-20 0 -36.5 46.5t-18.5 123.5q-143 -166 -303 -166q-111 0 -172 69t-61 187v306q0 139 -64 139q-20 0 -57 -16h-2q-8 0 -12.5 10zM291 1489q-2 8 24 8q39 0 95.5 -11t58.5 -20l78 -491q2 -4 -8.5 -7t-12.5 3z" />
<glyph unicode="&#xfa;" horiz-adv-x="1026" d="M18.5 672q-4.5 10 1.5 14l261 121l8 2q8 0 18 -8t10 -15v-464q0 -115 42 -171.5t128 -56.5q51 0 105.5 24.5t97.5 67.5v353q0 72 -15.5 105.5t-47.5 33.5q-18 0 -58 -16h-2q-8 0 -12 11t4 13l258 121q4 2 10 2q8 0 18.5 -8t10.5 -15v-555q0 -72 14.5 -100.5t47.5 -28.5 q25 0 92 25l4 2q6 0 10 -10t-2 -15l-268 -129l-9 -2q-20 0 -36.5 46.5t-18.5 123.5q-143 -166 -303 -166q-111 0 -172 69t-61 187v306q0 139 -64 139q-20 0 -57 -16h-2q-8 0 -12.5 10zM487 975l80 491q4 8 60.5 19.5t93.5 11.5q25 0 22 -8l-233 -518q0 -4 -8 -4 q-6 0 -11.5 3t-3.5 5z" />
<glyph unicode="&#xfb;" horiz-adv-x="1026" d="M18.5 672q-4.5 10 1.5 14l261 121l8 2q8 0 18 -8t10 -15v-464q0 -115 42 -171.5t128 -56.5q51 0 105.5 24.5t97.5 67.5v353q0 72 -15.5 105.5t-47.5 33.5q-18 0 -58 -16h-2q-8 0 -12 11t4 13l258 121q4 2 10 2q8 0 18.5 -8t10.5 -15v-555q0 -72 14.5 -100.5t47.5 -28.5 q25 0 92 25l4 2q6 0 10 -10t-2 -15l-268 -129l-9 -2q-20 0 -36.5 46.5t-18.5 123.5q-143 -166 -303 -166q-111 0 -172 69t-61 187v306q0 139 -64 139q-20 0 -57 -16h-2q-8 0 -12.5 10zM352 975l140 510q2 10 22 10q23 0 25 -10l137 -510v-2q0 -4 -9.5 -6t-11.5 4l-139 260 l-141 -260q-2 -6 -13.5 -3t-9.5 7z" />
<glyph unicode="&#xfc;" horiz-adv-x="1026" d="M18.5 672q-4.5 10 1.5 14l261 121l8 2q8 0 18 -8t10 -15v-464q0 -115 42 -171.5t128 -56.5q51 0 105.5 24.5t97.5 67.5v353q0 72 -15.5 105.5t-47.5 33.5q-18 0 -58 -16h-2q-8 0 -12 11t4 13l258 121q4 2 10 2q8 0 18.5 -8t10.5 -15v-555q0 -72 14.5 -100.5t47.5 -28.5 q25 0 92 25l4 2q6 0 10 -10t-2 -15l-268 -129l-9 -2q-20 0 -36.5 46.5t-18.5 123.5q-143 -166 -303 -166q-111 0 -172 69t-61 187v306q0 139 -64 139q-20 0 -57 -16h-2q-8 0 -12.5 10zM233 1063q0 47 28 72.5t77 25.5q47 0 72.5 -25.5t25.5 -72.5q0 -49 -25.5 -75.5 t-72.5 -26.5q-49 0 -77 26.5t-28 75.5zM592 1063q0 45 27.5 71.5t74.5 26.5t74 -25.5t27 -72.5q0 -49 -27 -75.5t-74 -26.5t-74.5 26.5t-27.5 75.5z" />
<glyph unicode="&#xfd;" horiz-adv-x="880" d="M-78 -481q0 41 25.5 62.5t62.5 21.5q25 0 42.5 -7.5t35.5 -19.5q20 -12 35.5 -18.5t38.5 -6.5q47 0 87 38t84 126t105 250l-323 656q-45 88 -71 116.5t-62 28.5q-6 0 -6.5 12.5t6.5 12.5q53 0 81 -3l80 -2l140 2q31 2 84 3q6 0 6 -12.5t-6 -12.5q-55 0 -81 -9t-26 -34 q0 -18 10 -37l250 -516l137 397q18 53 19 90q0 109 -137 109q-4 0 -4 12.5t4 12.5q55 0 84 -3l122 -2l80 2q23 2 72 3q4 0 4 -12.5t-4 -12.5q-61 0 -105 -49t-81 -150l-236 -624q-74 -197 -141.5 -309.5t-137 -160.5t-153.5 -48q-57 0 -89 23.5t-32 70.5zM430 975l80 491 q4 8 60.5 19.5t93.5 11.5q25 0 22 -8l-233 -518q-1 -4 -9 -4q-6 0 -11 3t-3 5z" />
<glyph unicode="&#xfe;" horiz-adv-x="1011" d="M-17.5 1333q-5.5 10 1.5 15l284 135q4 2 11 2q8 0 18 -8.5t10 -14.5v-790q82 76 159 110.5t157 34.5q86 0 159.5 -45t117.5 -131t44 -201q0 -162 -67.5 -266t-171 -152.5t-209.5 -48.5q-97 0 -189 31v-401q0 -61 14.5 -90t53.5 -40.5t121 -11.5q6 0 6 -12t-6 -12 q-74 0 -117 2l-156 2l-121 -2q-31 -2 -82 -2q-4 0 -4 12t4 12q51 0 77 11.5t35 40t9 90.5v1609q0 72 -14 104t-49 32q-31 0 -80 -25h-2q-8 0 -13.5 10zM307 131q47 -53 101.5 -80.5t132.5 -27.5q104 0 163.5 89t59.5 265q0 160 -74 249t-186 89q-55 0 -102.5 -21.5 t-94.5 -64.5v-498z" />
<glyph unicode="&#xff;" horiz-adv-x="880" d="M-78 -481q0 41 25.5 62.5t62.5 21.5q25 0 42.5 -7.5t35.5 -19.5q20 -12 35.5 -18.5t38.5 -6.5q47 0 87 38t84 126t105 250l-323 656q-45 88 -71 116.5t-62 28.5q-6 0 -6.5 12.5t6.5 12.5q53 0 81 -3l80 -2l140 2q31 2 84 3q6 0 6 -12.5t-6 -12.5q-55 0 -81 -9t-26 -34 q0 -18 10 -37l250 -516l137 397q18 53 19 90q0 109 -137 109q-4 0 -4 12.5t4 12.5q55 0 84 -3l122 -2l80 2q23 2 72 3q4 0 4 -12.5t-4 -12.5q-61 0 -105 -49t-81 -150l-236 -624q-74 -197 -141.5 -309.5t-137 -160.5t-153.5 -48q-57 0 -89 23.5t-32 70.5zM176 1063 q0 47 27.5 72.5t77.5 25.5q47 0 72.5 -25.5t25.5 -72.5q0 -49 -25.5 -75.5t-72.5 -26.5q-50 0 -77.5 26.5t-27.5 75.5zM535 1063q0 45 27.5 71.5t74.5 26.5t73.5 -25.5t26.5 -72.5q0 -49 -26.5 -75.5t-73.5 -26.5t-74.5 26.5t-27.5 75.5z" />
<glyph unicode="&#x100;" horiz-adv-x="1456" d="M-14 12.5q0 12.5 10 12.5q57 0 96 22.5t76 80.5t88 173l440 991q4 6 19 6q14 0 16 -6l502 -1011q72 -147 120 -201.5t103 -54.5q10 0 10 -12.5t-10 -12.5q-39 0 -125 4t-125 4q-51 0 -121 -4t-108 -4q-8 0 -8 12.5t8 12.5q59 0 87 13t28 44t-35 104l-156 316h-495 l-99 -221q-27 -61 -26 -111q0 -72 51 -108.5t143 -36.5q10 0 10 -12.5t-10 -12.5q-37 0 -106 4q-78 4 -136 4q-55 0 -129 -4q-66 -4 -108 -4q-10 0 -10 12.5zM428 553h449l-236 477zM442 1501q0 14 4.5 24.5t12.5 10.5h514q8 0 13 -10t5 -25q0 -14 -5 -24.5t-13 -10.5h-514 q-8 0 -12.5 11.5t-4.5 23.5z" />
<glyph unicode="&#x101;" horiz-adv-x="860" d="M92 131q0 55 30 90t76 56.5t136 54.5l198 74v122q0 127 -25.5 185.5t-80.5 58.5q-68 0 -97.5 -50t-35.5 -112q-12 -104 -105 -104q-45 0 -66.5 20.5t-21.5 51.5q0 57 69 111t166 88t171 34q88 0 140 -55.5t52 -165.5v-369q0 -63 20.5 -96t59.5 -33q31 0 74 19h4 q8 0 10 -9.5t-6 -13.5l-211 -100q-8 -4 -18 -4q-31 0 -58.5 35.5t-35.5 95.5l-95 -66q-49 -35 -89 -49t-89 -14q-84 0 -128 40t-44 105zM162 1012q0 14 4 24.5t12 10.5h514q8 0 13.5 -10.5t5.5 -24.5t-5.5 -24.5t-13.5 -10.5h-514q-8 0 -12 11t-4 24zM289 193 q0 -49 31.5 -79t76.5 -30q37 0 78 25l57 38v21v203l-122 -52q-53 -20 -87 -47.5t-34 -78.5z" />
<glyph unicode="&#x102;" horiz-adv-x="1456" d="M-14 12.5q0 12.5 10 12.5q57 0 96 22.5t76 80.5t88 173l440 991q4 6 19 6q14 0 16 -6l502 -1011q72 -147 120 -201.5t103 -54.5q10 0 10 -12.5t-10 -12.5q-39 0 -125 4t-125 4q-51 0 -121 -4t-108 -4q-8 0 -8 12.5t8 12.5q59 0 87 13t28 44t-35 104l-156 316h-495 l-99 -221q-27 -61 -26 -111q0 -72 51 -108.5t143 -36.5q10 0 10 -12.5t-10 -12.5q-37 0 -106 4q-78 4 -136 4q-55 0 -129 -4q-66 -4 -108 -4q-10 0 -10 12.5zM428 553h449l-236 477zM506 1659q0 8 10 8t12 -4q4 -43 59.5 -79t129.5 -36q72 0 127 36t59 79q0 6 11.5 5 t11.5 -9q-4 -119 -57.5 -182.5t-151.5 -63.5q-99 0 -153 63.5t-58 182.5z" />
<glyph unicode="&#x103;" horiz-adv-x="860" d="M92 131q0 55 30 90t76 56.5t136 54.5l198 74v122q0 127 -25.5 185.5t-80.5 58.5q-68 0 -97.5 -50t-35.5 -112q-12 -104 -105 -104q-45 0 -66.5 20.5t-21.5 51.5q0 57 69 111t166 88t171 34q88 0 140 -55.5t52 -165.5v-369q0 -63 20.5 -96t59.5 -33q31 0 74 19h4 q8 0 10 -9.5t-6 -13.5l-211 -100q-8 -4 -18 -4q-31 0 -58.5 35.5t-35.5 95.5l-95 -66q-49 -35 -89 -49t-89 -14q-84 0 -128 40t-44 105zM225 1278q0 8 11.5 9t11.5 -5q0 -74 54 -127t134 -53q78 0 132.5 53t54.5 127q0 6 11 5t11 -9q0 -158 -53 -241t-156 -83 q-102 0 -156.5 83t-54.5 241zM289 193q0 -49 31.5 -79t76.5 -30q37 0 78 25l57 38v21v203l-122 -52q-53 -20 -87 -47.5t-34 -78.5z" />
<glyph unicode="&#x104;" horiz-adv-x="1458" d="M-14 12.5q0 12.5 10 12.5q57 0 97 22.5t77 80.5t86 173l440 991q4 6 19 6q14 0 16 -6l502 -1013q68 -141 118 -201t105 -60q10 0 10 -11t-10 -11q-49 0 -123 4l-96 2q-104 0 -164.5 -66.5t-60.5 -181.5q0 -109 52 -174t138 -65q51 0 96 24h2q6 0 11.5 -6t1.5 -10 q-53 -45 -106.5 -65.5t-116.5 -20.5q-115 0 -180.5 60.5t-65.5 160.5q0 76 33.5 126t99.5 112q57 55 83.5 93t26.5 89q0 47 -30 108l-158 316h-493l-99 -221q-27 -59 -26 -111q0 -70 51 -107.5t143 -37.5q10 0 10 -12.5t-10 -12.5q-37 0 -106 4q-78 4 -136 4q-55 0 -129 -4 q-66 -4 -108 -4q-10 0 -10 12.5zM428 553h446l-235 473z" />
<glyph unicode="&#x105;" horiz-adv-x="860" d="M92 131q0 55 30 90t76 56.5t136 54.5l198 74v122q0 127 -25.5 185.5t-80.5 58.5q-68 0 -97.5 -50t-35.5 -112q-12 -104 -105 -104q-45 0 -66.5 20.5t-21.5 51.5q0 57 69 111t166 88t171 34q88 0 140 -55.5t52 -165.5v-369q0 -63 20.5 -96t59.5 -33q31 0 74 19h4 q8 0 10 -9.5t-6 -13.5l-211 -100q-2 -2 -5 -2t-5 -2q-61 -61 -88 -116.5t-27 -125.5q0 -102 52.5 -164.5t144.5 -62.5q29 0 57.5 9t44.5 21h4q6 0 11.5 -6t-0.5 -10q-109 -92 -228 -92q-104 0 -170.5 61.5t-66.5 155.5q0 164 229 338q-23 12 -40 45t-25 78l-95 -66 q-49 -35 -89 -49t-89 -14q-84 0 -128 40t-44 105zM289 193q0 -49 31.5 -79t76.5 -30q37 0 78 25l57 38v21v203l-122 -52q-53 -20 -87 -47.5t-34 -78.5z" />
<glyph unicode="&#x106;" horiz-adv-x="1398" d="M100 637q0 193 100.5 344.5t274.5 236.5t389 85q228 -1 367 -64q16 -8 20 -15t9 -32l24 -270q0 -6 -10 -8.5t-14 6.5q-53 168 -159 256t-261 88q-150 0 -267.5 -75t-183 -215t-65.5 -327q0 -184 69.5 -328.5t190.5 -224.5t272 -80q150 0 249 79t175 251q2 6 12.5 4 t10.5 -6l-27 -246q-2 -25 -7 -31t-22 -14q-184 -76 -391 -76q-219 0 -391 83t-268.5 233.5t-96.5 345.5zM600 1398q-2 9 4 13q66 39 180 129q94 72 103 78q10 8 65.5 -8.5t97.5 -37t19 -24.5q-127 -31 -232.5 -68.5t-222.5 -88.5l-4 -2q-8 0 -10 9z" />
<glyph unicode="&#x107;" horiz-adv-x="860" d="M68 381q0 129 69.5 226.5t179 149.5t222.5 52q96 0 174 -39t78 -104q0 -35 -27 -60.5t-74 -25.5q-78 0 -112 92q-20 51 -43 72.5t-72 21.5q-96 0 -152.5 -87t-56.5 -233q0 -170 79 -275t247 -105q57 0 102 14t98 45h2q6 0 11.5 -6t1.5 -10q-76 -68 -150 -101t-168 -33 q-133 0 -226 58.5t-138 152t-45 195.5zM465 975l80 491q4 8 60.5 19.5t92.5 11.5q25 0 23 -8l-234 -518q0 -4 -8 -4q-6 0 -11 3t-3 5z" />
<glyph unicode="&#x108;" horiz-adv-x="1398" d="M100 637q0 193 100.5 344.5t274.5 236.5t389 85q228 -1 367 -64q16 -8 20 -15t9 -32l24 -270q0 -6 -10 -8.5t-14 6.5q-53 168 -159 256t-261 88q-150 0 -267.5 -75t-183 -215t-65.5 -327q0 -184 69.5 -328.5t190.5 -224.5t272 -80q150 0 249 79t175 251q2 6 12.5 4 t10.5 -6l-27 -246q-2 -25 -7 -31t-22 -14q-184 -76 -391 -76q-219 0 -391 83t-268.5 233.5t-96.5 345.5zM580 1432l211 225q10 10 24 10q12 0 23 -10l209 -225q2 0 2 -5q0 -4 -5.5 -8t-7.5 -2l-221 92l-223 -92q-4 -2 -10.5 5.5t-1.5 9.5z" />
<glyph unicode="&#x109;" horiz-adv-x="860" d="M68 381q0 129 69.5 226.5t179 149.5t222.5 52q96 0 174 -39t78 -104q0 -35 -27 -60.5t-74 -25.5q-78 0 -112 92q-20 51 -43 72.5t-72 21.5q-96 0 -152.5 -87t-56.5 -233q0 -170 79 -275t247 -105q57 0 102 14t98 45h2q6 0 11.5 -6t1.5 -10q-76 -68 -150 -101t-168 -33 q-133 0 -226 58.5t-138 152t-45 195.5zM330 975l139 510q2 10 23 10q23 0 24 -10l137 -510v-2q0 -4 -9 -6t-11 4l-139 260l-142 -260q-2 -6 -13 -3t-9 7z" />
<glyph unicode="&#x10a;" horiz-adv-x="1398" d="M100 637q0 193 100.5 344.5t274.5 236.5t389 85q228 -1 367 -64q16 -8 20 -15t9 -32l24 -270q0 -6 -10 -8.5t-14 6.5q-53 168 -159 256t-261 88q-150 0 -267.5 -75t-183 -215t-65.5 -327q0 -184 69.5 -328.5t190.5 -224.5t272 -80q150 0 249 79t175 251q2 6 12.5 4 t10.5 -6l-27 -246q-2 -25 -7 -31t-22 -14q-184 -76 -391 -76q-219 0 -391 83t-268.5 233.5t-96.5 345.5zM702 1573q0 49 30 77.5t83 28.5q51 0 80 -28.5t29 -77.5q0 -53 -29 -83t-80 -30q-53 0 -83 30t-30 83z" />
<glyph unicode="&#x10b;" horiz-adv-x="860" d="M68 381q0 129 69.5 226.5t179 149.5t222.5 52q96 0 174 -39t78 -104q0 -35 -27 -60.5t-74 -25.5q-78 0 -112 92q-20 51 -43 72.5t-72 21.5q-96 0 -152.5 -87t-56.5 -233q0 -170 79 -275t247 -105q57 0 102 14t98 45h2q6 0 11.5 -6t1.5 -10q-76 -68 -150 -101t-168 -33 q-133 0 -226 58.5t-138 152t-45 195.5zM379 1137q0 51 29.5 78.5t83.5 27.5q51 0 79.5 -27.5t28.5 -78.5q0 -53 -27.5 -82t-80.5 -29q-54 0 -83.5 28.5t-29.5 82.5z" />
<glyph unicode="&#x10c;" horiz-adv-x="1398" d="M100 637q0 193 100.5 344.5t274.5 236.5t389 85q228 -1 367 -64q16 -8 20 -15t9 -32l24 -270q0 -6 -10 -8.5t-14 6.5q-53 168 -159 256t-261 88q-150 0 -267.5 -75t-183 -215t-65.5 -327q0 -184 69.5 -328.5t190.5 -224.5t272 -80q150 0 249 79t175 251q2 6 12.5 4 t10.5 -6l-27 -246q-2 -25 -7 -31t-22 -14q-184 -76 -391 -76q-219 0 -391 83t-268.5 233.5t-96.5 345.5zM578 1630v2q0 6 5 11.5t7 1.5l223 -93l221 95h2q6 0 9.5 -5.5t-1.5 -9.5l-208 -225q-8 -8 -23 -8q-16 0 -25 8z" />
<glyph unicode="&#x10d;" horiz-adv-x="860" d="M68 381q0 129 69.5 226.5t179 149.5t222.5 52q96 0 174 -39t78 -104q0 -35 -27 -60.5t-74 -25.5q-78 0 -112 92q-20 51 -43 72.5t-72 21.5q-96 0 -152.5 -87t-56.5 -233q0 -170 79 -275t247 -105q57 0 102 14t98 45h2q6 0 11.5 -6t1.5 -10q-76 -68 -150 -101t-168 -33 q-133 0 -226 58.5t-138 152t-45 195.5zM328 1487q-2 6 8 8t14 -2l142 -262l139 262q4 4 13 2t7 -8l-137 -510q-4 -10 -22 -10t-25 10z" />
<glyph unicode="&#x10e;" horiz-adv-x="1433" d="M61.5 12.5q-0.5 12.5 4.5 12.5q70 0 101.5 10t43.5 39.5t12 91.5v948q0 61 -11 90t-44 40t-100 11q-4 0 -4.5 12.5t4.5 12.5l108 -2q90 -4 143 -4q82 0 166 6q102 4 138 4q209 0 370.5 -82t250.5 -223t89 -317q0 -199 -92 -351.5t-247.5 -235.5t-342.5 -83q-63 0 -147 6 q-31 2 -78 4t-107 2l-145 -2q-39 -2 -108 -2q-4 0 -4.5 12.5zM420 188q0 -84 43 -119.5t168 -35.5q141 0 250.5 67.5t171 199.5t61.5 316q0 176 -58.5 318.5t-165 225.5t-247.5 83q-86 0 -133 -10t-68.5 -38t-21.5 -85v-922zM422 1630v2q0 6 5 11.5t7 1.5l223 -93l222 95h2 q6 0 9 -5.5t-1 -9.5l-209 -225q-8 -8 -23 -8q-16 0 -24 8z" />
<glyph unicode="&#x10f;" horiz-adv-x="1046" d="M68 371q0 152 71.5 252t180 147t217.5 47q90 0 172 -33v428q0 72 -13.5 104t-48.5 32q-23 0 -82 -25h-4q-8 0 -12 10t0 13l289 137l8 2q8 0 18 -8.5t10 -14.5v-1229q0 -72 14.5 -101.5t49.5 -29.5q41 0 92 25h2q6 0 11.5 -10.5t-1.5 -12.5l-262 -127l-12 -2 q-20 0 -37.5 41t-19.5 111q-74 -70 -152 -112t-170 -42q-88 0 -161.5 48.5t-116.5 138.5t-43 211zM252 434q0 -172 67.5 -271.5t172.5 -99.5q59 0 111 27t106 76v2v487q-41 57 -91.5 85t-119.5 28q-117 0 -181.5 -82t-64.5 -252zM991 1479q0 10 38 -2.5t72 -34t32 -35.5 l-103 -487q-2 -4 -12 -3t-10 5z" />
<glyph unicode="&#x110;" horiz-adv-x="1433" d="M61.5 12.5q-0.5 12.5 4.5 12.5q70 0 101.5 10t43.5 39.5t12 91.5v444h-114q-8 0 -9 27q0 27 9 27h114v450q0 61 -11 90t-44 40t-100 11q-4 0 -4.5 12.5t4.5 12.5l108 -2q90 -4 143 -4q82 0 166 6q102 4 138 4q208 0 370 -82t251 -223t89 -317q0 -199 -92 -351.5 t-247.5 -235.5t-342.5 -83q-63 0 -147 6q-31 2 -78 4t-107 2l-145 -2q-39 -2 -108 -2q-4 0 -4.5 12.5zM420 188q0 -84 43 -119.5t168 -35.5q141 0 250.5 67.5t171 199.5t61.5 316q0 176 -58.5 318.5t-165 225.5t-247.5 83q-86 0 -133 -10t-68.5 -38t-21.5 -85v-446h278 q8 0 9 -27q0 -27 -9 -27h-278v-422z" />
<glyph unicode="&#x111;" horiz-adv-x="1048" d="M68 371q0 152 71.5 252t180 147t217.5 47q90 0 172 -33v246h-332q-6 0 -10.5 8.5t-4.5 18.5t4.5 18t10.5 8h332v129q0 72 -13.5 104t-48.5 32q-23 0 -82 -25h-4q-8 0 -12 10t0 13l289 137l8 2q8 0 18 -8.5t10 -14.5v-379h125q8 0 12.5 -8t4.5 -18t-4 -18.5t-13 -8.5h-125 v-797q0 -72 14.5 -101.5t49.5 -29.5q41 0 92 25h2q6 0 11.5 -10.5t-1.5 -12.5l-262 -127l-12 -2q-20 0 -37.5 41t-19.5 111q-74 -70 -152 -112t-170 -42q-88 0 -161.5 48.5t-116.5 138.5t-43 211zM252 434q0 -172 67.5 -271.5t172.5 -99.5q59 0 111 27t106 76v2v487 q-41 57 -91.5 85t-119.5 28q-117 0 -181.5 -82t-64.5 -252z" />
<glyph unicode="&#x112;" horiz-adv-x="1120" d="M80 12.5q0 12.5 6 12.5q70 0 101.5 10t43 39.5t11.5 91.5v948q0 61 -11.5 90t-44 40t-100.5 11q-6 0 -6 12.5t6 12.5h852q20 0 20 -18l5 -267q0 -4 -11.5 -6t-13.5 4q-49 233 -285 234h-82q-74 0 -104.5 -26.5t-30.5 -90.5v-418h197q225 0 225 152q0 6 11.5 6t11.5 -6 l-2 -178l2 -97q4 -66 4 -106q0 -4 -12.5 -4t-12.5 4q0 176 -229 176h-195v-465q0 -68 25.5 -94.5t91.5 -26.5h100q274 0 348 266q1 5 9 5q6 0 11 -3.5t5 -5.5q-20 -156 -20 -284q0 -16 -6.5 -23.5t-24.5 -7.5h-889q-6 0 -6 12.5zM332 1501q0 14 4 24.5t12 10.5h514 q8 0 13.5 -10t5.5 -25q0 -14 -5.5 -24.5t-13.5 -10.5h-514q-8 0 -12 11.5t-4 23.5z" />
<glyph unicode="&#x113;" horiz-adv-x="849" d="M68 371q0 121 59 221t162.5 158.5t230.5 58.5q123 0 190.5 -59.5t67.5 -176.5q0 -59 -24 -59l-500 -2q-2 -18 -2 -55q0 -180 83 -285.5t236 -105.5q57 0 96.5 13t104.5 48l4 2q4 0 9.5 -8t0.5 -12q-76 -70 -151.5 -102t-163.5 -32q-125 0 -216 55.5t-139 145.5t-48 195z M201 1012q0 14 4 24.5t12 10.5h514q8 0 13.5 -10.5t5.5 -24.5t-5.5 -24.5t-13.5 -10.5h-514q-8 0 -12 11t-4 24zM258 549l328 6q-4 213 -140 213q-75 0 -123.5 -58.5t-64.5 -160.5z" />
<glyph unicode="&#x114;" horiz-adv-x="1120" d="M80 12.5q0 12.5 6 12.5q70 0 101.5 10t43 39.5t11.5 91.5v948q0 61 -11.5 90t-44 40t-100.5 11q-6 0 -6 12.5t6 12.5h852q20 0 20 -18l5 -267q0 -4 -11.5 -6t-13.5 4q-49 233 -285 234h-82q-74 0 -104.5 -26.5t-30.5 -90.5v-418h197q225 0 225 152q0 6 11.5 6t11.5 -6 l-2 -178l2 -97q4 -66 4 -106q0 -4 -12.5 -4t-12.5 4q0 176 -229 176h-195v-465q0 -68 25.5 -94.5t91.5 -26.5h100q274 0 348 266q1 5 9 5q6 0 11 -3.5t5 -5.5q-20 -156 -20 -284q0 -16 -6.5 -23.5t-24.5 -7.5h-889q-6 0 -6 12.5zM395 1659q0 8 10.5 8t12.5 -4q4 -43 59 -79 t129 -36q72 0 127 36t60 79q0 6 11 5t11 -9q-4 -119 -57 -182.5t-152 -63.5q-98 0 -152.5 63.5t-58.5 182.5z" />
<glyph unicode="&#x115;" horiz-adv-x="849" d="M68 371q0 121 59 221t162.5 158.5t230.5 58.5q123 0 190.5 -59.5t67.5 -176.5q0 -59 -24 -59l-500 -2q-2 -18 -2 -55q0 -180 83 -285.5t236 -105.5q57 0 96.5 13t104.5 48l4 2q4 0 9.5 -8t0.5 -12q-76 -70 -151.5 -102t-163.5 -32q-125 0 -216 55.5t-139 145.5t-48 195z M258 549l328 6q-4 213 -140 213q-75 0 -123.5 -58.5t-64.5 -160.5zM264 1278q0 8 11.5 9t11.5 -5q0 -74 54 -127t134 -53q78 0 132.5 53t54.5 127q0 6 11 5t11 -9q0 -158 -53 -241t-156 -83q-102 0 -156.5 83t-54.5 241z" />
<glyph unicode="&#x116;" horiz-adv-x="1120" d="M80 12.5q0 12.5 6 12.5q70 0 101.5 10t43 39.5t11.5 91.5v948q0 61 -11.5 90t-44 40t-100.5 11q-6 0 -6 12.5t6 12.5h852q20 0 20 -18l5 -267q0 -4 -11.5 -6t-13.5 4q-49 233 -285 234h-82q-74 0 -104.5 -26.5t-30.5 -90.5v-418h197q225 0 225 152q0 6 11.5 6t11.5 -6 l-2 -178l2 -97q4 -66 4 -106q0 -4 -12.5 -4t-12.5 4q0 176 -229 176h-195v-465q0 -68 25.5 -94.5t91.5 -26.5h100q274 0 348 266q1 5 9 5q6 0 11 -3.5t5 -5.5q-20 -156 -20 -284q0 -16 -6.5 -23.5t-24.5 -7.5h-889q-6 0 -6 12.5zM496 1573q0 49 29.5 77.5t82.5 28.5 q51 0 80 -28.5t29 -77.5q0 -53 -29 -83t-80 -30q-53 0 -82.5 30t-29.5 83z" />
<glyph unicode="&#x117;" horiz-adv-x="849" d="M68 371q0 121 59 221t162.5 158.5t230.5 58.5q123 0 190.5 -59.5t67.5 -176.5q0 -59 -24 -59l-500 -2q-2 -18 -2 -55q0 -180 83 -285.5t236 -105.5q57 0 96.5 13t104.5 48l4 2q4 0 9.5 -8t0.5 -12q-76 -70 -151.5 -102t-163.5 -32q-125 0 -216 55.5t-139 145.5t-48 195z M258 549l328 6q-4 213 -140 213q-75 0 -123.5 -58.5t-64.5 -160.5zM362 1137q0 51 30 78.5t83 27.5q51 0 80 -27.5t29 -78.5q0 -53 -28 -82t-81 -29t-83 28.5t-30 82.5z" />
<glyph unicode="&#x118;" horiz-adv-x="1120" d="M80 12.5q0 12.5 6 12.5q70 0 101.5 10t43 39.5t11.5 91.5v948q0 61 -11.5 90t-44 40t-100.5 11q-6 0 -6 12.5t6 12.5h852q20 0 20 -18l5 -267q0 -4 -11.5 -6t-13.5 4q-49 233 -285 234h-82q-74 0 -104.5 -26.5t-30.5 -90.5v-418h197q225 0 225 152q0 6 11.5 6t11.5 -6 l-2 -178l2 -97q4 -66 4 -106q0 -4 -12.5 -4t-12.5 4q0 176 -229 176h-195v-465q0 -68 25.5 -94.5t91.5 -26.5h100q274 0 348 266q0 4 9 5q6 0 11 -3.5t5 -5.5q-20 -156 -20 -284q0 -16 -6.5 -23.5t-24.5 -7.5h-117q-70 -68 -100.5 -126t-30.5 -132q0 -102 52 -164.5 t145 -62.5q29 0 57.5 9t44.5 21h4q6 0 11.5 -6t-1.5 -10q-109 -92 -227 -92q-104 0 -171 61.5t-67 155.5q0 168 242 346h-731q-6 0 -6 12.5z" />
<glyph unicode="&#x119;" horiz-adv-x="849" d="M68 371q0 121 59 221t162.5 158.5t230.5 58.5q123 0 190.5 -59.5t67.5 -176.5q0 -59 -24 -59l-500 -2q-2 -18 -2 -55q0 -180 83 -285.5t236 -105.5q57 0 96.5 13t104.5 48l4 2q4 0 9.5 -8t0.5 -12q-45 -41 -77 -62q-100 -92 -145.5 -176t-45.5 -174t39 -138t113 -48 q33 0 55.5 9t44.5 25h4q6 0 11.5 -6t-1.5 -10q-49 -49 -98 -70.5t-106 -21.5q-109 0 -169.5 52t-60.5 142q0 176 240 361q-51 -16 -119 -17q-125 0 -216 55.5t-139 145.5t-48 195zM258 549l328 6q-4 213 -140 213q-75 0 -123.5 -58.5t-64.5 -160.5z" />
<glyph unicode="&#x11a;" horiz-adv-x="1120" d="M80 12.5q0 12.5 6 12.5q70 0 101.5 10t43 39.5t11.5 91.5v948q0 61 -11.5 90t-44 40t-100.5 11q-6 0 -6 12.5t6 12.5h852q20 0 20 -18l5 -267q0 -4 -11.5 -6t-13.5 4q-49 233 -285 234h-82q-74 0 -104.5 -26.5t-30.5 -90.5v-418h197q225 0 225 152q0 6 11.5 6t11.5 -6 l-2 -178l2 -97q4 -66 4 -106q0 -4 -12.5 -4t-12.5 4q0 176 -229 176h-195v-465q0 -68 25.5 -94.5t91.5 -26.5h100q274 0 348 266q1 5 9 5q6 0 11 -3.5t5 -5.5q-20 -156 -20 -284q0 -16 -6.5 -23.5t-24.5 -7.5h-889q-6 0 -6 12.5zM371 1630v2q0 6 5 11.5t7 1.5l223 -93 l221 95h2q6 0 9.5 -5.5t-0.5 -9.5l-209 -225q-8 -8 -23 -8q-16 0 -24 8z" />
<glyph unicode="&#x11b;" horiz-adv-x="849" d="M68 371q0 121 59 221t162.5 158.5t230.5 58.5q123 0 190.5 -59.5t67.5 -176.5q0 -59 -24 -59l-500 -2q-2 -18 -2 -55q0 -180 83 -285.5t236 -105.5q57 0 96.5 13t104.5 48l4 2q4 0 9.5 -8t0.5 -12q-76 -70 -151.5 -102t-163.5 -32q-125 0 -216 55.5t-139 145.5t-48 195z M258 549l328 6q-4 213 -140 213q-75 0 -123.5 -58.5t-64.5 -160.5zM311 1487q-2 6 8.5 8t14.5 -2l141 -262l139 262q4 4 13.5 2t7.5 -8l-137 -510q-4 -10 -23 -10q-18 0 -24 10z" />
<glyph unicode="&#x11c;" horiz-adv-x="1484" d="M100 637q0 197 102.5 348.5t283 234.5t403.5 83q102 0 199.5 -16.5t158.5 -47.5q18 -8 21.5 -14t5.5 -33l26 -270q0 -6 -11 -8.5t-13 6.5q-43 129 -157.5 236.5t-295.5 107.5q-141 0 -256.5 -72t-182.5 -206t-67 -310q0 -186 73 -339t207 -241t308 -88q88 0 137.5 20.5 t72 74t22.5 155.5q0 106 -12.5 148.5t-54.5 56.5t-146 14q-12 0 -13 17q0 6 3.5 11t7.5 5q170 -10 272 -10t213 6q4 0 7 -5t3 -9q0 -14 -10 -15q-41 2 -57.5 -13t-21.5 -62.5t-5 -163.5q0 -92 7 -131t7 -50q0 -12 -4 -16t-18 -8q-258 -57 -461 -58q-231 0 -402 88.5 t-261.5 239t-90.5 334.5zM600 1432l211 225q10 10 25 10q12 0 22 -10l209 -225q2 0 2 -5q0 -4 -5 -8t-7 -2l-221 92l-224 -92q-4 -2 -10 5.5t-2 9.5z" />
<glyph unicode="&#x11d;" horiz-adv-x="919" d="M55 -346q0 145 209 285q-152 29 -151 145q0 63 35.5 116.5t109.5 104.5q-76 35 -118 100.5t-42 139.5q0 80 49.5 139t128 90t168.5 31q131 0 218 -66q55 35 108 52.5t115 17.5q14 0 14 -53q0 -29 -7 -59.5t-15 -24.5q-86 33 -148 33q-18 0 -27 -3q59 -66 60 -155 q0 -78 -49 -141.5t-129 -98.5t-170 -35q-68 0 -123 19q-45 -43 -45 -103q0 -74 60.5 -94t207.5 -22q117 -2 190.5 -12.5t128 -57.5t54.5 -147q0 -113 -72 -212.5t-190.5 -158.5t-253.5 -59q-141 0 -228.5 63t-87.5 166zM217 -252q0 -123 75 -191.5t189 -68.5 q117 0 187.5 68.5t70.5 185.5q0 86 -37.5 125t-100 49t-177.5 10q-57 0 -111 6q-96 -70 -96 -184zM272 602q0 -86 28 -153.5t72 -104.5t91 -37q53 0 88 46t35 141q0 86 -30 148.5t-76 94t-97 31.5q-111 0 -111 -166zM287 975l139 510q2 10 23 10q23 0 24 -10l137 -510v-2 q0 -4 -9 -6t-11 4l-139 260l-142 -260q-2 -6 -13 -3t-9 7z" />
<glyph unicode="&#x11e;" horiz-adv-x="1484" d="M100 637q0 197 102.5 348.5t283 234.5t403.5 83q102 0 199.5 -16.5t158.5 -47.5q18 -8 21.5 -14t5.5 -33l26 -270q0 -6 -11 -8.5t-13 6.5q-43 129 -157.5 236.5t-295.5 107.5q-141 0 -256.5 -72t-182.5 -206t-67 -310q0 -186 73 -339t207 -241t308 -88q88 0 137.5 20.5 t72 74t22.5 155.5q0 106 -12.5 148.5t-54.5 56.5t-146 14q-12 0 -13 17q0 6 3.5 11t7.5 5q170 -10 272 -10t213 6q4 0 7 -5t3 -9q0 -14 -10 -15q-41 2 -57.5 -13t-21.5 -62.5t-5 -163.5q0 -92 7 -131t7 -50q0 -12 -4 -16t-18 -8q-258 -57 -461 -58q-231 0 -402 88.5 t-261.5 239t-90.5 334.5zM623 1659q0 8 10 8t12 -4q4 -43 59.5 -79t129.5 -36q72 0 127 36t59 79q0 6 11 5t11 -9q-4 -119 -57 -182.5t-151 -63.5q-99 0 -153 63.5t-58 182.5z" />
<glyph unicode="&#x11f;" horiz-adv-x="919" d="M55 -346q0 145 209 285q-152 29 -151 145q0 63 35.5 116.5t109.5 104.5q-76 35 -118 100.5t-42 139.5q0 80 49.5 139t128 90t168.5 31q131 0 218 -66q55 35 108 52.5t115 17.5q14 0 14 -53q0 -29 -7 -59.5t-15 -24.5q-86 33 -148 33q-18 0 -27 -3q59 -66 60 -155 q0 -78 -49 -141.5t-129 -98.5t-170 -35q-68 0 -123 19q-45 -43 -45 -103q0 -74 60.5 -94t207.5 -22q117 -2 190.5 -12.5t128 -57.5t54.5 -147q0 -113 -72 -212.5t-190.5 -158.5t-253.5 -59q-141 0 -228.5 63t-87.5 166zM217 -252q0 -123 75 -191.5t189 -68.5 q117 0 187.5 68.5t70.5 185.5q0 86 -37.5 125t-100 49t-177.5 10q-57 0 -111 6q-96 -70 -96 -184zM238 1278q0 8 11 9t11 -5q0 -74 54.5 -127t134.5 -53q78 0 132 53t54 127q0 6 11 5t11 -9q0 -158 -53 -241t-155 -83q-103 0 -157 83t-54 241zM272 602q0 -86 28 -153.5 t72 -104.5t91 -37q53 0 88 46t35 141q0 86 -30 148.5t-76 94t-97 31.5q-111 0 -111 -166z" />
<glyph unicode="&#x120;" horiz-adv-x="1484" d="M100 637q0 197 102.5 348.5t283 234.5t403.5 83q102 0 199.5 -16.5t158.5 -47.5q18 -8 21.5 -14t5.5 -33l26 -270q0 -6 -11 -8.5t-13 6.5q-43 129 -157.5 236.5t-295.5 107.5q-141 0 -256.5 -72t-182.5 -206t-67 -310q0 -186 73 -339t207 -241t308 -88q88 0 137.5 20.5 t72 74t22.5 155.5q0 106 -12.5 148.5t-54.5 56.5t-146 14q-12 0 -13 17q0 6 3.5 11t7.5 5q170 -10 272 -10t213 6q4 0 7 -5t3 -9q0 -14 -10 -15q-41 2 -57.5 -13t-21.5 -62.5t-5 -163.5q0 -92 7 -131t7 -50q0 -12 -4 -16t-18 -8q-258 -57 -461 -58q-231 0 -402 88.5 t-261.5 239t-90.5 334.5zM721 1573q0 49 29.5 77.5t83.5 28.5q51 0 79.5 -28.5t28.5 -77.5q0 -53 -28.5 -83t-79.5 -30q-54 0 -83.5 30t-29.5 83z" />
<glyph unicode="&#x121;" horiz-adv-x="919" d="M55 -346q0 145 209 285q-152 29 -151 145q0 63 35.5 116.5t109.5 104.5q-76 35 -118 100.5t-42 139.5q0 80 49.5 139t128 90t168.5 31q131 0 218 -66q55 35 108 52.5t115 17.5q14 0 14 -53q0 -29 -7 -59.5t-15 -24.5q-86 33 -148 33q-18 0 -27 -3q59 -66 60 -155 q0 -78 -49 -141.5t-129 -98.5t-170 -35q-68 0 -123 19q-45 -43 -45 -103q0 -74 60.5 -94t207.5 -22q117 -2 190.5 -12.5t128 -57.5t54.5 -147q0 -113 -72 -212.5t-190.5 -158.5t-253.5 -59q-141 0 -228.5 63t-87.5 166zM217 -252q0 -123 75 -191.5t189 -68.5 q117 0 187.5 68.5t70.5 185.5q0 86 -37.5 125t-100 49t-177.5 10q-57 0 -111 6q-96 -70 -96 -184zM272 602q0 -86 28 -153.5t72 -104.5t91 -37q53 0 88 46t35 141q0 86 -30 148.5t-76 94t-97 31.5q-111 0 -111 -166zM336 1137q0 51 29.5 78.5t83.5 27.5q51 0 79.5 -27.5 t28.5 -78.5q0 -53 -27.5 -82t-80.5 -29q-54 0 -83.5 28.5t-29.5 82.5z" />
<glyph unicode="&#x122;" horiz-adv-x="1484" d="M100 637q0 197 102.5 348.5t283 234.5t403.5 83q102 0 199.5 -16.5t158.5 -47.5q18 -8 21.5 -14t5.5 -33l26 -270q0 -6 -11 -8.5t-13 6.5q-43 129 -157.5 236.5t-295.5 107.5q-141 0 -256.5 -72t-182.5 -206t-67 -310q0 -186 73 -339t207 -241t308 -88q88 0 137.5 20.5 t72 74t22.5 155.5q0 106 -12.5 148.5t-54.5 56.5t-146 14q-12 0 -13 17q0 6 3.5 11t7.5 5q170 -10 272 -10t213 6q4 0 7 -5t3 -9q0 -14 -10 -15q-41 2 -57.5 -13t-21.5 -62.5t-5 -163.5q0 -92 7 -131t7 -50q0 -12 -4 -16t-18 -8q-258 -57 -461 -58q-231 0 -402 88.5 t-261.5 239t-90.5 334.5zM741 -258q0 51 34 78.5t83 27.5q66 0 100.5 -43t34.5 -118q0 -76 -37.5 -135.5t-107.5 -114.5l-4 -2q-8 0 -12.5 8t2.5 12q94 76 94 154q0 43 -17 63q-23 -35 -77 -34q-41 0 -67 28.5t-26 75.5z" />
<glyph unicode="&#x123;" horiz-adv-x="919" d="M55 -346q0 145 209 285q-152 29 -151 145q0 63 35.5 116.5t109.5 104.5q-76 35 -118 100.5t-42 139.5q0 80 49.5 139t128 90t168.5 31q131 0 218 -66q55 35 108 52.5t115 17.5q14 0 14 -53q0 -29 -7 -59.5t-15 -24.5q-86 33 -148 33q-18 0 -27 -3q59 -66 60 -155 q0 -78 -49 -141.5t-129 -98.5t-170 -35q-68 0 -123 19q-45 -43 -45 -103q0 -74 60.5 -94t207.5 -22q117 -2 190.5 -12.5t128 -57.5t54.5 -147q0 -113 -72 -212.5t-190.5 -158.5t-253.5 -59q-141 0 -228.5 63t-87.5 166zM217 -252q0 -123 75 -191.5t189 -68.5 q117 0 187.5 68.5t70.5 185.5q0 86 -37.5 125t-100 49t-177.5 10q-57 0 -111 6q-96 -70 -96 -184zM272 602q0 -86 28 -153.5t72 -104.5t91 -37q53 0 88 46t35 141q0 86 -30 148.5t-76 94t-97 31.5q-111 0 -111 -166zM317 1145q0 76 38 135t108 115l4 2q8 0 12 -8.5t-2 -12.5 q-94 -76 -94 -153q0 -43 16 -64q23 35 78 35q41 0 66.5 -28.5t25.5 -75.5q0 -51 -33.5 -79t-82.5 -28q-66 0 -101 43t-35 119z" />
<glyph unicode="&#x124;" horiz-adv-x="1560" d="M61.5 12.5q-0.5 12.5 4.5 12.5q74 0 108.5 10t46.5 39.5t12 91.5v948q0 61 -12 90t-47 40t-106 11q-4 0 -4.5 12.5t4.5 12.5l108 -2q94 -4 148 -4q72 0 170 4l108 2q4 0 4 -12.5t-4 -12.5q-76 0 -111.5 -12t-49 -42t-13.5 -91v-418h702v418q0 61 -12 91t-48 42t-112 12 q-6 0 -6 12.5t6 12.5l99 -2q98 -4 174 -4q55 0 149 4l113 2q6 0 6 -12.5t-6 -12.5q-74 0 -107.5 -11t-46 -39.5t-12.5 -90.5v-948q0 -61 12.5 -91t46 -40t107.5 -10q6 0 6 -12.5t-6 -12.5q-70 0 -113 2l-149 2l-174 -2q-37 -2 -99 -2q-6 0 -6 12.5t6 12.5q78 0 113 10 t47 38.5t12 92.5v473h-702v-473q0 -61 12.5 -91t48 -40t113.5 -10q4 0 4 -12.5t-4 -12.5q-70 0 -108 2l-170 2l-150 -2q-39 -2 -108 -2q-4 0 -4.5 12.5zM551 1432l211 225q10 10 24 10q12 0 23 -10l209 -225q2 0 2 -5q0 -4 -5 -8t-7 -2l-222 92l-223 -92q-4 -2 -10 5.5 t-2 9.5z" />
<glyph unicode="&#x125;" horiz-adv-x="1036" d="M5 1334.5q-5 11.5 1 13.5l285 135l10 2q8 0 17.5 -8.5t9.5 -14.5v-819q147 170 313 170q113 0 175.5 -67.5t62.5 -184.5v-395q0 -84 23.5 -112.5t92.5 -28.5q9 0 9 -12.5t-9 -12.5q-51 0 -82 2l-116 2l-117 -2q-31 -2 -82 -2q-6 0 -6 12.5t6 12.5q68 0 92.5 29.5 t24.5 111.5v305q0 225 -176 225q-55 0 -111.5 -25.5t-99.5 -68.5v-436q0 -84 23.5 -112.5t92.5 -28.5q8 0 8.5 -12.5t-8.5 -12.5q-51 0 -82 2l-116 2l-117 -2q-31 -2 -82 -2q-6 0 -6 12.5t6 12.5q68 0 92.5 29.5t24.5 111.5v1046q0 72 -14.5 104t-47.5 32q-31 0 -84 -25h-2 q-6 0 -11 11.5zM29 1503l211 226q10 10 24 10q12 0 23 -10l209 -226q2 0 2 -4t-5.5 -8t-7.5 -2l-221 92l-223 -92q-4 -2 -10 5t-2 9z" />
<glyph unicode="&#x126;" horiz-adv-x="1560" d="M61.5 12.5q-0.5 12.5 4.5 12.5q74 0 108.5 10t46.5 39.5t12 91.5v948q0 61 -12 90t-47 40t-106 11q-4 0 -4.5 12.5t4.5 12.5l108 -2q94 -4 148 -4q72 0 170 4l108 2q4 0 4 -12.5t-4 -12.5q-76 0 -111.5 -12t-49 -42t-13.5 -91v-225h702v225q0 61 -12 91t-48 42t-112 12 q-6 0 -6 12.5t6 12.5l99 -2q98 -4 174 -4q55 0 149 4l113 2q6 0 6 -12.5t-6 -12.5q-74 0 -107.5 -11t-46 -39.5t-12.5 -90.5v-948q0 -61 12.5 -91t46 -40t107.5 -10q6 0 6 -12.5t-6 -12.5q-70 0 -113 2l-149 2l-174 -2q-37 -2 -99 -2q-6 0 -6 12.5t6 12.5q78 0 113 10 t47 38.5t12 92.5v283h-702v-283q0 -61 12.5 -91t48 -40t113.5 -10q4 0 4 -12.5t-4 -12.5q-70 0 -108 2l-170 2l-150 -2q-39 -2 -108 -2q-4 0 -4.5 12.5zM428 502h702v329h-702v-329z" />
<glyph unicode="&#x127;" horiz-adv-x="1036" d="M2 1057q0 27 14 26h148v129q0 72 -14.5 104t-47.5 32q-31 0 -84 -25h-2q-6 0 -11 11.5t1 13.5l285 135l10 2q8 0 17.5 -8.5t9.5 -14.5v-379h311q14 0 14 -26q0 -27 -14 -27h-311v-387q147 170 313 170q113 0 175.5 -67.5t62.5 -184.5v-395q0 -84 23.5 -112.5t92.5 -28.5 q9 0 9 -12.5t-9 -12.5q-51 0 -82 2l-116 2l-117 -2q-31 -2 -82 -2q-6 0 -6 12.5t6 12.5q68 0 92.5 29.5t24.5 111.5v305q0 225 -176 225q-55 0 -111.5 -25.5t-99.5 -68.5v-436q0 -84 23.5 -112.5t92.5 -28.5q8 0 8.5 -12.5t-8.5 -12.5q-51 0 -82 2l-116 2l-117 -2 q-31 -2 -82 -2q-6 0 -6 12.5t6 12.5q68 0 92.5 29.5t24.5 111.5v864h-148q-14 0 -14 27z" />
<glyph unicode="&#x128;" horiz-adv-x="694" d="M76 1442q35 59 81 106t97 47q23 0 100 -20q94 -29 150 -29q37 0 57.5 12.5t46.5 43.5h2q6 0 10.5 -5.5t2.5 -9.5q-55 -92 -89 -122.5t-77 -30.5q-33 0 -73 10l-48 12q-84 27 -141 27q-35 0 -52.5 -9.5t-32 -24.5t-20.5 -22h-2q-4 0 -9 5.5t-3 9.5zM84 12.5q0 12.5 6 12.5 q70 0 101.5 10t44 39.5t12.5 91.5v948q0 61 -12.5 90t-44 40t-101.5 11q-6 0 -6 12.5t6 12.5l107 -2q90 -4 147 -4q63 0 154 4l102 2q6 0 6 -12.5t-6 -12.5q-68 0 -99.5 -12t-43 -42t-11.5 -91v-944q0 -64 10.5 -92.5t42 -38.5t101.5 -10q6 0 6 -12.5t-6 -12.5q-66 0 -104 2 l-152 2l-147 -2q-39 -2 -107 -2q-6 0 -6 12.5z" />
<glyph unicode="&#x129;" horiz-adv-x="544" d="M47 657.5q-4 10.5 2 14.5l295 137l6 2q8 0 17.5 -9t9.5 -16v-43q-4 -86 -4 -202v-375q0 -84 23.5 -112.5t92.5 -28.5q6 0 6.5 -12.5t-6.5 -12.5q-51 0 -81 2l-119 2l-119 -2q-29 -2 -80 -2q-6 0 -6 12.5t6 12.5q70 0 92.5 28.5t22.5 112.5v373q0 70 -14.5 101.5 t-49.5 31.5q-31 0 -80 -25h-2q-8 0 -12 10.5zM53 983q96 154 174 154q23 0 68 -23q57 -29 94 -29q35 0 56.5 14.5t43.5 41.5l5 2q4 0 8 -6.5t2 -10.5q-53 -88 -88 -119.5t-72 -31.5q-25 0 -50.5 10t-31.5 12q-53 27 -92 27q-33 0 -52.5 -11.5t-32.5 -25.5t-17 -18h-2 q-4 0 -9.5 5t-3.5 9z" />
<glyph unicode="&#x12a;" horiz-adv-x="694" d="M72 1501q0 14 4 24.5t12 10.5h514q8 0 13.5 -10t5.5 -25q0 -14 -5.5 -24.5t-13.5 -10.5h-514q-8 0 -12 11.5t-4 23.5zM84 12.5q0 12.5 6 12.5q70 0 101.5 10t44 39.5t12.5 91.5v948q0 61 -12.5 90t-44 40t-101.5 11q-6 0 -6 12.5t6 12.5l107 -2q90 -4 147 -4q63 0 154 4 l102 2q6 0 6 -12.5t-6 -12.5q-68 0 -99.5 -12t-43 -42t-11.5 -91v-944q0 -64 10.5 -92.5t42 -38.5t101.5 -10q6 0 6 -12.5t-6 -12.5q-66 0 -104 2l-152 2l-147 -2q-39 -2 -107 -2q-6 0 -6 12.5z" />
<glyph unicode="&#x12b;" horiz-adv-x="544" d="M4 1012q0 14 4 24.5t12 10.5h515q8 0 13 -10.5t5 -24.5t-5 -24.5t-13 -10.5h-515q-8 0 -12 11t-4 24zM47 657.5q-4 10.5 2 14.5l295 137l6 2q8 0 17.5 -9t9.5 -16v-43q-4 -86 -4 -202v-375q0 -84 23.5 -112.5t92.5 -28.5q6 0 6.5 -12.5t-6.5 -12.5q-51 0 -81 2l-119 2 l-119 -2q-29 -2 -80 -2q-6 0 -6 12.5t6 12.5q70 0 92.5 28.5t22.5 112.5v373q0 70 -14.5 101.5t-49.5 31.5q-31 0 -80 -25h-2q-8 0 -12 10.5z" />
<glyph unicode="&#x12c;" horiz-adv-x="694" d="M84 12.5q0 12.5 6 12.5q70 0 101.5 10t44 39.5t12.5 91.5v948q0 61 -12.5 90t-44 40t-101.5 11q-6 0 -6 12.5t6 12.5l107 -2q90 -4 147 -4q63 0 154 4l102 2q6 0 6 -12.5t-6 -12.5q-68 0 -99.5 -12t-43 -42t-11.5 -91v-944q0 -64 10.5 -92.5t42 -38.5t101.5 -10 q6 0 6 -12.5t-6 -12.5q-66 0 -104 2l-152 2l-147 -2q-39 -2 -107 -2q-6 0 -6 12.5zM135 1659q0 8 10.5 8t12.5 -4q4 -43 59 -79t129 -36q72 0 127 36t59 79q0 6 11.5 5t11.5 -9q-4 -119 -57.5 -182.5t-151.5 -63.5t-152.5 63.5t-58.5 182.5z" />
<glyph unicode="&#x12d;" horiz-adv-x="544" d="M47 657.5q-4 10.5 2 14.5l295 137l6 2q8 0 17.5 -9t9.5 -16v-43q-4 -86 -4 -202v-375q0 -84 23.5 -112.5t92.5 -28.5q6 0 6.5 -12.5t-6.5 -12.5q-51 0 -81 2l-119 2l-119 -2q-29 -2 -80 -2q-6 0 -6 12.5t6 12.5q70 0 92.5 28.5t22.5 112.5v373q0 70 -14.5 101.5 t-49.5 31.5q-31 0 -80 -25h-2q-8 0 -12 10.5zM68 1278q0 8 11 9t11 -5q0 -74 54.5 -127t134.5 -53q78 0 132 53t54 127q0 6 11 5t11 -9q0 -158 -53 -241t-155 -83t-156.5 83t-54.5 241z" />
<glyph unicode="&#x12e;" horiz-adv-x="694" d="M84 12.5q0 12.5 6 12.5q70 0 101.5 10t44 39.5t12.5 91.5v948q0 61 -12.5 90t-44 40t-101.5 11q-6 0 -6 12.5t6 12.5l107 -2q90 -4 147 -4q63 0 154 4l102 2q6 0 6 -12.5t-6 -12.5q-68 0 -99.5 -12t-43 -42t-11.5 -91v-944q0 -63 10.5 -92t42 -39t101.5 -10q6 0 6 -12.5 t-6 -12.5q-63 0 -98 2l-142 2q-57 -102 -57 -223q0 -111 50 -185.5t124 -74.5q41 0 78 24h4q6 0 11 -6t-1 -10q-49 -49 -96 -70.5t-111 -21.5q-98 0 -154 57t-56 156q0 170 174 354l-136 -2q-37 -2 -100 -2q-6 0 -6 12.5z" />
<glyph unicode="&#x12f;" horiz-adv-x="544" d="M47 657.5q-4 10.5 2 14.5l295 137l6 2q8 0 17.5 -9t9.5 -16v-43q-4 -86 -4 -202v-375q0 -84 23.5 -112.5t92.5 -28.5q6 0 6.5 -12.5t-6.5 -12.5q-49 0 -77 2l-111 2q-53 -104 -53 -215t50 -185.5t124 -74.5q41 0 78 25h4q6 0 11 -6.5t-1 -10.5q-49 -49 -96 -70.5 t-111 -21.5q-98 0 -154.5 57.5t-56.5 155.5q0 170 166 346l-102 -2q-25 -2 -70 -2q-6 0 -6 12.5t6 12.5q70 0 92.5 28.5t22.5 112.5v373q0 70 -14.5 101.5t-49.5 31.5q-31 0 -80 -25h-2q-8 0 -12 10.5zM166 1137q0 51 29.5 78.5t83.5 27.5q51 0 79.5 -27.5t28.5 -78.5 q0 -53 -27.5 -82t-80.5 -29q-54 0 -83.5 28.5t-29.5 82.5z" />
<glyph unicode="&#x130;" horiz-adv-x="694" d="M84 12.5q0 12.5 6 12.5q70 0 101.5 10t44 39.5t12.5 91.5v948q0 61 -12.5 90t-44 40t-101.5 11q-6 0 -6 12.5t6 12.5l107 -2q90 -4 147 -4q63 0 154 4l102 2q6 0 6 -12.5t-6 -12.5q-68 0 -99.5 -12t-43 -42t-11.5 -91v-944q0 -64 10.5 -92.5t42 -38.5t101.5 -10 q6 0 6 -12.5t-6 -12.5q-66 0 -104 2l-152 2l-147 -2q-39 -2 -107 -2q-6 0 -6 12.5zM236 1573q0 49 29.5 77.5t82.5 28.5q51 0 80 -28.5t29 -77.5q0 -53 -29 -83t-80 -30q-53 0 -82.5 30t-29.5 83z" />
<glyph unicode="&#x131;" horiz-adv-x="544" d="M47 657.5q-4 10.5 2 14.5l295 137l6 2q8 0 17.5 -9t9.5 -16v-43q-4 -86 -4 -202v-375q0 -84 23.5 -112.5t92.5 -28.5q6 0 6.5 -12.5t-6.5 -12.5q-51 0 -81 2l-119 2l-119 -2q-29 -2 -80 -2q-6 0 -6 12.5t6 12.5q70 0 92.5 28.5t22.5 112.5v373q0 70 -14.5 101.5 t-49.5 31.5q-31 0 -80 -25h-2q-8 0 -12 10.5z" />
<glyph unicode="&#x132;" horiz-adv-x="1425" d="M76 563q0 12 4 12q70 0 101.5 10.5t44 40t12.5 91.5v397q0 61 -12.5 90t-44 40t-101.5 11q-4 0 -4 12.5t4 12.5l110 -2q90 -4 144 -4q61 0 155 4l103 2q4 0 4 -12.5t-4 -12.5q-70 0 -102.5 -12t-44 -42t-11.5 -91v-393q0 -64 11.5 -92.5t43 -39t103.5 -10.5q4 0 4 -12 t-4 -12q-68 0 -107 2l-151 2l-144 -2q-41 -2 -110 -2q-4 0 -4 12zM219 270q0 45 27.5 75t81.5 30q57 0 79.5 -36t38.5 -108q16 -70 36 -112.5t72 -74.5t148 -32q330 0 330 398v704q0 61 -13 90t-50 40t-117 11q-6 0 -6 12.5t6 12.5l125 -2q94 -4 151 -4q55 0 142 4l92 2 q6 0 6 -12.5t-6 -12.5q-57 0 -85 -12t-37 -42t-9 -91v-582q0 -176 -65.5 -301t-184.5 -189.5t-276 -64.5q-133 0 -245 43t-176.5 112t-64.5 142z" />
<glyph unicode="&#x133;" horiz-adv-x="1085" d="M47 657.5q-4 10.5 2 14.5l295 137l6 2q8 0 17.5 -9t9.5 -16v-43q-4 -86 -4 -202v-375q0 -84 23.5 -112.5t92.5 -28.5q6 0 6.5 -12.5t-6.5 -12.5q-51 0 -81 2l-119 2l-119 -2q-29 -2 -80 -2q-6 0 -6 12.5t6 12.5q70 0 92.5 28.5t22.5 112.5v373q0 70 -14.5 101.5 t-49.5 31.5q-31 0 -80 -25h-2q-8 0 -12 10.5zM166 1137q0 51 29.5 78.5t83.5 27.5q51 0 79.5 -27.5t28.5 -78.5q0 -53 -27.5 -82t-80.5 -29q-54 0 -83.5 28.5t-29.5 82.5zM568.5 -568.5q-5.5 11.5 0.5 13.5q98 43 139.5 137t41.5 273v684q0 72 -13.5 102.5t-46.5 30.5 t-82 -25h-2q-8 0 -13 10.5t1 14.5l295 137l6 2q8 0 17.5 -9t9.5 -16v-43q-4 -86 -4 -202v-639q0 -139 -32 -228.5t-104.5 -149t-203.5 -102.5q-4 -2 -9.5 9.5zM707 1137q0 51 29.5 78.5t82.5 27.5q51 0 80 -27.5t29 -78.5q0 -53 -28 -82t-81 -29t-82.5 28.5t-29.5 82.5z" />
<glyph unicode="&#x134;" horiz-adv-x="681" d="M-109 -385q0 37 25 64.5t70 27.5t69.5 -25.5t44.5 -70.5q14 -33 28.5 -49.5t35.5 -16.5q53 0 78.5 75t25.5 245v1249q0 61 -13 90t-51 40t-118 11q-4 0 -4 12.5t4 12.5l123 -2q98 -4 156 -4q55 0 141 4l92 2q6 0 6 -12.5t-6 -12.5q-57 0 -85 -12t-37 -42t-9 -91v-1135 q0 -221 -107.5 -347t-302.5 -126q-74 0 -120 30t-46 83zM117 1438l211 225q10 10 24 10q12 0 23 -10l209 -225q2 0 2 -4t-5.5 -8.5t-7.5 -2.5l-221 93l-223 -93q-4 -2 -10 5.5t-2 9.5z" />
<glyph unicode="&#x135;" horiz-adv-x="534" d="M17.5 -568.5q-5.5 11.5 0.5 13.5q98 43 139.5 137t41.5 273v684q0 72 -13.5 102.5t-46.5 30.5t-82 -25h-2q-8 0 -13 10.5t1 14.5l295 137l6 2q8 0 17.5 -9t9.5 -16v-43q-4 -86 -4 -202v-639q0 -139 -32 -228.5t-104.5 -149t-203.5 -102.5q-4 -2 -9.5 9.5zM106 975 l140 510q2 10 22 10q23 0 25 -10l137 -510v-2q0 -4 -9 -6t-11 4l-140 260l-141 -260q-2 -6 -13.5 -3t-9.5 7z" />
<glyph unicode="&#x136;" horiz-adv-x="1337" d="M61.5 12.5q-0.5 12.5 4.5 12.5q70 0 101.5 10t43.5 39.5t12 91.5v948q0 61 -11 90t-44 40t-100 11q-4 0 -4.5 12.5t4.5 12.5l108 -2q90 -4 143 -4q61 0 152 4l102 2q6 0 6.5 -12.5t-6.5 -12.5q-68 0 -99.5 -12t-42.5 -42t-11 -91v-432l401 405q63 63 64 107q0 31 -32 48 t-93 17q-4 0 -4 12.5t4 12.5l92 -2q90 -4 164 -4q80 0 162 4l88 2q6 0 6 -12.5t-6 -12.5q-90 0 -197.5 -49t-196.5 -135l-262 -262l301 -399q139 -190 210 -269.5t112 -97.5t110 -18q7 0 7 -12.5t-7 -12.5h-229l-80 -2q-29 0 -49 12.5t-47 45t-98 128.5l-84 113l-285 373 l-51 -54v-450q0 -63 10 -92t42 -39t101 -10q8 0 8.5 -12.5t-8.5 -12.5q-66 0 -104 2l-150 2l-145 -2q-39 -2 -108 -2q-4 0 -4.5 12.5zM584 -258q0 51 33.5 78.5t82.5 27.5q66 0 101 -43t35 -118q0 -76 -38 -135.5t-108 -114.5l-4 -2q-8 0 -12 8t2 12q94 76 94 154 q0 43 -16 63q-23 -35 -78 -34q-41 0 -66.5 28.5t-25.5 75.5z" />
<glyph unicode="&#x137;" horiz-adv-x="1005" d="M5 1334.5q-5 11.5 1 13.5l285 135l10 2q8 0 17.5 -8.5t9.5 -14.5v-1048l219 196q57 49 57 97q0 27 -23.5 43t-66.5 16q-6 0 -6 12.5t6 12.5q57 0 90 -3l156 -2l145 2q29 2 78 3q6 0 6 -12.5t-6 -12.5q-84 0 -190.5 -42t-196.5 -122l-88 -76l272 -360q57 -76 112.5 -108.5 t115.5 -32.5q6 0 6 -12.5t-6 -12.5q-51 0 -82 2l-117 2l-154 -2q-35 -2 -94 -2q-4 0 -4 12.5t4 12.5q84 0 84 43q0 18 -16 41l-240 315l-61 -53v-205q0 -84 23.5 -112.5t92.5 -28.5q8 0 8.5 -12.5t-8.5 -12.5q-51 0 -82 2l-116 2l-117 -2q-31 -2 -82 -2q-6 0 -6 12.5t6 12.5 q68 0 92.5 29.5t24.5 111.5v1046q0 72 -14.5 104t-47.5 32q-31 0 -84 -25h-2q-6 0 -11 11.5zM383 -258q0 51 34 78.5t83 27.5q65 0 100 -43t35 -118q0 -76 -38 -135.5t-108 -114.5l-4 -2q-8 0 -12 8t2 12q94 76 94 154q0 43 -16 63q-23 -35 -78 -34q-41 0 -66.5 28.5 t-25.5 75.5z" />
<glyph unicode="&#x138;" horiz-adv-x="1042" d="M15.5 663.5q-3.5 10.5 2.5 12.5l269 131q12 4 14 4q23 0 43.5 -51t20.5 -133v-213l217 196q59 49 59 97q0 27 -23.5 43t-66.5 16q-6 0 -6 12.5t6 12.5q57 0 90 -3l156 -2l145 2q29 2 78 3q4 0 4 -12.5t-4 -12.5q-84 0 -190.5 -42t-198.5 -122l-88 -78l274 -358 q57 -76 112.5 -108.5t114.5 -32.5q5 0 5 -12.5t-5 -12.5q-51 0 -81 2l-119 2l-152 -2q-35 -2 -94 -2q-6 0 -6 12.5t6 12.5q41 0 61.5 11t20.5 30q0 20 -16 43l-238 315l-61 -53v-205q0 -84 23.5 -112.5t92.5 -28.5q6 0 6 -12.5t-6 -12.5q-51 0 -82 2l-118 2l-117 -2 q-31 -2 -82 -2q-4 0 -4 12.5t4 12.5q70 0 93.5 28.5t23.5 112.5v391q0 66 -15.5 96.5t-52.5 30.5q-31 0 -102 -31h-2q-8 0 -11.5 10.5z" />
<glyph unicode="&#x139;" horiz-adv-x="1107" d="M61.5 12.5q-0.5 12.5 4.5 12.5q70 0 101.5 10t42.5 39.5t11 91.5v948q0 61 -11 90t-44 40t-100 11q-4 0 -4.5 12.5t4.5 12.5l104 -2q90 -4 147 -4q61 0 152 4l102 2q6 0 6.5 -12.5t-6.5 -12.5q-68 0 -99.5 -11t-42.5 -40.5t-11 -91.5v-938q0 -55 9 -79.5t35.5 -33 t86.5 -8.5h123q145 0 245.5 81t133.5 218q2 6 12 5t10 -7q-18 -193 -18 -319q0 -16 -6.5 -23.5t-24.5 -7.5h-958q-4 0 -4.5 12.5zM117 1398q-2 9 4 13q66 39 180 129q94 72 102 78q10 8 65.5 -8.5t97.5 -37t20 -24.5q-127 -31 -232.5 -68.5t-222.5 -88.5l-4 -2q-8 0 -10 9z " />
<glyph unicode="&#x13a;" horiz-adv-x="542" d="M35 1333q-4 10 0 15l289 135l8 2q8 0 19 -8.5t11 -14.5v-1296q0 -84 23 -112.5t92 -28.5q6 0 6 -12.5t-6 -12.5q-49 0 -80 2l-121 2l-118 -2q-31 -2 -82 -2q-6 0 -6 12.5t6 12.5q68 0 92.5 29.5t24.5 111.5v1046q0 72 -13.5 104t-48.5 32q-31 0 -82 -25h-2q-8 0 -12 10z M51 1498q-2 9 4 13q66 39 181 129q94 72 102 78q10 8 65.5 -8t97.5 -36.5t19 -24.5q-127 -31 -232.5 -69t-221.5 -89l-5 -2q-8 0 -10 9z" />
<glyph unicode="&#x13b;" horiz-adv-x="1107" d="M61.5 12.5q-0.5 12.5 4.5 12.5q70 0 101.5 10t42.5 39.5t11 91.5v948q0 61 -11 90t-44 40t-100 11q-4 0 -4.5 12.5t4.5 12.5l104 -2q90 -4 147 -4q61 0 152 4l102 2q6 0 6.5 -12.5t-6.5 -12.5q-68 0 -99.5 -11t-42.5 -40.5t-11 -91.5v-938q0 -55 9 -79.5t35.5 -33 t86.5 -8.5h123q145 0 245.5 81t133.5 218q2 6 12 5t10 -7q-18 -193 -18 -319q0 -16 -6.5 -23.5t-24.5 -7.5h-958q-4 0 -4.5 12.5zM473 -258q0 51 34 78.5t83 27.5q65 0 100 -43t35 -118q0 -76 -38 -135.5t-107 -114.5l-5 -2q-8 0 -12 8t2 12q94 76 94 154q0 43 -16 63 q-23 -35 -78 -34q-41 0 -66.5 28.5t-25.5 75.5z" />
<glyph unicode="&#x13c;" horiz-adv-x="542" d="M35 1333q-4 10 0 15l289 135l8 2q8 0 19 -8.5t11 -14.5v-1296q0 -84 23 -112.5t92 -28.5q6 0 6 -12.5t-6 -12.5q-49 0 -80 2l-121 2l-118 -2q-31 -2 -82 -2q-6 0 -6 12.5t6 12.5q68 0 92.5 29.5t24.5 111.5v1046q0 72 -13.5 104t-48.5 32q-31 0 -82 -25h-2q-8 0 -12 10z M147 -258q0 51 34 78.5t83 27.5q66 0 100.5 -43t34.5 -118q0 -76 -37.5 -135.5t-107.5 -114.5l-4 -2q-8 0 -12.5 8t2.5 12q94 76 94 154q0 43 -17 63q-23 -35 -77 -34q-41 0 -67 28.5t-26 75.5z" />
<glyph unicode="&#x13d;" horiz-adv-x="1107" d="M61.5 12.5q-0.5 12.5 4.5 12.5q70 0 101.5 10t42.5 39.5t11 91.5v948q0 61 -11 90t-44 40t-100 11q-4 0 -4.5 12.5t4.5 12.5l104 -2q90 -4 147 -4q61 0 152 4l102 2q6 0 6.5 -12.5t-6.5 -12.5q-68 0 -99.5 -11t-42.5 -40.5t-11 -91.5v-938q0 -55 9 -79.5t35.5 -33 t86.5 -8.5h123q145 0 245.5 81t133.5 218q2 6 12 5t10 -7q-18 -193 -18 -319q0 -16 -6.5 -23.5t-24.5 -7.5h-958q-4 0 -4.5 12.5zM723 1280q0 10 38 -2t71.5 -33.5t31.5 -36.5l-102 -487q-2 -4 -12.5 -3t-10.5 5z" />
<glyph unicode="&#x13e;" horiz-adv-x="542" d="M35 1333q-4 10 0 15l289 135l8 2q8 0 19 -8.5t11 -14.5v-1296q0 -84 23 -112.5t92 -28.5q6 0 6 -12.5t-6 -12.5q-49 0 -80 2l-121 2l-118 -2q-31 -2 -82 -2q-6 0 -6 12.5t6 12.5q68 0 92.5 29.5t24.5 111.5v1046q0 72 -13.5 104t-48.5 32q-31 0 -82 -25h-2q-8 0 -12 10z M487 1485q0 10 38 -2.5t72 -34t32 -35.5l-103 -487q-2 -4 -12 -3t-10 5z" />
<glyph unicode="&#x13f;" horiz-adv-x="1107" d="M61.5 12.5q-0.5 12.5 4.5 12.5q70 0 101.5 10t42.5 39.5t11 91.5v948q0 61 -11 90t-44 40t-100 11q-4 0 -4.5 12.5t4.5 12.5l104 -2q90 -4 147 -4q61 0 152 4l102 2q6 0 6.5 -12.5t-6.5 -12.5q-68 0 -99.5 -11t-42.5 -40.5t-11 -91.5v-938q0 -55 9 -79.5t35.5 -33 t86.5 -8.5h123q145 0 245.5 81t133.5 218q2 6 12 5t10 -7q-18 -193 -18 -319q0 -16 -6.5 -23.5t-24.5 -7.5h-958q-4 0 -4.5 12.5zM764 651q0 49 30.5 78t82.5 29q53 0 81.5 -29t28.5 -78q0 -53 -28.5 -82.5t-81.5 -29.5q-52 0 -82.5 30.5t-30.5 81.5z" />
<glyph unicode="&#x140;" horiz-adv-x="532" d="M35 1333q-4 10 0 15l289 135l8 2q8 0 19 -8.5t11 -14.5v-1296q0 -84 23 -112.5t92 -28.5q6 0 6 -12.5t-6 -12.5q-49 0 -80 2l-121 2l-118 -2q-31 -2 -82 -2q-6 0 -6 12.5t6 12.5q68 0 92.5 29.5t24.5 111.5v1046q0 72 -13.5 104t-48.5 32q-31 0 -82 -25h-2q-8 0 -12 10z M412 672q0 49 30.5 77.5t81.5 28.5q53 0 82 -28.5t29 -77.5q0 -53 -28.5 -83t-82.5 -30q-51 0 -81.5 31t-30.5 82z" />
<glyph unicode="&#x141;" horiz-adv-x="1101" d="M61.5 12.5q-0.5 12.5 4.5 12.5q70 0 101.5 10t42.5 39.5t11 91.5v350l-106 -61h-2q-10 0 -21.5 21.5t-3.5 23.5l133 75v539q0 61 -11 90t-44 40t-100 11q-4 0 -4.5 12.5t4.5 12.5l104 -2q90 -4 147 -4q61 0 152 4l102 2q6 0 6.5 -12.5t-6.5 -12.5q-68 0 -99.5 -11 t-42.5 -40.5t-11 -91.5v-422l225 129h2q8 0 19.5 -21.5t3.5 -23.5l-250 -143v-457q0 -55 9 -79.5t35.5 -33t86.5 -8.5h123q145 0 245.5 81t133.5 218q2 6 12 5t10 -7q-18 -193 -18 -319q0 -16 -6.5 -23.5t-24.5 -7.5h-958q-4 0 -4.5 12.5z" />
<glyph unicode="&#x142;" horiz-adv-x="548" d="M43 1333q-4 10 0 15l289 135l8 2q8 0 19.5 -8.5t11.5 -14.5v-639l100 60q6 4 17.5 -8.5t16.5 -29t-3 -20.5l-131 -77v-582q0 -84 22.5 -112.5t91.5 -28.5q6 0 6.5 -12.5t-6.5 -12.5q-49 0 -79 2l-121 2l-119 -2q-31 -2 -82 -2q-6 0 -6 12.5t6 12.5q68 0 92.5 29.5 t24.5 111.5v479l-105 -63q-8 -4 -18 8t-15.5 28.5t0.5 20.5l138 82v491q0 72 -13.5 104t-48.5 32q-31 0 -82 -25h-2q-8 0 -12 10z" />
<glyph unicode="&#x143;" horiz-adv-x="1499" d="M53 1267.5q0 12.5 4 12.5l82 -2q27 -2 76 -2l131 2q25 2 60 2q16 0 24 -8t25 -33l49 -65l737 -869v725q0 109 -43 167t-123 58q-4 0 -4 12.5t4 12.5l84 -2q66 -4 109 -4q41 0 110 4l90 2q5 0 5 -12.5t-5 -12.5q-82 0 -127 -58t-45 -167v-1059q0 -6 -10 -8t-14 2 l-961 1116v-833q0 -109 43 -166t125 -57q4 0 4 -12.5t-4 -12.5q-55 0 -84 2l-108 2l-121 -2q-33 -2 -94 -2q-6 0 -6 12.5t6 12.5q88 0 136 57t48 166v897q-57 61 -103.5 85.5t-95.5 24.5q-4 0 -4 12.5zM565 1398q-2 9 4 13q66 39 181 129q94 72 102 78q10 8 65.5 -8.5 t97.5 -37t19 -24.5q-127 -31 -232.5 -68.5t-221.5 -88.5l-5 -2q-8 0 -10 9z" />
<glyph unicode="&#x144;" horiz-adv-x="1071" d="M16.5 663.5q-4.5 10.5 1.5 12.5l269 131q12 4 14 4q20 0 42 -46t24 -120q143 170 311 170q113 0 176.5 -68.5t63.5 -185.5v-395q0 -84 22.5 -112.5t91.5 -28.5q6 0 6 -12.5t-6 -12.5q-51 0 -80 2l-118 2l-117 -2q-31 -2 -82 -2q-6 0 -6 12.5t6 12.5q70 0 92.5 28.5 t22.5 112.5v307q0 115 -42 169t-133 54q-53 0 -108 -24.5t-100 -65.5v-440q0 -84 22.5 -112.5t91.5 -28.5q6 0 6 -12.5t-6 -12.5q-51 0 -80 2l-118 2l-119 -2q-29 -2 -80 -2q-6 0 -6 12.5t6 12.5q70 0 92.5 28.5t22.5 112.5v391q0 66 -15.5 96.5t-50.5 30.5q-31 0 -102 -31 h-2q-8 0 -12.5 10.5zM537 975l79 491q4 8 60.5 19.5t93.5 11.5q25 0 23 -8l-234 -518q0 -4 -8 -4q-6 0 -11 3t-3 5z" />
<glyph unicode="&#x145;" horiz-adv-x="1499" d="M53 1267.5q0 12.5 4 12.5l82 -2q27 -2 76 -2l131 2q25 2 60 2q16 0 24 -8t25 -33l49 -65l737 -869v725q0 109 -43 167t-123 58q-4 0 -4 12.5t4 12.5l84 -2q66 -4 109 -4q41 0 110 4l90 2q5 0 5 -12.5t-5 -12.5q-82 0 -127 -58t-45 -167v-1059q0 -6 -10 -8t-14 2 l-961 1116v-833q0 -109 43 -166t125 -57q4 0 4 -12.5t-4 -12.5q-55 0 -84 2l-108 2l-121 -2q-33 -2 -94 -2q-6 0 -6 12.5t6 12.5q88 0 136 57t48 166v897q-57 61 -103.5 85.5t-95.5 24.5q-4 0 -4 12.5zM637 -258q0 51 34 78.5t83 27.5q65 0 100 -43t35 -118 q0 -76 -38 -135.5t-108 -114.5l-4 -2q-8 0 -12 8t2 12q94 76 94 154q0 43 -16 63q-23 -35 -78 -34q-41 0 -66.5 28.5t-25.5 75.5z" />
<glyph unicode="&#x146;" horiz-adv-x="1071" d="M16.5 663.5q-4.5 10.5 1.5 12.5l269 131q12 4 14 4q20 0 42 -46t24 -120q143 170 311 170q113 0 176.5 -68.5t63.5 -185.5v-395q0 -84 22.5 -112.5t91.5 -28.5q6 0 6 -12.5t-6 -12.5q-51 0 -80 2l-118 2l-117 -2q-31 -2 -82 -2q-6 0 -6 12.5t6 12.5q70 0 92.5 28.5 t22.5 112.5v307q0 115 -42 169t-133 54q-53 0 -108 -24.5t-100 -65.5v-440q0 -84 22.5 -112.5t91.5 -28.5q6 0 6 -12.5t-6 -12.5q-51 0 -80 2l-118 2l-119 -2q-29 -2 -80 -2q-6 0 -6 12.5t6 12.5q70 0 92.5 28.5t22.5 112.5v391q0 66 -15.5 96.5t-50.5 30.5q-31 0 -102 -31 h-2q-8 0 -12.5 10.5zM406 -258q0 51 33.5 78.5t82.5 27.5q66 0 100.5 -43t34.5 -118q0 -76 -37.5 -135.5t-107.5 -114.5l-4 -2q-8 0 -12 8t2 12q94 76 94 154q0 43 -17 63q-23 -35 -77 -34q-41 0 -66.5 28.5t-25.5 75.5z" />
<glyph unicode="&#x147;" horiz-adv-x="1499" d="M53 1267.5q0 12.5 4 12.5l82 -2q27 -2 76 -2l131 2q25 2 60 2q16 0 24 -8t25 -33l49 -65l737 -869v725q0 109 -43 167t-123 58q-4 0 -4 12.5t4 12.5l84 -2q66 -4 109 -4q41 0 110 4l90 2q5 0 5 -12.5t-5 -12.5q-82 0 -127 -58t-45 -167v-1059q0 -6 -10 -8t-14 2 l-961 1116v-833q0 -109 43 -166t125 -57q4 0 4 -12.5t-4 -12.5q-55 0 -84 2l-108 2l-121 -2q-33 -2 -94 -2q-6 0 -6 12.5t6 12.5q88 0 136 57t48 166v897q-57 61 -103.5 85.5t-95.5 24.5q-4 0 -4 12.5zM543 1630v2q0 6 5 11.5t7 1.5l223 -93l221 95h2q6 0 9.5 -5.5 t-0.5 -9.5l-209 -225q-8 -8 -23 -8q-16 0 -24 8z" />
<glyph unicode="&#x148;" horiz-adv-x="1071" d="M16.5 663.5q-4.5 10.5 1.5 12.5l269 131q12 4 14 4q20 0 42 -46t24 -120q143 170 311 170q113 0 176.5 -68.5t63.5 -185.5v-395q0 -84 22.5 -112.5t91.5 -28.5q6 0 6 -12.5t-6 -12.5q-51 0 -80 2l-118 2l-117 -2q-31 -2 -82 -2q-6 0 -6 12.5t6 12.5q70 0 92.5 28.5 t22.5 112.5v307q0 115 -42 169t-133 54q-53 0 -108 -24.5t-100 -65.5v-440q0 -84 22.5 -112.5t91.5 -28.5q6 0 6 -12.5t-6 -12.5q-51 0 -80 2l-118 2l-119 -2q-29 -2 -80 -2q-6 0 -6 12.5t6 12.5q70 0 92.5 28.5t22.5 112.5v391q0 66 -15.5 96.5t-50.5 30.5q-31 0 -102 -31 h-2q-8 0 -12.5 10.5zM399 1487q-2 6 8.5 8t14.5 -2l141 -262l139 262q4 4 13.5 2t7.5 -8l-137 -510q-4 -10 -23 -10q-18 0 -24 10z" />
<glyph unicode="&#x149;" horiz-adv-x="1071" d="M16.5 663.5q-4.5 10.5 1.5 12.5l269 131q12 4 14 4q20 0 42 -46t24 -120q143 170 311 170q113 0 176.5 -68.5t63.5 -185.5v-395q0 -84 22.5 -112.5t91.5 -28.5q6 0 6 -12.5t-6 -12.5q-51 0 -80 2l-118 2l-117 -2q-31 -2 -82 -2q-6 0 -6 12.5t6 12.5q70 0 92.5 28.5 t22.5 112.5v307q0 115 -42 169t-133 54q-53 0 -108 -24.5t-100 -65.5v-440q0 -84 22.5 -112.5t91.5 -28.5q6 0 6 -12.5t-6 -12.5q-51 0 -80 2l-118 2l-119 -2q-29 -2 -80 -2q-6 0 -6 12.5t6 12.5q70 0 92.5 28.5t22.5 112.5v391q0 66 -15.5 96.5t-50.5 30.5q-31 0 -102 -31 h-2q-8 0 -12.5 10.5zM35 1231q0 51 31.5 78.5t87.5 27.5q68 0 106.5 -52t38.5 -148q0 -90 -40 -166t-118 -152q-2 -2 -6 -2q-6 0 -10 6t0 11q100 102 100 241q0 57 -20 84q-18 -31 -72 -31q-45 0 -71.5 28t-26.5 75z" />
<glyph unicode="&#x14a;" horiz-adv-x="1499" d="M53 1267.5q0 12.5 4 12.5l82 -2q27 -2 76 -2l131 2q25 2 60 2q16 0 24 -8t25 -33l49 -65l737 -869v725q0 109 -43 167t-123 58q-4 0 -4 12.5t4 12.5l84 -2q66 -4 109 -4q41 0 110 4l90 2q5 0 5 -12.5t-5 -12.5q-82 0 -127 -58t-45 -167v-1059q0 -170 -70.5 -266 t-197.5 -96q-90 0 -145.5 36t-55.5 91q0 43 26 70.5t69 27.5q51 0 68.5 -24.5t25.5 -71.5q8 -41 19.5 -59.5t43.5 -18.5q76 0 119 84t43 225v31l-930 1081v-833q0 -109 43 -166t125 -57q4 0 4 -12.5t-4 -12.5q-55 0 -84 2l-108 2l-121 -2q-33 -2 -94 -2q-6 0 -6 12.5t6 12.5 q88 0 136 57t48 166v897q-57 61 -103.5 85.5t-95.5 24.5q-4 0 -4 12.5z" />
<glyph unicode="&#x14b;" horiz-adv-x="1038" d="M15.5 663.5q-3.5 10.5 2.5 12.5l269 131q12 4 14 4q20 0 40.5 -46t23.5 -120q147 170 313 170q113 0 175 -67.5t62 -186.5v-659q0 -139 -31.5 -227.5t-104 -146.5t-201.5 -101q-4 -2 -9.5 9t0.5 13q98 43 139.5 136t41.5 270v618q0 115 -42 169t-133 54q-53 0 -109 -24.5 t-101 -67.5v-438q0 -84 23.5 -112.5t92.5 -28.5q6 0 6 -12.5t-6 -12.5q-51 0 -82 2l-118 2l-117 -2q-31 -2 -82 -2q-4 0 -4 12.5t4 12.5q70 0 93.5 28.5t23.5 112.5v391q0 66 -15.5 96.5t-52.5 30.5q-31 0 -102 -31h-2q-8 0 -11.5 10.5z" />
<glyph unicode="&#x14c;" d="M100 639q0 211 106.5 361.5t273.5 226.5t341 76q195 0 342.5 -91.5t226 -241t78.5 -317.5q0 -186 -98 -341.5t-263 -246t-357 -90.5q-191 0 -339.5 89.5t-229.5 242t-81 332.5zM319 713q0 -195 65 -352.5t178.5 -246.5t256.5 -89q123 0 220.5 66.5t153.5 195.5t56 307 q0 188 -62.5 337.5t-178 233.5t-271.5 84q-199 0 -308.5 -142t-109.5 -394zM518 1501q0 14 4 24.5t13 10.5h514q8 0 13 -10t5 -25q0 -14 -5 -24.5t-13 -10.5h-514q-9 0 -13 11.5t-4 23.5z" />
<glyph unicode="&#x14d;" horiz-adv-x="995" d="M68 406q0 133 66.5 226t170 139t211.5 46q125 0 218 -59.5t142.5 -156.5t49.5 -208q0 -123 -60.5 -219t-163 -148.5t-221.5 -52.5q-123 0 -217 58.5t-145 158t-51 216.5zM225 1012q0 14 4 24.5t13 10.5h514q8 0 13 -10.5t5 -24.5t-5 -24.5t-13 -10.5h-514q-9 0 -13 11 t-4 24zM262 477q0 -133 36 -238.5t100.5 -165t144.5 -59.5q90 0 138 80t48 234q0 137 -38 239.5t-102.5 155.5t-139.5 53q-92 0 -139.5 -75.5t-47.5 -223.5z" />
<glyph unicode="&#x14e;" d="M100 639q0 211 106.5 361.5t273.5 226.5t341 76q195 0 342.5 -91.5t226 -241t78.5 -317.5q0 -186 -98 -341.5t-263 -246t-357 -90.5q-191 0 -339.5 89.5t-229.5 242t-81 332.5zM319 713q0 -195 65 -352.5t178.5 -246.5t256.5 -89q123 0 220.5 66.5t153.5 195.5t56 307 q0 188 -62.5 337.5t-178 233.5t-271.5 84q-199 0 -308.5 -142t-109.5 -394zM582 1659q0 8 10 8t12 -4q4 -43 59.5 -79t129.5 -36q72 0 127 36t59 79q0 6 11 5t11 -9q-4 -119 -57 -182.5t-151 -63.5q-99 0 -153 63.5t-58 182.5z" />
<glyph unicode="&#x14f;" horiz-adv-x="995" d="M68 406q0 133 66.5 226t170 139t211.5 46q125 0 218 -59.5t142.5 -156.5t49.5 -208q0 -123 -60.5 -219t-163 -148.5t-221.5 -52.5q-123 0 -217 58.5t-145 158t-51 216.5zM262 477q0 -133 36 -238.5t100.5 -165t144.5 -59.5q90 0 138 80t48 234q0 137 -38 239.5 t-102.5 155.5t-139.5 53q-92 0 -139.5 -75.5t-47.5 -223.5zM289 1278q0 8 11 9t11 -5q0 -74 54.5 -127t134.5 -53q78 0 132 53t54 127q0 6 11.5 5t11.5 -9q0 -158 -53.5 -241t-155.5 -83t-156.5 83t-54.5 241z" />
<glyph unicode="&#x150;" d="M100 639q0 211 106.5 361.5t273.5 226.5t341 76q195 0 342.5 -91.5t226 -241t78.5 -317.5q0 -186 -98 -341.5t-263 -246t-357 -90.5q-191 0 -339.5 89.5t-229.5 242t-81 332.5zM319 713q0 -195 65 -352.5t178.5 -246.5t256.5 -89q123 0 220.5 66.5t153.5 195.5t56 307 q0 188 -62.5 337.5t-178 233.5t-271.5 84q-199 0 -308.5 -142t-109.5 -394zM554 1380.5q-3 8.5 1 14.5q100 117 184 237q6 12 56.5 -1t90.5 -34.5t21 -29.5q-180 -80 -338 -193l-4 -2q-8 0 -11 8.5zM847 1380.5q-3 8.5 1 14.5q47 51 95 114.5t89 122.5q4 12 54.5 -1 t89 -34.5t20.5 -29.5q-174 -80 -334 -193l-6 -2q-6 0 -9 8.5z" />
<glyph unicode="&#x151;" horiz-adv-x="995" d="M68 406q0 133 66.5 226t170 139t211.5 46q125 0 218 -59.5t142.5 -156.5t49.5 -208q0 -123 -60.5 -219t-163 -148.5t-221.5 -52.5q-123 0 -217 58.5t-145 158t-51 216.5zM262 477q0 -133 36 -238.5t100.5 -165t144.5 -59.5q90 0 138 80t48 234q0 137 -38 239.5 t-102.5 155.5t-139.5 53q-92 0 -139.5 -75.5t-47.5 -223.5zM284 921.5q-3 8.5 1 12.5q41 47 85 108.5t81 116.5q4 6 16 6q25 0 68 -13t69.5 -28.5t11.5 -23.5q-84 -35 -148.5 -74t-168.5 -111q-2 -2 -6 -2q-6 0 -9 8.5zM559 921.5q-4 8.5 0 12.5q61 72 131 174l37 51 q4 6 16 6q23 0 66 -13t69.5 -28.5t10.5 -23.5q-82 -33 -143.5 -71t-170.5 -114q-2 -2 -6 -2q-6 0 -10 8.5z" />
<glyph unicode="&#x152;" horiz-adv-x="1896" d="M100 616q0 199 97.5 350.5t261.5 234.5t358 83q96 0 150 -2l157 -2h592q18 0 19 -18l4 -267q0 -4 -10.5 -6t-12.5 4q-10 53 -48 108.5t-96.5 91.5t-123.5 36h-100q-74 0 -104 -26.5t-30 -90.5v-420h197q223 0 223 152q0 6 12.5 6t12.5 -6l-2 -113q-2 -23 -2 -65l2 -97 q4 -66 4 -106q0 -4 -12.5 -4t-12.5 4q0 176 -229 176h-193v-465q0 -68 25 -94.5t90 -26.5h119q106 0 203.5 78t126.5 186q0 5 10 5q14 0 14 -7q-20 -156 -20 -284q0 -16 -6.5 -23.5t-24.5 -7.5h-639q-41 0 -135 -4q-90 -4 -137 -4q-217 0 -385 82t-261.5 224t-93.5 318z M319 662q0 -176 62.5 -319.5t178.5 -226.5t267 -83q80 0 120 10t55.5 38t15.5 85v942q0 55 -13.5 84t-51.5 41t-113 12q-152 0 -269.5 -68.5t-184.5 -199.5t-67 -315z" />
<glyph unicode="&#x153;" horiz-adv-x="1415" d="M45 406q0 133 65.5 226t167 139t205.5 46q98 0 173 -43t122 -117q63 72 149.5 112t184.5 40q125 0 188.5 -57.5t63.5 -182.5q0 -29 -5 -42t-20 -13l-493 -2q-4 -53 -4 -88q0 -166 81 -262t214 -96q59 0 116.5 15t100.5 46l4 2q6 0 10 -8t0 -12q-141 -133 -313 -134 q-211 0 -316 138q-53 -68 -130 -104t-165 -36q-117 0 -208 59.5t-141 158t-50 215.5zM229 465q0 -123 36 -227.5t97.5 -166t137.5 -61.5q75 0 120.5 88t45.5 250q0 195 -69 312.5t-181 117.5q-88 0 -137.5 -81t-49.5 -232zM852 549l317 6q2 213 -127 213q-73 0 -122.5 -58.5 t-67.5 -160.5z" />
<glyph unicode="&#x154;" horiz-adv-x="1413" d="M80 12.5q0 12.5 6 12.5q70 0 101.5 10t44 39.5t12.5 91.5v948q0 61 -11.5 90t-44 40t-100.5 11q-4 0 -4 12.5t4 12.5l107 -2q90 -4 145 -4q68 0 147 6q27 2 65 4t85 2q178 0 275.5 -69.5t97.5 -194.5q0 -113 -62.5 -203t-167.5 -143q168 -248 281 -387t200 -201.5 t171 -62.5q6 0 6 -12.5t-6 -12.5h-330q-47 0 -175 164t-311 459q-45 -4 -69 -5q-45 0 -107 5v-457q0 -63 11.5 -92t43 -39t101.5 -10q4 0 4 -12.5t-4 -12.5q-68 0 -104 2l-152 2l-147 -2q-39 -2 -107 -2q-6 0 -6 12.5zM359.5 1398q-3.5 9 2.5 13q68 43 193 137q29 25 90 70 q10 8 65.5 -8.5t97.5 -37t19 -24.5q-242 -61 -454 -159h-2q-8 0 -11.5 9zM440 678q49 -8 119 -8q133 0 190.5 66.5t57.5 213.5q0 166 -56.5 231.5t-162.5 65.5q-80 0 -114 -29.5t-34 -107.5v-432z" />
<glyph unicode="&#x155;" horiz-adv-x="765" d="M16.5 663.5q-4.5 10.5 1.5 12.5l269 131q12 4 14 4q20 0 40.5 -44t25.5 -116q80 90 133 125t96 35q47 0 90 -30.5t43 -73.5q0 -39 -23.5 -64t-64.5 -25q-27 0 -44 11.5t-36 32.5q-18 18 -32.5 27t-34.5 9q-23 0 -48.5 -17t-78.5 -73v-442q0 -57 16 -87t55 -42t115 -12 q8 0 8 -12.5t-8 -12.5q-68 0 -109 2l-161 2l-119 -2q-29 -2 -80 -2q-6 0 -6 12.5t6 12.5q70 0 92.5 28.5t22.5 112.5v391q0 66 -15.5 96.5t-50.5 30.5q-31 0 -102 -31h-2q-8 0 -12.5 10.5zM375 975l80 491q4 8 60 19.5t93 11.5q25 0 23 -8l-234 -518q0 -4 -8 -4q-6 0 -11 3 t-3 5z" />
<glyph unicode="&#x156;" horiz-adv-x="1413" d="M80 12.5q0 12.5 6 12.5q70 0 101.5 10t44 39.5t12.5 91.5v948q0 61 -11.5 90t-44 40t-100.5 11q-4 0 -4 12.5t4 12.5l107 -2q90 -4 145 -4q68 0 147 6q27 2 65 4t85 2q178 0 275.5 -69.5t97.5 -194.5q0 -113 -62.5 -203t-167.5 -143q168 -248 281 -387t200 -201.5 t171 -62.5q6 0 6 -12.5t-6 -12.5h-330q-47 0 -175 164t-311 459q-45 -4 -69 -5q-45 0 -107 5v-457q0 -63 11.5 -92t43 -39t101.5 -10q4 0 4 -12.5t-4 -12.5q-68 0 -104 2l-152 2l-147 -2q-39 -2 -107 -2q-6 0 -6 12.5zM440 678q49 -8 119 -8q133 0 190.5 66.5t57.5 213.5 q0 166 -56.5 231.5t-162.5 65.5q-80 0 -114 -29.5t-34 -107.5v-432zM575 -258q0 51 34 78.5t83 27.5q66 0 100.5 -43t34.5 -118q0 -76 -37.5 -135.5t-107.5 -114.5l-4 -2q-8 0 -12 8t2 12q94 76 94 154q0 43 -17 63q-23 -35 -77 -34q-41 0 -67 28.5t-26 75.5z" />
<glyph unicode="&#x157;" horiz-adv-x="765" d="M16.5 663.5q-4.5 10.5 1.5 12.5l269 131q12 4 14 4q20 0 40.5 -44t25.5 -116q80 90 133 125t96 35q47 0 90 -30.5t43 -73.5q0 -39 -23.5 -64t-64.5 -25q-27 0 -44 11.5t-36 32.5q-18 18 -32.5 27t-34.5 9q-23 0 -48.5 -17t-78.5 -73v-442q0 -57 16 -87t55 -42t115 -12 q8 0 8 -12.5t-8 -12.5q-68 0 -109 2l-161 2l-119 -2q-29 -2 -80 -2q-6 0 -6 12.5t6 12.5q70 0 92.5 28.5t22.5 112.5v391q0 66 -15.5 96.5t-50.5 30.5q-31 0 -102 -31h-2q-8 0 -12.5 10.5zM184 -258q0 51 34 78.5t83 27.5q66 0 100.5 -43t34.5 -118q0 -76 -38 -135.5 t-107 -114.5l-4 -2q-8 0 -12.5 8t1.5 12q94 76 95 154q0 43 -17 63q-23 -35 -78 -34q-41 0 -66.5 28.5t-25.5 75.5z" />
<glyph unicode="&#x158;" horiz-adv-x="1413" d="M80 12.5q0 12.5 6 12.5q70 0 101.5 10t44 39.5t12.5 91.5v948q0 61 -11.5 90t-44 40t-100.5 11q-4 0 -4 12.5t4 12.5l107 -2q90 -4 145 -4q68 0 147 6q27 2 65 4t85 2q178 0 275.5 -69.5t97.5 -194.5q0 -113 -62.5 -203t-167.5 -143q168 -248 281 -387t200 -201.5 t171 -62.5q6 0 6 -12.5t-6 -12.5h-330q-47 0 -175 164t-311 459q-45 -4 -69 -5q-45 0 -107 5v-457q0 -63 11.5 -92t43 -39t101.5 -10q4 0 4 -12.5t-4 -12.5q-68 0 -104 2l-152 2l-147 -2q-39 -2 -107 -2q-6 0 -6 12.5zM336 1630v2q0 6 5 11.5t7 1.5l223 -93l222 95h2 q6 0 9 -5.5t-1 -9.5l-209 -225q-8 -8 -23 -8q-16 0 -24 8zM440 678q49 -8 119 -8q133 0 190.5 66.5t57.5 213.5q0 166 -56.5 231.5t-162.5 65.5q-80 0 -114 -29.5t-34 -107.5v-432z" />
<glyph unicode="&#x159;" horiz-adv-x="765" d="M16.5 663.5q-4.5 10.5 1.5 12.5l269 131q12 4 14 4q20 0 40.5 -44t25.5 -116q80 90 133 125t96 35q47 0 90 -30.5t43 -73.5q0 -39 -23.5 -64t-64.5 -25q-27 0 -44 11.5t-36 32.5q-18 18 -32.5 27t-34.5 9q-23 0 -48.5 -17t-78.5 -73v-442q0 -57 16 -87t55 -42t115 -12 q8 0 8 -12.5t-8 -12.5q-68 0 -109 2l-161 2l-119 -2q-29 -2 -80 -2q-6 0 -6 12.5t6 12.5q70 0 92.5 28.5t22.5 112.5v391q0 66 -15.5 96.5t-50.5 30.5q-31 0 -102 -31h-2q-8 0 -12.5 10.5zM238 1487q-2 6 8 8t14 -2l141 -262l140 262q4 4 13 2t7 -8l-137 -510 q-4 -10 -23 -10q-18 0 -24 10z" />
<glyph unicode="&#x15a;" horiz-adv-x="1038" d="M147 403v3q0 8 10.5 9t12.5 -7q68 -170 155 -279t222 -109q88 0 147.5 48.5t59.5 160.5q0 90 -40 158t-98.5 113t-158.5 110q-98 63 -153.5 107.5t-94.5 109t-39 150.5q0 106 59.5 180t154.5 110t200 36q70 0 139.5 -13.5t116.5 -34.5q31 -12 30 -38l7 -279 q0 -6 -11.5 -8t-13.5 4q-41 125 -109.5 226.5t-205.5 101.5q-92 0 -146.5 -53.5t-54.5 -145.5q0 -76 38 -134.5t94 -101.5t153 -102q104 -66 164.5 -113t102.5 -115.5t42 -160.5q0 -104 -54.5 -186t-153.5 -128.5t-226 -46.5q-86 0 -177.5 22.5t-138.5 55.5q-18 12 -20 39z M332 1398q-2 9 4 13q66 39 180 129q94 72 102 78q10 8 65.5 -8.5t97.5 -37t20 -24.5q-127 -31 -232.5 -68.5t-222.5 -88.5l-4 -2q-8 0 -10 9z" />
<glyph unicode="&#x15b;" horiz-adv-x="690" d="M90 248q0 6 11.5 7t13.5 -3q35 -102 105.5 -168t150.5 -66q51 0 79.5 27t28.5 80q0 78 -45 124t-131 91q-70 37 -108.5 62.5t-66.5 69.5t-28 110q0 117 85 174t206 57q80 0 164 -31q18 -8 18 -22q0 -47 -2 -74l-2 -98q0 -6 -12 -6t-12 6q0 41 -33 85t-84 72.5t-104 28.5 q-94 0 -95 -90q0 -63 44 -106t128 -91q74 -41 114 -67.5t69.5 -71.5t29.5 -108q0 -70 -34.5 -129.5t-103 -96.5t-163.5 -37q-113 0 -207 58q-12 12 -12 24zM328 975l80 491q4 8 60 19.5t93 11.5q25 0 23 -8l-234 -518q0 -4 -8 -4q-6 0 -11 3t-3 5z" />
<glyph unicode="&#x15c;" horiz-adv-x="1038" d="M147 403v3q0 8 10.5 9t12.5 -7q68 -170 155 -279t222 -109q88 0 147.5 48.5t59.5 160.5q0 90 -40 158t-98.5 113t-158.5 110q-98 63 -153.5 107.5t-94.5 109t-39 150.5q0 106 59.5 180t154.5 110t200 36q70 0 139.5 -13.5t116.5 -34.5q31 -12 30 -38l7 -279 q0 -6 -11.5 -8t-13.5 4q-41 125 -109.5 226.5t-205.5 101.5q-92 0 -146.5 -53.5t-54.5 -145.5q0 -76 38 -134.5t94 -101.5t153 -102q104 -66 164.5 -113t102.5 -115.5t42 -160.5q0 -104 -54.5 -186t-153.5 -128.5t-226 -46.5q-86 0 -177.5 22.5t-138.5 55.5q-18 12 -20 39z M311 1432l211 225q10 10 25 10q12 0 22 -10l209 -225q2 0 2 -5q0 -4 -5 -8t-7 -2l-221 92l-223 -92q-4 -2 -10.5 5.5t-2.5 9.5z" />
<glyph unicode="&#x15d;" horiz-adv-x="690" d="M90 248q0 6 11.5 7t13.5 -3q35 -102 105.5 -168t150.5 -66q51 0 79.5 27t28.5 80q0 78 -45 124t-131 91q-70 37 -108.5 62.5t-66.5 69.5t-28 110q0 117 85 174t206 57q80 0 164 -31q18 -8 18 -22q0 -47 -2 -74l-2 -98q0 -6 -12 -6t-12 6q0 41 -33 85t-84 72.5t-104 28.5 q-94 0 -95 -90q0 -63 44 -106t128 -91q74 -41 114 -67.5t69.5 -71.5t29.5 -108q0 -70 -34.5 -129.5t-103 -96.5t-163.5 -37q-113 0 -207 58q-12 12 -12 24zM193 975l139 510q2 10 22 10q23 0 25 -10l137 -510v-2q0 -4 -9 -6t-11 4l-140 260l-141 -260q-2 -6 -13.5 -3t-8.5 7 z" />
<glyph unicode="&#x15e;" horiz-adv-x="1038" d="M147 403v3q0 8 10.5 9t12.5 -7q68 -170 155 -279t222 -109q88 0 147.5 48.5t59.5 160.5q0 90 -40 158t-98.5 113t-158.5 110q-98 63 -153.5 107.5t-94.5 109t-39 150.5q0 106 59.5 180t154.5 110t200 36q70 0 139.5 -13.5t116.5 -34.5q31 -12 30 -38l7 -279 q0 -6 -11.5 -8t-13.5 4q-41 125 -109.5 226.5t-205.5 101.5q-92 0 -146.5 -53.5t-54.5 -145.5q0 -76 38 -134.5t94 -101.5t153 -102q104 -66 164.5 -113t102.5 -115.5t42 -160.5q0 -146 -102.5 -244t-270.5 -115q-10 -41 -10 -63q0 -35 19.5 -58.5t64.5 -50.5 q53 -33 82.5 -68.5t29.5 -90.5q0 -82 -59 -145.5t-178 -63.5q-145 0 -146 92q0 29 21.5 51.5t52.5 22.5q35 0 49.5 -15.5t26.5 -44.5q12 -31 25.5 -45t46.5 -14q53 0 53 57q0 53 -38 96.5t-134 96.5q-10 4 -15.5 10t-5.5 14q0 12 9 35q33 80 69 182h-24q-86 0 -177.5 22.5 t-138.5 55.5q-18 12 -20 39z" />
<glyph unicode="&#x15f;" horiz-adv-x="690" d="M90 248q0 6 11.5 7t13.5 -3q35 -102 105.5 -168t150.5 -66q51 0 79.5 27t28.5 80q0 78 -45 124t-131 91q-70 37 -108.5 62.5t-66.5 69.5t-28 110q0 117 85 174t206 57q80 0 164 -31q18 -8 18 -22q0 -47 -2 -74l-2 -98q0 -6 -12 -6t-12 6q0 41 -33 85t-84 72.5t-104 28.5 q-94 0 -95 -90q0 -63 44 -106t128 -91q74 -41 114 -67.5t69.5 -71.5t29.5 -108q0 -98 -67.5 -173t-188.5 -87q-10 -45 -10 -66q0 -35 19.5 -58.5t64.5 -50.5q53 -32 83 -68t30 -91q0 -82 -59.5 -145.5t-178.5 -63.5q-145 0 -145 92q0 29 21.5 51.5t52.5 22.5q35 0 49 -15.5 t26 -44.5q12 -31 25.5 -45t46.5 -14q53 0 53 57q0 53 -38 96.5t-134 96.5q-10 4 -15 10t-5 14q0 12 8 35q33 82 70 184h-9q-113 0 -207 58q-12 12 -12 24z" />
<glyph unicode="&#x160;" horiz-adv-x="1038" d="M147 403v3q0 8 10.5 9t12.5 -7q68 -170 155 -279t222 -109q88 0 147.5 48.5t59.5 160.5q0 90 -40 158t-98.5 113t-158.5 110q-98 63 -153.5 107.5t-94.5 109t-39 150.5q0 106 59.5 180t154.5 110t200 36q70 0 139.5 -13.5t116.5 -34.5q31 -12 30 -38l7 -279 q0 -6 -11.5 -8t-13.5 4q-41 125 -109.5 226.5t-205.5 101.5q-92 0 -146.5 -53.5t-54.5 -145.5q0 -76 38 -134.5t94 -101.5t153 -102q104 -66 164.5 -113t102.5 -115.5t42 -160.5q0 -104 -54.5 -186t-153.5 -128.5t-226 -46.5q-86 0 -177.5 22.5t-138.5 55.5q-18 12 -20 39z M309 1630v2q0 6 5 11.5t8 1.5l223 -93l221 95h2q6 0 9 -5.5t-1 -9.5l-209 -225q-8 -8 -22 -8q-16 0 -25 8z" />
<glyph unicode="&#x161;" horiz-adv-x="690" d="M90 248q0 6 11.5 7t13.5 -3q35 -102 105.5 -168t150.5 -66q51 0 79.5 27t28.5 80q0 78 -45 124t-131 91q-70 37 -108.5 62.5t-66.5 69.5t-28 110q0 117 85 174t206 57q80 0 164 -31q18 -8 18 -22q0 -47 -2 -74l-2 -98q0 -6 -12 -6t-12 6q0 41 -33 85t-84 72.5t-104 28.5 q-94 0 -95 -90q0 -63 44 -106t128 -91q74 -41 114 -67.5t69.5 -71.5t29.5 -108q0 -70 -34.5 -129.5t-103 -96.5t-163.5 -37q-113 0 -207 58q-12 12 -12 24zM190 1487q-2 6 8.5 8t14.5 -2l141 -262l140 262q4 4 13 2t7 -8l-137 -510q-4 -10 -23 -10q-18 0 -24 10z" />
<glyph unicode="&#x162;" horiz-adv-x="1310" d="M80 930q8 80 18.5 206t10.5 189q0 10 11 10t11 -10q0 -45 115 -45q176 -6 411 -6q121 0 256 4l140 2q78 0 113.5 10t45.5 41q2 8 12.5 8t10.5 -8q-6 -63 -12 -192t-6 -209q0 -6 -11.5 -6t-13.5 6q-20 158 -96 232.5t-205 74.5q-57 0 -85 -10t-37 -36t-9 -81v-944 q0 -63 12 -92t49 -39t117 -10q6 0 6 -12.5t-6 -12.5q-68 0 -107 2l-157 2q-16 -66 -17 -94q0 -37 17.5 -58.5t60.5 -46.5q53 -33 83 -68.5t30 -90.5q0 -82 -59.5 -145.5t-178.5 -63.5q-145 0 -145 92q0 29 21.5 51.5t52.5 22.5q35 0 49 -15.5t26 -44.5q12 -31 25.5 -45 t46.5 -14q53 0 53 57q0 53 -37.5 96.5t-134.5 96.5q-10 4 -15 10t-5 14q0 12 8 35q35 80 55.5 137.5t26.5 73.5l-148 -2q-41 -2 -110 -2q-4 0 -4 12.5t4 12.5q80 0 118 10t51 39.5t13 91.5v948q0 53 -10 78t-37 35t-82 10q-125 0 -206 -77t-124 -232q0 -4 -11 -4t-11 6z" />
<glyph unicode="&#x163;" horiz-adv-x="690" d="M57 750q0 6 3 11t6 5q193 8 241 166q4 8 17.5 8t13.5 -8v-162q96 2 272 21q4 0 9.5 -15.5t5.5 -34.5q0 -18 -7.5 -36.5t-15.5 -16.5q-115 27 -264 33v-496q0 -80 40 -117.5t111 -37.5q86 0 162 59l4 2q6 0 11.5 -8t-0.5 -12q-74 -70 -140.5 -102t-140.5 -34 q-8 -31 -8 -59q0 -37 19.5 -61.5t64.5 -49.5q53 -33 82.5 -68.5t29.5 -90.5q0 -82 -59 -145.5t-178 -63.5q-145 0 -146 92q0 29 21.5 51.5t52.5 22.5q35 0 49.5 -15.5t26.5 -44.5q12 -31 25.5 -45t46.5 -14q53 0 53 57q0 53 -38 96.5t-134 96.5q-10 4 -15.5 10t-5.5 14 q0 12 9 35q33 82 69 184q-78 6 -129 48.5t-51 132.5v463q0 68 -21.5 90t-82.5 22q-2 0 -5.5 5t-3.5 12z" />
<glyph unicode="&#x164;" horiz-adv-x="1310" d="M80 930q8 80 18.5 206t10.5 189q0 10 11 10t11 -10q0 -45 115 -45q176 -6 411 -6q121 0 256 4l140 2q78 0 113.5 10t45.5 41q2 8 12.5 8t10.5 -8q-6 -63 -12 -192t-6 -209q0 -6 -11.5 -6t-13.5 6q-20 158 -96 232.5t-205 74.5q-57 0 -85 -10t-37 -36t-9 -81v-944 q0 -63 12 -92t49 -39t117 -10q6 0 6 -12.5t-6 -12.5q-72 0 -113 2l-168 2l-159 -2q-43 -2 -119 -2q-4 0 -4 12.5t4 12.5q80 0 118 10t51 39.5t13 91.5v948q0 53 -10 78t-37 35t-82 10q-125 0 -206 -77t-124 -232q0 -4 -11 -4t-11 6zM420 1630v2q0 6 5 11.5t7 1.5l223 -93 l222 95h2q6 0 9 -5.5t-1 -9.5l-209 -225q-8 -8 -23 -8q-16 0 -24 8z" />
<glyph unicode="&#x165;" horiz-adv-x="690" d="M57 750q0 6 3 11t6 5q193 8 241 166q4 8 17.5 8t13.5 -8v-162q96 2 272 21q4 0 9.5 -15.5t5.5 -34.5q0 -18 -7.5 -36.5t-15.5 -16.5q-115 27 -264 33v-496q0 -80 40 -117.5t111 -37.5q86 0 162 59l4 2q6 0 11.5 -8t-0.5 -12q-76 -72 -143.5 -104t-143.5 -32 q-88 0 -148.5 42t-60.5 141v463q0 68 -21.5 90t-82.5 22q-2 0 -5.5 5t-3.5 12zM420 1432q0 10 38 -2.5t71.5 -34t31.5 -35.5l-102 -488q-2 -4 -12.5 -3t-10.5 5z" />
<glyph unicode="&#x166;" horiz-adv-x="1294" d="M80 930q8 80 18.5 206t10.5 189q0 10 11 10t11 -10q0 -45 115 -45q176 -6 411 -6q121 0 256 4l140 2q78 0 113.5 10t45.5 41q2 8 12.5 8t10.5 -8q-6 -63 -12 -192t-6 -209q0 -6 -11.5 -6t-13.5 6q-20 158 -96 232.5t-205 74.5q-57 0 -85 -10t-37 -36t-9 -81v-422h190 q10 0 11 -26q0 -10 -3.5 -18.5t-7.5 -8.5h-190v-469q0 -63 12 -92t49 -39t117 -10q6 0 6 -12.5t-6 -12.5q-72 0 -113 2l-168 2l-159 -2q-43 -2 -119 -2q-4 0 -4 12.5t4 12.5q80 0 118 10t51 39.5t13 91.5v469h-192q-8 0 -9 27q0 27 9 26h192v426q0 53 -10 78t-37 35t-82 10 q-125 0 -206 -77t-124 -232q0 -4 -11 -4t-11 6z" />
<glyph unicode="&#x167;" horiz-adv-x="694" d="M57 750q0 6 3 11t6 5q193 8 241 166q4 8 17.5 8t13.5 -8v-162q96 2 272 21q4 0 9.5 -15.5t5.5 -34.5q0 -18 -7.5 -36.5t-15.5 -16.5q-115 27 -264 33v-256h235q8 0 9 -27q0 -27 -9 -26h-235v-187q0 -80 40 -117.5t111 -37.5q86 0 162 59l4 2q6 0 11.5 -8t-0.5 -12 q-76 -72 -143.5 -104t-143.5 -32q-88 0 -148.5 42t-60.5 141v254h-66q-2 0 -5 8t-3 18t2 18.5t6 8.5h66v156q0 68 -21.5 90t-82.5 22q-2 0 -5.5 5t-3.5 12z" />
<glyph unicode="&#x168;" horiz-adv-x="1435" d="M57 1267.5q0 12.5 6 12.5l107 -2q90 -4 145 -4q61 0 152 4l102 2q6 0 6 -12.5t-6 -12.5q-68 0 -100.5 -12t-43.5 -42t-11 -91v-584q0 -244 101 -363.5t284 -119.5q174 0 272 107.5t98 304.5v575q0 107 -48 166t-138 59q-4 0 -4 12.5t4 12.5l94 -2q78 -4 123 -4 q37 0 111 4l90 2q4 0 4 -12.5t-4 -12.5q-80 0 -124 -59t-44 -166v-573q0 -147 -62.5 -257t-176 -169.5t-263.5 -59.5t-266.5 58.5t-181 168t-64.5 257.5v659q0 61 -12 90t-44 40t-100 11q-6 0 -6 12.5zM492 1473q90 154 176 153q23 0 100 -20q100 -31 152 -31 q32 0 54.5 13.5t47.5 41.5l4 2q4 0 8 -6t2 -10q-53 -90 -88 -121t-80 -31q-41 0 -116 23q-35 10 -73 18t-71 8q-39 0 -55 -11t-47 -44h-2q-6 0 -11.5 5t-0.5 10z" />
<glyph unicode="&#x169;" horiz-adv-x="1026" d="M18.5 672q-4.5 10 1.5 14l261 121l8 2q8 0 18 -8t10 -15v-464q0 -115 42 -171.5t128 -56.5q51 0 105.5 24.5t97.5 67.5v353q0 72 -15.5 105.5t-47.5 33.5q-18 0 -58 -16h-2q-8 0 -12 11t4 13l258 121q4 2 10 2q8 0 18.5 -8t10.5 -15v-555q0 -72 14.5 -100.5t47.5 -28.5 q25 0 92 25l4 2q6 0 10 -10t-2 -15l-268 -129l-9 -2q-20 0 -36.5 46.5t-18.5 123.5q-143 -166 -303 -166q-111 0 -172 69t-61 187v306q0 139 -64 139q-20 0 -57 -16h-2q-8 0 -12.5 10zM242 983q90 154 176 154q23 0 100 -21q100 -31 152 -31q33 0 55.5 13.5t46.5 42.5l4 2 q4 0 8 -6.5t2 -10.5q-53 -90 -87.5 -120.5t-80.5 -30.5q-41 0 -116 22q-35 10 -73 18.5t-71 8.5q-39 0 -55 -11.5t-47 -43.5h-2q-6 0 -11 5t-1 9z" />
<glyph unicode="&#x16a;" horiz-adv-x="1435" d="M57 1267.5q0 12.5 6 12.5l107 -2q90 -4 145 -4q61 0 152 4l102 2q6 0 6 -12.5t-6 -12.5q-68 0 -100.5 -12t-43.5 -42t-11 -91v-584q0 -244 101 -363.5t284 -119.5q174 0 272 107.5t98 304.5v575q0 107 -48 166t-138 59q-4 0 -4 12.5t4 12.5l94 -2q78 -4 123 -4 q37 0 111 4l90 2q4 0 4 -12.5t-4 -12.5q-80 0 -124 -59t-44 -166v-573q0 -147 -62.5 -257t-176 -169.5t-263.5 -59.5t-266.5 58.5t-181 168t-64.5 257.5v659q0 61 -12 90t-44 40t-100 11q-6 0 -6 12.5zM489 1501q0 14 4.5 24.5t12.5 10.5h514q8 0 13 -10t5 -25 q0 -14 -5 -24.5t-13 -10.5h-514q-8 0 -12.5 11.5t-4.5 23.5z" />
<glyph unicode="&#x16b;" horiz-adv-x="1026" d="M18.5 672q-4.5 10 1.5 14l261 121l8 2q8 0 18 -8t10 -15v-464q0 -115 42 -171.5t128 -56.5q51 0 105.5 24.5t97.5 67.5v353q0 72 -15.5 105.5t-47.5 33.5q-18 0 -58 -16h-2q-8 0 -12 11t4 13l258 121q4 2 10 2q8 0 18.5 -8t10.5 -15v-555q0 -72 14.5 -100.5t47.5 -28.5 q25 0 92 25l4 2q6 0 10 -10t-2 -15l-268 -129l-9 -2q-20 0 -36.5 46.5t-18.5 123.5q-143 -166 -303 -166q-111 0 -172 69t-61 187v306q0 139 -64 139q-20 0 -57 -16h-2q-8 0 -12.5 10zM240 1012q0 14 4 24.5t12 10.5h514q8 0 13 -10.5t5 -24.5t-5 -24.5t-13 -10.5h-514 q-8 0 -12 11t-4 24z" />
<glyph unicode="&#x16c;" horiz-adv-x="1435" d="M57 1267.5q0 12.5 6 12.5l107 -2q90 -4 145 -4q61 0 152 4l102 2q6 0 6 -12.5t-6 -12.5q-68 0 -100.5 -12t-43.5 -42t-11 -91v-584q0 -244 101 -363.5t284 -119.5q174 0 272 107.5t98 304.5v575q0 107 -48 166t-138 59q-4 0 -4 12.5t4 12.5l94 -2q78 -4 123 -4 q37 0 111 4l90 2q4 0 4 -12.5t-4 -12.5q-80 0 -124 -59t-44 -166v-573q0 -147 -62.5 -257t-176 -169.5t-263.5 -59.5t-266.5 58.5t-181 168t-64.5 257.5v659q0 61 -12 90t-44 40t-100 11q-6 0 -6 12.5zM553 1659q0 8 10 8t12 -4q4 -43 59.5 -79t129.5 -36q72 0 127 36t59 79 q0 6 11.5 5t11.5 -9q-4 -119 -57.5 -182.5t-151.5 -63.5t-152.5 63.5t-58.5 182.5z" />
<glyph unicode="&#x16d;" horiz-adv-x="1026" d="M18.5 672q-4.5 10 1.5 14l261 121l8 2q8 0 18 -8t10 -15v-464q0 -115 42 -171.5t128 -56.5q51 0 105.5 24.5t97.5 67.5v353q0 72 -15.5 105.5t-47.5 33.5q-18 0 -58 -16h-2q-8 0 -12 11t4 13l258 121q4 2 10 2q8 0 18.5 -8t10.5 -15v-555q0 -72 14.5 -100.5t47.5 -28.5 q25 0 92 25l4 2q6 0 10 -10t-2 -15l-268 -129l-9 -2q-20 0 -36.5 46.5t-18.5 123.5q-143 -166 -303 -166q-111 0 -172 69t-61 187v306q0 139 -64 139q-20 0 -57 -16h-2q-8 0 -12.5 10zM303 1278q0 8 11.5 9t11.5 -5q0 -74 54 -127t134 -53q78 0 132 53t54 127q0 6 11.5 5 t11.5 -9q0 -158 -53.5 -241t-155.5 -83t-156.5 83t-54.5 241z" />
<glyph unicode="&#x16e;" horiz-adv-x="1435" d="M57 1267.5q0 12.5 6 12.5l107 -2q90 -4 145 -4q61 0 152 4l102 2q6 0 6 -12.5t-6 -12.5q-68 0 -100.5 -12t-43.5 -42t-11 -91v-584q0 -244 101 -363.5t284 -119.5q174 0 272 107.5t98 304.5v575q0 107 -48 166t-138 59q-4 0 -4 12.5t4 12.5l94 -2q78 -4 123 -4 q37 0 111 4l90 2q4 0 4 -12.5t-4 -12.5q-80 0 -124 -59t-44 -166v-573q0 -147 -62.5 -257t-176 -169.5t-263.5 -59.5t-266.5 58.5t-181 168t-64.5 257.5v659q0 61 -12 90t-44 40t-100 11q-6 0 -6 12.5zM541 1610q0 74 69.5 116.5t155.5 42.5q84 0 144.5 -48t60.5 -115 q0 -72 -68.5 -115t-157.5 -43q-92 0 -148 48t-56 114zM670 1651q0 -68 29.5 -122t78.5 -54q31 0 45.5 22.5t14.5 71.5q0 72 -33 123t-80 51q-55 0 -55 -92z" />
<glyph unicode="&#x16f;" horiz-adv-x="1026" d="M18.5 672q-4.5 10 1.5 14l261 121l8 2q8 0 18 -8t10 -15v-464q0 -115 42 -171.5t128 -56.5q51 0 105.5 24.5t97.5 67.5v353q0 72 -15.5 105.5t-47.5 33.5q-18 0 -58 -16h-2q-8 0 -12 11t4 13l258 121q4 2 10 2q8 0 18.5 -8t10.5 -15v-555q0 -72 14.5 -100.5t47.5 -28.5 q25 0 92 25l4 2q6 0 10 -10t-2 -15l-268 -129l-9 -2q-20 0 -36.5 46.5t-18.5 123.5q-143 -166 -303 -166q-111 0 -172 69t-61 187v306q0 139 -64 139q-20 0 -57 -16h-2q-8 0 -12.5 10zM291 1120q0 74 69.5 117t155.5 43q84 0 144.5 -48t60.5 -116q0 -72 -68.5 -115 t-156.5 -43q-93 0 -149 48.5t-56 113.5zM420 1161q0 -68 29.5 -122t78.5 -54q31 0 45.5 22.5t14.5 71.5q0 72 -33 123t-80 51q-55 0 -55 -92z" />
<glyph unicode="&#x170;" horiz-adv-x="1435" d="M57 1267.5q0 12.5 6 12.5l107 -2q90 -4 145 -4q61 0 152 4l102 2q6 0 6 -12.5t-6 -12.5q-68 0 -100.5 -12t-43.5 -42t-11 -91v-584q0 -244 101 -363.5t284 -119.5q174 0 272 107.5t98 304.5v575q0 107 -48 166t-138 59q-4 0 -4 12.5t4 12.5l94 -2q78 -4 123 -4 q37 0 111 4l90 2q4 0 4 -12.5t-4 -12.5q-80 0 -124 -59t-44 -166v-573q0 -147 -62.5 -257t-176 -169.5t-263.5 -59.5t-266.5 58.5t-181 168t-64.5 257.5v659q0 61 -12 90t-44 40t-100 11q-6 0 -6 12.5zM525.5 1380.5q-3.5 8.5 0.5 14.5q100 117 185 237q6 12 56 -1t90 -34.5 t22 -29.5q-180 -80 -338 -193l-4 -2q-8 0 -11.5 8.5zM818 1380.5q-3 8.5 1 14.5q47 51 95.5 114.5t89.5 122.5q4 12 54 -1t89 -34.5t20 -29.5q-174 -80 -333 -193l-7 -2q-6 0 -9 8.5z" />
</font>
</defs>
</svg>
